<?xml version="1.0" encoding="utf-8" standalone="no"?>
<!DOCTYPE svg PUBLIC "-//W3C//DTD SVG 1.1//EN"
  "http://www.w3.org/Graphics/SVG/1.1/DTD/svg11.dtd">
<svg xmlns:xlink="http://www.w3.org/1999/xlink" width="643.038437pt" height="582.623358pt" viewBox="0 0 643.038437 582.623358" xmlns="http://www.w3.org/2000/svg" version="1.1">
 <metadata>
  <rdf:RDF xmlns:dc="http://purl.org/dc/elements/1.1/" xmlns:cc="http://creativecommons.org/ns#" xmlns:rdf="http://www.w3.org/1999/02/22-rdf-syntax-ns#">
   <cc:Work>
    <dc:type rdf:resource="http://purl.org/dc/dcmitype/StillImage"/>
    <dc:date>2026-03-26T11:40:13.941645</dc:date>
    <dc:format>image/svg+xml</dc:format>
    <dc:creator>
     <cc:Agent>
      <dc:title>Matplotlib v3.10.8, https://matplotlib.org/</dc:title>
     </cc:Agent>
    </dc:creator>
   </cc:Work>
  </rdf:RDF>
 </metadata>
 <defs>
  <style type="text/css">*{stroke-linejoin: round; stroke-linecap: butt}</style>
 </defs>
 <g id="figure_1">
  <g id="patch_1">
   <path d="M 0 582.623358 
L 643.038437 582.623358 
L 643.038437 0 
L 0 0 
z
" style="fill: #ffffff"/>
  </g>
  <g id="axes_1">
   <g id="patch_2">
    <path d="M 512.67 318.246563 
C 512.67 285.057706 506.132519 252.19157 493.431694 221.529065 
C 480.730868 190.86656 462.113698 163.003995 438.645632 139.53593 
C 415.177567 116.067865 387.315002 97.450694 356.652497 84.749869 
C 325.989992 72.049043 293.123856 65.511563 259.935 65.511563 
C 226.746144 65.511563 193.880008 72.049043 163.217503 84.749869 
C 132.554998 97.450694 104.692433 116.067865 81.224368 139.53593 
C 57.756302 163.003995 39.139132 190.86656 26.438306 221.529065 
C 13.737481 252.19157 7.2 285.057706 7.2 318.246562 
C 7.2 351.435419 13.737481 384.301555 26.438306 414.96406 
C 39.139132 445.626565 57.756302 473.48913 81.224368 496.957195 
C 104.692433 520.42526 132.554998 539.042431 163.217503 551.743256 
C 193.880008 564.444082 226.746144 570.981562 259.935 570.981562 
C 293.123856 570.981562 325.989992 564.444082 356.652497 551.743256 
C 387.315002 539.042431 415.177567 520.42526 438.645632 496.957195 
C 462.113698 473.48913 480.730868 445.626565 493.431694 414.96406 
C 506.132519 384.301555 512.67 351.435419 512.67 318.246563 
M 259.935 318.246563 
C 259.935 318.246563 259.935 318.246563 259.935 318.246563 
C 259.935 318.246563 259.935 318.246563 259.935 318.246563 
C 259.935 318.246563 259.935 318.246563 259.935 318.246563 
C 259.935 318.246563 259.935 318.246563 259.935 318.246563 
C 259.935 318.246563 259.935 318.246563 259.935 318.246563 
C 259.935 318.246563 259.935 318.246563 259.935 318.246563 
C 259.935 318.246563 259.935 318.246563 259.935 318.246563 
C 259.935 318.246563 259.935 318.246563 259.935 318.246563 
C 259.935 318.246563 259.935 318.246563 259.935 318.246563 
C 259.935 318.246563 259.935 318.246563 259.935 318.246563 
C 259.935 318.246563 259.935 318.246563 259.935 318.246563 
C 259.935 318.246563 259.935 318.246563 259.935 318.246563 
C 259.935 318.246563 259.935 318.246563 259.935 318.246563 
C 259.935 318.246563 259.935 318.246563 259.935 318.246563 
C 259.935 318.246563 259.935 318.246563 259.935 318.246563 
C 259.935 318.246563 259.935 318.246563 259.935 318.246563 
z
" style="fill: #ffffff"/>
   </g>
   <g id="patch_3">
    <path d="M 512.67 318.246563 
L 248.605752 298.62373 
L 226.392803 376.343351 
z
" clip-path="url(#pd94127d692)" style="fill: #06a77d; opacity: 0.15; stroke: #06a77d; stroke-linejoin: miter"/>
   </g>
   <g id="patch_4">
    <path d="M 512.296181 318.246563 
L 228.196785 263.274362 
L 186.212623 445.937465 
z
" clip-path="url(#pd94127d692)" style="fill: #2e86ab; opacity: 0.15; stroke: #2e86ab; stroke-linejoin: miter"/>
   </g>
   <g id="patch_5">
    <path d="M 448.924035 318.246563 
L 244.087508 290.797901 
L 133.5675 537.121493 
z
" clip-path="url(#pd94127d692)" style="fill: #5e4fa2; opacity: 0.15; stroke: #5e4fa2; stroke-linejoin: miter"/>
   </g>
   <g id="patch_6">
    <path d="M 427.682785 318.246563 
L 161.241223 147.303926 
L 169.43956 474.989262 
z
" clip-path="url(#pd94127d692)" style="fill: #a23b72; opacity: 0.15; stroke: #a23b72; stroke-linejoin: miter"/>
   </g>
   <g id="patch_7">
    <path d="M 407.639778 318.246563 
L 133.5675 99.371632 
L 152.066354 505.080537 
z
" clip-path="url(#pd94127d692)" style="fill: #f18f01; opacity: 0.15; stroke: #f18f01; stroke-linejoin: miter"/>
   </g>
   <g id="patch_8">
    <path d="M 392.26262 318.246563 
L 181.067476 181.644003 
L 172.80311 469.163424 
z
" clip-path="url(#pd94127d692)" style="fill: #c73e1d; opacity: 0.15; stroke: #c73e1d; stroke-linejoin: miter"/>
   </g>
   <g id="matplotlib.axis_1">
    <g id="xtick_1">
     <g id="line2d_1">
      <path d="M 259.935 318.246563 
L 512.67 318.246563 
" clip-path="url(#pd94127d692)" style="fill: none; stroke: #b0b0b0; stroke-opacity: 0.5; stroke-width: 0.5; stroke-linecap: square"/>
     </g>
     <g id="text_1">
      <!-- Compression -->
      <g transform="translate(541.17 314.555172) scale(0.13 -0.13)">
       <defs>
        <path id="DejaVuSans-Bold-43" d="M 4288 256 
Q 3956 84 3597 -3 
Q 3238 -91 2847 -91 
Q 1681 -91 1000 561 
Q 319 1213 319 2328 
Q 319 3447 1000 4098 
Q 1681 4750 2847 4750 
Q 3238 4750 3597 4662 
Q 3956 4575 4288 4403 
L 4288 3438 
Q 3953 3666 3628 3772 
Q 3303 3878 2944 3878 
Q 2300 3878 1931 3465 
Q 1563 3053 1563 2328 
Q 1563 1606 1931 1193 
Q 2300 781 2944 781 
Q 3303 781 3628 887 
Q 3953 994 4288 1222 
L 4288 256 
z
" transform="scale(0.015625)"/>
        <path id="DejaVuSans-Bold-6f" d="M 2203 2784 
Q 1831 2784 1636 2517 
Q 1441 2250 1441 1747 
Q 1441 1244 1636 976 
Q 1831 709 2203 709 
Q 2569 709 2762 976 
Q 2956 1244 2956 1747 
Q 2956 2250 2762 2517 
Q 2569 2784 2203 2784 
z
M 2203 3584 
Q 3106 3584 3614 3096 
Q 4122 2609 4122 1747 
Q 4122 884 3614 396 
Q 3106 -91 2203 -91 
Q 1297 -91 786 396 
Q 275 884 275 1747 
Q 275 2609 786 3096 
Q 1297 3584 2203 3584 
z
" transform="scale(0.015625)"/>
        <path id="DejaVuSans-Bold-6d" d="M 3781 2919 
Q 3994 3244 4286 3414 
Q 4578 3584 4928 3584 
Q 5531 3584 5847 3212 
Q 6163 2841 6163 2131 
L 6163 0 
L 5038 0 
L 5038 1825 
Q 5041 1866 5042 1909 
Q 5044 1953 5044 2034 
Q 5044 2406 4934 2573 
Q 4825 2741 4581 2741 
Q 4263 2741 4089 2478 
Q 3916 2216 3909 1719 
L 3909 0 
L 2784 0 
L 2784 1825 
Q 2784 2406 2684 2573 
Q 2584 2741 2328 2741 
Q 2006 2741 1831 2477 
Q 1656 2213 1656 1722 
L 1656 0 
L 531 0 
L 531 3500 
L 1656 3500 
L 1656 2988 
Q 1863 3284 2130 3434 
Q 2397 3584 2719 3584 
Q 3081 3584 3359 3409 
Q 3638 3234 3781 2919 
z
" transform="scale(0.015625)"/>
        <path id="DejaVuSans-Bold-70" d="M 1656 506 
L 1656 -1331 
L 538 -1331 
L 538 3500 
L 1656 3500 
L 1656 2988 
Q 1888 3294 2169 3439 
Q 2450 3584 2816 3584 
Q 3463 3584 3878 3070 
Q 4294 2556 4294 1747 
Q 4294 938 3878 423 
Q 3463 -91 2816 -91 
Q 2450 -91 2169 54 
Q 1888 200 1656 506 
z
M 2400 2772 
Q 2041 2772 1848 2508 
Q 1656 2244 1656 1747 
Q 1656 1250 1848 986 
Q 2041 722 2400 722 
Q 2759 722 2948 984 
Q 3138 1247 3138 1747 
Q 3138 2247 2948 2509 
Q 2759 2772 2400 2772 
z
" transform="scale(0.015625)"/>
        <path id="DejaVuSans-Bold-72" d="M 3138 2547 
Q 2991 2616 2845 2648 
Q 2700 2681 2553 2681 
Q 2122 2681 1889 2404 
Q 1656 2128 1656 1613 
L 1656 0 
L 538 0 
L 538 3500 
L 1656 3500 
L 1656 2925 
Q 1872 3269 2151 3426 
Q 2431 3584 2822 3584 
Q 2878 3584 2943 3579 
Q 3009 3575 3134 3559 
L 3138 2547 
z
" transform="scale(0.015625)"/>
        <path id="DejaVuSans-Bold-65" d="M 4031 1759 
L 4031 1441 
L 1416 1441 
Q 1456 1047 1700 850 
Q 1944 653 2381 653 
Q 2734 653 3104 758 
Q 3475 863 3866 1075 
L 3866 213 
Q 3469 63 3072 -14 
Q 2675 -91 2278 -91 
Q 1328 -91 801 392 
Q 275 875 275 1747 
Q 275 2603 792 3093 
Q 1309 3584 2216 3584 
Q 3041 3584 3536 3087 
Q 4031 2591 4031 1759 
z
M 2881 2131 
Q 2881 2450 2695 2645 
Q 2509 2841 2209 2841 
Q 1884 2841 1681 2658 
Q 1478 2475 1428 2131 
L 2881 2131 
z
" transform="scale(0.015625)"/>
        <path id="DejaVuSans-Bold-73" d="M 3272 3391 
L 3272 2541 
Q 2913 2691 2578 2766 
Q 2244 2841 1947 2841 
Q 1628 2841 1473 2761 
Q 1319 2681 1319 2516 
Q 1319 2381 1436 2309 
Q 1553 2238 1856 2203 
L 2053 2175 
Q 2913 2066 3209 1816 
Q 3506 1566 3506 1031 
Q 3506 472 3093 190 
Q 2681 -91 1863 -91 
Q 1516 -91 1145 -36 
Q 775 19 384 128 
L 384 978 
Q 719 816 1070 734 
Q 1422 653 1784 653 
Q 2113 653 2278 743 
Q 2444 834 2444 1013 
Q 2444 1163 2330 1236 
Q 2216 1309 1875 1350 
L 1678 1375 
Q 931 1469 631 1722 
Q 331 1975 331 2491 
Q 331 3047 712 3315 
Q 1094 3584 1881 3584 
Q 2191 3584 2531 3537 
Q 2872 3491 3272 3391 
z
" transform="scale(0.015625)"/>
        <path id="DejaVuSans-Bold-69" d="M 538 3500 
L 1656 3500 
L 1656 0 
L 538 0 
L 538 3500 
z
M 538 4863 
L 1656 4863 
L 1656 3950 
L 538 3950 
L 538 4863 
z
" transform="scale(0.015625)"/>
        <path id="DejaVuSans-Bold-6e" d="M 4056 2131 
L 4056 0 
L 2931 0 
L 2931 347 
L 2931 1631 
Q 2931 2084 2911 2256 
Q 2891 2428 2841 2509 
Q 2775 2619 2662 2680 
Q 2550 2741 2406 2741 
Q 2056 2741 1856 2470 
Q 1656 2200 1656 1722 
L 1656 0 
L 538 0 
L 538 3500 
L 1656 3500 
L 1656 2988 
Q 1909 3294 2193 3439 
Q 2478 3584 2822 3584 
Q 3428 3584 3742 3212 
Q 4056 2841 4056 2131 
z
" transform="scale(0.015625)"/>
       </defs>
       <use xlink:href="#DejaVuSans-Bold-43"/>
       <use xlink:href="#DejaVuSans-Bold-6f" transform="translate(73.388672 0)"/>
       <use xlink:href="#DejaVuSans-Bold-6d" transform="translate(142.089844 0)"/>
       <use xlink:href="#DejaVuSans-Bold-70" transform="translate(246.289062 0)"/>
       <use xlink:href="#DejaVuSans-Bold-72" transform="translate(317.871094 0)"/>
       <use xlink:href="#DejaVuSans-Bold-65" transform="translate(367.1875 0)"/>
       <use xlink:href="#DejaVuSans-Bold-73" transform="translate(435.009766 0)"/>
       <use xlink:href="#DejaVuSans-Bold-73" transform="translate(494.53125 0)"/>
       <use xlink:href="#DejaVuSans-Bold-69" transform="translate(554.052734 0)"/>
       <use xlink:href="#DejaVuSans-Bold-6f" transform="translate(588.330078 0)"/>
       <use xlink:href="#DejaVuSans-Bold-6e" transform="translate(657.03125 0)"/>
      </g>
      <!-- Ratio -->
      <g transform="translate(541.17 329.112328) scale(0.13 -0.13)">
       <defs>
        <path id="DejaVuSans-Bold-52" d="M 2297 2597 
Q 2675 2597 2839 2737 
Q 3003 2878 3003 3200 
Q 3003 3519 2839 3656 
Q 2675 3794 2297 3794 
L 1791 3794 
L 1791 2597 
L 2297 2597 
z
M 1791 1766 
L 1791 0 
L 588 0 
L 588 4666 
L 2425 4666 
Q 3347 4666 3776 4356 
Q 4206 4047 4206 3378 
Q 4206 2916 3982 2619 
Q 3759 2322 3309 2181 
Q 3556 2125 3751 1926 
Q 3947 1728 4147 1325 
L 4800 0 
L 3519 0 
L 2950 1159 
Q 2778 1509 2601 1637 
Q 2425 1766 2131 1766 
L 1791 1766 
z
" transform="scale(0.015625)"/>
        <path id="DejaVuSans-Bold-61" d="M 2106 1575 
Q 1756 1575 1579 1456 
Q 1403 1338 1403 1106 
Q 1403 894 1545 773 
Q 1688 653 1941 653 
Q 2256 653 2472 879 
Q 2688 1106 2688 1447 
L 2688 1575 
L 2106 1575 
z
M 3816 1997 
L 3816 0 
L 2688 0 
L 2688 519 
Q 2463 200 2181 54 
Q 1900 -91 1497 -91 
Q 953 -91 614 226 
Q 275 544 275 1050 
Q 275 1666 698 1953 
Q 1122 2241 2028 2241 
L 2688 2241 
L 2688 2328 
Q 2688 2594 2478 2717 
Q 2269 2841 1825 2841 
Q 1466 2841 1156 2769 
Q 847 2697 581 2553 
L 581 3406 
Q 941 3494 1303 3539 
Q 1666 3584 2028 3584 
Q 2975 3584 3395 3211 
Q 3816 2838 3816 1997 
z
" transform="scale(0.015625)"/>
        <path id="DejaVuSans-Bold-74" d="M 1759 4494 
L 1759 3500 
L 2913 3500 
L 2913 2700 
L 1759 2700 
L 1759 1216 
Q 1759 972 1856 886 
Q 1953 800 2241 800 
L 2816 800 
L 2816 0 
L 1856 0 
Q 1194 0 917 276 
Q 641 553 641 1216 
L 641 2700 
L 84 2700 
L 84 3500 
L 641 3500 
L 641 4494 
L 1759 4494 
z
" transform="scale(0.015625)"/>
       </defs>
       <use xlink:href="#DejaVuSans-Bold-52"/>
       <use xlink:href="#DejaVuSans-Bold-61" transform="translate(77.001953 0)"/>
       <use xlink:href="#DejaVuSans-Bold-74" transform="translate(144.482422 0)"/>
       <use xlink:href="#DejaVuSans-Bold-69" transform="translate(192.285156 0)"/>
       <use xlink:href="#DejaVuSans-Bold-6f" transform="translate(226.5625 0)"/>
      </g>
     </g>
    </g>
    <g id="xtick_2">
     <g id="line2d_2">
      <path d="M 259.935 318.246563 
L 133.5675 99.371632 
" clip-path="url(#pd94127d692)" style="fill: none; stroke: #b0b0b0; stroke-opacity: 0.5; stroke-width: 0.5; stroke-linecap: square"/>
     </g>
     <g id="text_2">
      <!-- Write -->
      <g transform="translate(79.307969 70.947736) scale(0.13 -0.13)">
       <defs>
        <path id="DejaVuSans-Bold-57" d="M 191 4666 
L 1344 4666 
L 2150 1275 
L 2950 4666 
L 4109 4666 
L 4909 1275 
L 5716 4666 
L 6859 4666 
L 5759 0 
L 4372 0 
L 3525 3547 
L 2688 0 
L 1300 0 
L 191 4666 
z
" transform="scale(0.015625)"/>
       </defs>
       <use xlink:href="#DejaVuSans-Bold-57"/>
       <use xlink:href="#DejaVuSans-Bold-72" transform="translate(108.552734 0)"/>
       <use xlink:href="#DejaVuSans-Bold-69" transform="translate(157.869141 0)"/>
       <use xlink:href="#DejaVuSans-Bold-74" transform="translate(192.146484 0)"/>
       <use xlink:href="#DejaVuSans-Bold-65" transform="translate(239.949219 0)"/>
      </g>
      <!-- Throughput -->
      <g transform="translate(33.265625 85.504892) scale(0.13 -0.13)">
       <defs>
        <path id="DejaVuSans-Bold-54" d="M 31 4666 
L 4331 4666 
L 4331 3756 
L 2784 3756 
L 2784 0 
L 1581 0 
L 1581 3756 
L 31 3756 
L 31 4666 
z
" transform="scale(0.015625)"/>
        <path id="DejaVuSans-Bold-68" d="M 4056 2131 
L 4056 0 
L 2931 0 
L 2931 347 
L 2931 1625 
Q 2931 2084 2911 2256 
Q 2891 2428 2841 2509 
Q 2775 2619 2662 2680 
Q 2550 2741 2406 2741 
Q 2056 2741 1856 2470 
Q 1656 2200 1656 1722 
L 1656 0 
L 538 0 
L 538 4863 
L 1656 4863 
L 1656 2988 
Q 1909 3294 2193 3439 
Q 2478 3584 2822 3584 
Q 3428 3584 3742 3212 
Q 4056 2841 4056 2131 
z
" transform="scale(0.015625)"/>
        <path id="DejaVuSans-Bold-75" d="M 500 1363 
L 500 3500 
L 1625 3500 
L 1625 3150 
Q 1625 2866 1622 2436 
Q 1619 2006 1619 1863 
Q 1619 1441 1641 1255 
Q 1663 1069 1716 984 
Q 1784 875 1895 815 
Q 2006 756 2150 756 
Q 2500 756 2700 1025 
Q 2900 1294 2900 1772 
L 2900 3500 
L 4019 3500 
L 4019 0 
L 2900 0 
L 2900 506 
Q 2647 200 2364 54 
Q 2081 -91 1741 -91 
Q 1134 -91 817 281 
Q 500 653 500 1363 
z
" transform="scale(0.015625)"/>
        <path id="DejaVuSans-Bold-67" d="M 2919 594 
Q 2688 288 2409 144 
Q 2131 0 1766 0 
Q 1125 0 706 504 
Q 288 1009 288 1791 
Q 288 2575 706 3076 
Q 1125 3578 1766 3578 
Q 2131 3578 2409 3434 
Q 2688 3291 2919 2981 
L 2919 3500 
L 4044 3500 
L 4044 353 
Q 4044 -491 3511 -936 
Q 2978 -1381 1966 -1381 
Q 1638 -1381 1331 -1331 
Q 1025 -1281 716 -1178 
L 716 -306 
Q 1009 -475 1290 -558 
Q 1572 -641 1856 -641 
Q 2406 -641 2662 -400 
Q 2919 -159 2919 353 
L 2919 594 
z
M 2181 2772 
Q 1834 2772 1640 2515 
Q 1447 2259 1447 1791 
Q 1447 1309 1634 1061 
Q 1822 813 2181 813 
Q 2531 813 2725 1069 
Q 2919 1325 2919 1791 
Q 2919 2259 2725 2515 
Q 2531 2772 2181 2772 
z
" transform="scale(0.015625)"/>
       </defs>
       <use xlink:href="#DejaVuSans-Bold-54"/>
       <use xlink:href="#DejaVuSans-Bold-68" transform="translate(68.212891 0)"/>
       <use xlink:href="#DejaVuSans-Bold-72" transform="translate(139.404297 0)"/>
       <use xlink:href="#DejaVuSans-Bold-6f" transform="translate(188.720703 0)"/>
       <use xlink:href="#DejaVuSans-Bold-75" transform="translate(257.421875 0)"/>
       <use xlink:href="#DejaVuSans-Bold-67" transform="translate(328.613281 0)"/>
       <use xlink:href="#DejaVuSans-Bold-68" transform="translate(400.195312 0)"/>
       <use xlink:href="#DejaVuSans-Bold-70" transform="translate(471.386719 0)"/>
       <use xlink:href="#DejaVuSans-Bold-75" transform="translate(542.96875 0)"/>
       <use xlink:href="#DejaVuSans-Bold-74" transform="translate(614.160156 0)"/>
      </g>
     </g>
    </g>
    <g id="xtick_3">
     <g id="line2d_3">
      <path d="M 259.935 318.246563 
L 133.5675 537.121493 
" clip-path="url(#pd94127d692)" style="fill: none; stroke: #b0b0b0; stroke-opacity: 0.5; stroke-width: 0.5; stroke-linecap: square"/>
     </g>
     <g id="text_3">
      <!-- Read -->
      <g transform="translate(82.411719 558.061045) scale(0.13 -0.13)">
       <defs>
        <path id="DejaVuSans-Bold-64" d="M 2919 2988 
L 2919 4863 
L 4044 4863 
L 4044 0 
L 2919 0 
L 2919 506 
Q 2688 197 2409 53 
Q 2131 -91 1766 -91 
Q 1119 -91 703 423 
Q 288 938 288 1747 
Q 288 2556 703 3070 
Q 1119 3584 1766 3584 
Q 2128 3584 2408 3439 
Q 2688 3294 2919 2988 
z
M 2181 722 
Q 2541 722 2730 984 
Q 2919 1247 2919 1747 
Q 2919 2247 2730 2509 
Q 2541 2772 2181 2772 
Q 1825 2772 1636 2509 
Q 1447 2247 1447 1747 
Q 1447 1247 1636 984 
Q 1825 722 2181 722 
z
" transform="scale(0.015625)"/>
       </defs>
       <use xlink:href="#DejaVuSans-Bold-52"/>
       <use xlink:href="#DejaVuSans-Bold-65" transform="translate(77.001953 0)"/>
       <use xlink:href="#DejaVuSans-Bold-61" transform="translate(144.824219 0)"/>
       <use xlink:href="#DejaVuSans-Bold-64" transform="translate(212.304688 0)"/>
      </g>
      <!-- Throughput -->
      <g transform="translate(33.265625 572.618201) scale(0.13 -0.13)">
       <use xlink:href="#DejaVuSans-Bold-54"/>
       <use xlink:href="#DejaVuSans-Bold-68" transform="translate(68.212891 0)"/>
       <use xlink:href="#DejaVuSans-Bold-72" transform="translate(139.404297 0)"/>
       <use xlink:href="#DejaVuSans-Bold-6f" transform="translate(188.720703 0)"/>
       <use xlink:href="#DejaVuSans-Bold-75" transform="translate(257.421875 0)"/>
       <use xlink:href="#DejaVuSans-Bold-67" transform="translate(328.613281 0)"/>
       <use xlink:href="#DejaVuSans-Bold-68" transform="translate(400.195312 0)"/>
       <use xlink:href="#DejaVuSans-Bold-70" transform="translate(471.386719 0)"/>
       <use xlink:href="#DejaVuSans-Bold-75" transform="translate(542.96875 0)"/>
       <use xlink:href="#DejaVuSans-Bold-74" transform="translate(614.160156 0)"/>
      </g>
     </g>
    </g>
   </g>
   <g id="matplotlib.axis_2">
    <g id="ytick_1">
     <g id="line2d_4">
      <path d="M 310.482 318.246563 
C 310.482 311.608791 309.174504 305.035564 306.634339 298.903063 
C 304.094174 292.770562 300.37074 287.198049 295.677126 282.504436 
C 290.983513 277.810823 285.411 274.087389 279.278499 271.547224 
C 273.145998 269.007059 266.572771 267.699563 259.935 267.699563 
C 253.297229 267.699563 246.724002 269.007059 240.591501 271.547224 
C 234.459 274.087389 228.886487 277.810823 224.192874 282.504436 
C 219.49926 287.198049 215.775826 292.770562 213.235661 298.903063 
C 210.695496 305.035564 209.388 311.608791 209.388 318.246563 
C 209.388 324.884334 210.695496 331.457561 213.235661 337.590062 
C 215.775826 343.722563 219.49926 349.295076 224.192874 353.988689 
C 228.886487 358.682302 234.459 362.405736 240.591501 364.945901 
C 246.724002 367.486066 253.297229 368.793563 259.935 368.793563 
C 266.572771 368.793563 273.145998 367.486066 279.278499 364.945901 
C 285.411 362.405736 290.983513 358.682302 295.677126 353.988689 
C 300.37074 349.295076 304.094174 343.722563 306.634339 337.590062 
C 309.174504 331.457561 310.482 324.884334 310.482 318.246563 
" clip-path="url(#pd94127d692)" style="fill: none; stroke: #b0b0b0; stroke-opacity: 0.5; stroke-width: 0.5; stroke-linecap: square"/>
     </g>
     <g id="text_4">
      <!-- 20% -->
      <g transform="translate(306.634339 295.783532) scale(0.15 -0.15)">
       <defs>
        <path id="DejaVuSans-32" d="M 1228 531 
L 3431 531 
L 3431 0 
L 469 0 
L 469 531 
Q 828 903 1448 1529 
Q 2069 2156 2228 2338 
Q 2531 2678 2651 2914 
Q 2772 3150 2772 3378 
Q 2772 3750 2511 3984 
Q 2250 4219 1831 4219 
Q 1534 4219 1204 4116 
Q 875 4013 500 3803 
L 500 4441 
Q 881 4594 1212 4672 
Q 1544 4750 1819 4750 
Q 2544 4750 2975 4387 
Q 3406 4025 3406 3419 
Q 3406 3131 3298 2873 
Q 3191 2616 2906 2266 
Q 2828 2175 2409 1742 
Q 1991 1309 1228 531 
z
" transform="scale(0.015625)"/>
        <path id="DejaVuSans-30" d="M 2034 4250 
Q 1547 4250 1301 3770 
Q 1056 3291 1056 2328 
Q 1056 1369 1301 889 
Q 1547 409 2034 409 
Q 2525 409 2770 889 
Q 3016 1369 3016 2328 
Q 3016 3291 2770 3770 
Q 2525 4250 2034 4250 
z
M 2034 4750 
Q 2819 4750 3233 4129 
Q 3647 3509 3647 2328 
Q 3647 1150 3233 529 
Q 2819 -91 2034 -91 
Q 1250 -91 836 529 
Q 422 1150 422 2328 
Q 422 3509 836 4129 
Q 1250 4750 2034 4750 
z
" transform="scale(0.015625)"/>
        <path id="DejaVuSans-25" d="M 4653 2053 
Q 4381 2053 4226 1822 
Q 4072 1591 4072 1178 
Q 4072 772 4226 539 
Q 4381 306 4653 306 
Q 4919 306 5073 539 
Q 5228 772 5228 1178 
Q 5228 1588 5073 1820 
Q 4919 2053 4653 2053 
z
M 4653 2450 
Q 5147 2450 5437 2106 
Q 5728 1763 5728 1178 
Q 5728 594 5436 251 
Q 5144 -91 4653 -91 
Q 4153 -91 3862 251 
Q 3572 594 3572 1178 
Q 3572 1766 3864 2108 
Q 4156 2450 4653 2450 
z
M 1428 4353 
Q 1159 4353 1004 4120 
Q 850 3888 850 3481 
Q 850 3069 1003 2837 
Q 1156 2606 1428 2606 
Q 1700 2606 1854 2837 
Q 2009 3069 2009 3481 
Q 2009 3884 1853 4118 
Q 1697 4353 1428 4353 
z
M 4250 4750 
L 4750 4750 
L 1831 -91 
L 1331 -91 
L 4250 4750 
z
M 1428 4750 
Q 1922 4750 2215 4408 
Q 2509 4066 2509 3481 
Q 2509 2891 2217 2550 
Q 1925 2209 1428 2209 
Q 931 2209 642 2551 
Q 353 2894 353 3481 
Q 353 4063 643 4406 
Q 934 4750 1428 4750 
z
" transform="scale(0.015625)"/>
       </defs>
       <use xlink:href="#DejaVuSans-32"/>
       <use xlink:href="#DejaVuSans-30" transform="translate(63.623047 0)"/>
       <use xlink:href="#DejaVuSans-25" transform="translate(127.246094 0)"/>
      </g>
     </g>
    </g>
    <g id="ytick_2">
     <g id="line2d_5">
      <path d="M 361.029 318.246563 
C 361.029 304.97102 358.414008 291.824566 353.333677 279.559564 
C 348.253347 267.294562 340.806479 256.149536 331.419253 246.76231 
C 322.032027 237.375083 310.887001 229.928215 298.621999 224.847885 
C 286.356997 219.767555 273.210542 217.152563 259.935 217.152563 
C 246.659458 217.152563 233.513003 219.767555 221.248001 224.847885 
C 208.982999 229.928215 197.837973 237.375083 188.450747 246.76231 
C 179.063521 256.149536 171.616653 267.294562 166.536323 279.559564 
C 161.455992 291.824566 158.841 304.97102 158.841 318.246563 
C 158.841 331.522105 161.455992 344.668559 166.536323 356.933561 
C 171.616653 369.198563 179.063521 380.343589 188.450747 389.730815 
C 197.837973 399.118042 208.982999 406.56491 221.248001 411.64524 
C 233.513003 416.72557 246.659458 419.340563 259.935 419.340563 
C 273.210542 419.340563 286.356997 416.72557 298.621999 411.64524 
C 310.887001 406.56491 322.032027 399.118042 331.419253 389.730815 
C 340.806479 380.343589 348.253347 369.198563 353.333677 356.933561 
C 358.414008 344.668559 361.029 331.522105 361.029 318.246563 
" clip-path="url(#pd94127d692)" style="fill: none; stroke: #b0b0b0; stroke-opacity: 0.5; stroke-width: 0.5; stroke-linecap: square"/>
     </g>
     <g id="text_5">
      <!-- 40% -->
      <g transform="translate(353.333677 276.440032) scale(0.15 -0.15)">
       <defs>
        <path id="DejaVuSans-34" d="M 2419 4116 
L 825 1625 
L 2419 1625 
L 2419 4116 
z
M 2253 4666 
L 3047 4666 
L 3047 1625 
L 3713 1625 
L 3713 1100 
L 3047 1100 
L 3047 0 
L 2419 0 
L 2419 1100 
L 313 1100 
L 313 1709 
L 2253 4666 
z
" transform="scale(0.015625)"/>
       </defs>
       <use xlink:href="#DejaVuSans-34"/>
       <use xlink:href="#DejaVuSans-30" transform="translate(63.623047 0)"/>
       <use xlink:href="#DejaVuSans-25" transform="translate(127.246094 0)"/>
      </g>
     </g>
    </g>
    <g id="ytick_3">
     <g id="line2d_6">
      <path d="M 411.576 318.246563 
C 411.576 298.333249 407.653511 278.613567 400.033016 260.216064 
C 392.412521 241.818561 381.242219 225.101022 367.161379 211.020183 
C 353.08054 196.939344 336.363001 185.769042 317.965498 178.148546 
C 299.567995 170.528051 279.848314 166.605563 259.935 166.605563 
C 240.021686 166.605563 220.302005 170.528051 201.904502 178.148546 
C 183.506999 185.769042 166.78946 196.939344 152.708621 211.020183 
C 138.627781 225.101022 127.457479 241.818561 119.836984 260.216064 
C 112.216489 278.613567 108.294 298.333249 108.294 318.246563 
C 108.294 338.159876 112.216489 357.879558 119.836984 376.277061 
C 127.457479 394.674564 138.627781 411.392103 152.708621 425.472942 
C 166.78946 439.553781 183.506999 450.724083 201.904502 458.344579 
C 220.302005 465.965074 240.021686 469.887563 259.935 469.887563 
C 279.848314 469.887563 299.567995 465.965074 317.965498 458.344579 
C 336.363001 450.724083 353.08054 439.553781 367.161379 425.472942 
C 381.242219 411.392103 392.412521 394.674564 400.033016 376.277061 
C 407.653511 357.879558 411.576 338.159876 411.576 318.246563 
" clip-path="url(#pd94127d692)" style="fill: none; stroke: #b0b0b0; stroke-opacity: 0.5; stroke-width: 0.5; stroke-linecap: square"/>
     </g>
     <g id="text_6">
      <!-- 60% -->
      <g transform="translate(400.033016 257.096533) scale(0.15 -0.15)">
       <defs>
        <path id="DejaVuSans-36" d="M 2113 2584 
Q 1688 2584 1439 2293 
Q 1191 2003 1191 1497 
Q 1191 994 1439 701 
Q 1688 409 2113 409 
Q 2538 409 2786 701 
Q 3034 994 3034 1497 
Q 3034 2003 2786 2293 
Q 2538 2584 2113 2584 
z
M 3366 4563 
L 3366 3988 
Q 3128 4100 2886 4159 
Q 2644 4219 2406 4219 
Q 1781 4219 1451 3797 
Q 1122 3375 1075 2522 
Q 1259 2794 1537 2939 
Q 1816 3084 2150 3084 
Q 2853 3084 3261 2657 
Q 3669 2231 3669 1497 
Q 3669 778 3244 343 
Q 2819 -91 2113 -91 
Q 1303 -91 875 529 
Q 447 1150 447 2328 
Q 447 3434 972 4092 
Q 1497 4750 2381 4750 
Q 2619 4750 2861 4703 
Q 3103 4656 3366 4563 
z
" transform="scale(0.015625)"/>
       </defs>
       <use xlink:href="#DejaVuSans-36"/>
       <use xlink:href="#DejaVuSans-30" transform="translate(63.623047 0)"/>
       <use xlink:href="#DejaVuSans-25" transform="translate(127.246094 0)"/>
      </g>
     </g>
    </g>
    <g id="ytick_4">
     <g id="line2d_7">
      <path d="M 462.123 318.246563 
C 462.123 291.695478 456.893015 265.402569 446.732355 240.872565 
C 436.571695 216.342561 421.677958 194.052509 402.903506 175.278057 
C 384.129054 156.503604 361.839002 141.609868 337.308998 131.449208 
C 312.778994 121.288547 286.486085 116.058563 259.935 116.058563 
C 233.383915 116.058563 207.091006 121.288547 182.561002 131.449208 
C 158.030998 141.609868 135.740946 156.503604 116.966494 175.278057 
C 98.192042 194.052509 83.298305 216.342561 73.137645 240.872565 
C 62.976985 265.402569 57.747 291.695478 57.747 318.246563 
C 57.747 344.797647 62.976985 371.090556 73.137645 395.62056 
C 83.298305 420.150564 98.192042 442.440616 116.966494 461.215068 
C 135.740946 479.989521 158.030998 494.883257 182.561002 505.043917 
C 207.091006 515.204578 233.383915 520.434563 259.935 520.434563 
C 286.486085 520.434563 312.778994 515.204578 337.308998 505.043917 
C 361.839002 494.883257 384.129054 479.989521 402.903506 461.215068 
C 421.677958 442.440616 436.571695 420.150564 446.732355 395.62056 
C 456.893015 371.090556 462.123 344.797647 462.123 318.246563 
" clip-path="url(#pd94127d692)" style="fill: none; stroke: #b0b0b0; stroke-opacity: 0.5; stroke-width: 0.5; stroke-linecap: square"/>
     </g>
     <g id="text_7">
      <!-- 80% -->
      <g transform="translate(446.732355 237.753033) scale(0.15 -0.15)">
       <defs>
        <path id="DejaVuSans-38" d="M 2034 2216 
Q 1584 2216 1326 1975 
Q 1069 1734 1069 1313 
Q 1069 891 1326 650 
Q 1584 409 2034 409 
Q 2484 409 2743 651 
Q 3003 894 3003 1313 
Q 3003 1734 2745 1975 
Q 2488 2216 2034 2216 
z
M 1403 2484 
Q 997 2584 770 2862 
Q 544 3141 544 3541 
Q 544 4100 942 4425 
Q 1341 4750 2034 4750 
Q 2731 4750 3128 4425 
Q 3525 4100 3525 3541 
Q 3525 3141 3298 2862 
Q 3072 2584 2669 2484 
Q 3125 2378 3379 2068 
Q 3634 1759 3634 1313 
Q 3634 634 3220 271 
Q 2806 -91 2034 -91 
Q 1263 -91 848 271 
Q 434 634 434 1313 
Q 434 1759 690 2068 
Q 947 2378 1403 2484 
z
M 1172 3481 
Q 1172 3119 1398 2916 
Q 1625 2713 2034 2713 
Q 2441 2713 2670 2916 
Q 2900 3119 2900 3481 
Q 2900 3844 2670 4047 
Q 2441 4250 2034 4250 
Q 1625 4250 1398 4047 
Q 1172 3844 1172 3481 
z
" transform="scale(0.015625)"/>
       </defs>
       <use xlink:href="#DejaVuSans-38"/>
       <use xlink:href="#DejaVuSans-30" transform="translate(63.623047 0)"/>
       <use xlink:href="#DejaVuSans-25" transform="translate(127.246094 0)"/>
      </g>
     </g>
    </g>
    <g id="ytick_5">
     <g id="line2d_8">
      <path d="M 512.67 318.246563 
C 512.67 285.057706 506.132519 252.19157 493.431694 221.529065 
C 480.730868 190.86656 462.113698 163.003995 438.645632 139.53593 
C 415.177567 116.067865 387.315002 97.450694 356.652497 84.749869 
C 325.989992 72.049043 293.123856 65.511563 259.935 65.511563 
C 226.746144 65.511563 193.880008 72.049043 163.217503 84.749869 
C 132.554998 97.450694 104.692433 116.067865 81.224368 139.53593 
C 57.756302 163.003995 39.139132 190.86656 26.438306 221.529065 
C 13.737481 252.19157 7.2 285.057706 7.2 318.246562 
C 7.2 351.435419 13.737481 384.301555 26.438306 414.96406 
C 39.139132 445.626565 57.756302 473.48913 81.224368 496.957195 
C 104.692433 520.42526 132.554998 539.042431 163.217503 551.743256 
C 193.880008 564.444082 226.746144 570.981562 259.935 570.981562 
C 293.123856 570.981562 325.989992 564.444082 356.652497 551.743256 
C 387.315002 539.042431 415.177567 520.42526 438.645632 496.957195 
C 462.113698 473.48913 480.730868 445.626565 493.431694 414.96406 
C 506.132519 384.301555 512.67 351.435419 512.67 318.246563 
" clip-path="url(#pd94127d692)" style="fill: none; stroke: #b0b0b0; stroke-opacity: 0.5; stroke-width: 0.5; stroke-linecap: square"/>
     </g>
     <g id="text_8">
      <!-- 100% -->
      <g transform="translate(493.431694 218.409534) scale(0.15 -0.15)">
       <defs>
        <path id="DejaVuSans-31" d="M 794 531 
L 1825 531 
L 1825 4091 
L 703 3866 
L 703 4441 
L 1819 4666 
L 2450 4666 
L 2450 531 
L 3481 531 
L 3481 0 
L 794 0 
L 794 531 
z
" transform="scale(0.015625)"/>
       </defs>
       <use xlink:href="#DejaVuSans-31"/>
       <use xlink:href="#DejaVuSans-30" transform="translate(63.623047 0)"/>
       <use xlink:href="#DejaVuSans-30" transform="translate(127.246094 0)"/>
       <use xlink:href="#DejaVuSans-25" transform="translate(190.869141 0)"/>
      </g>
     </g>
    </g>
   </g>
   <g id="line2d_9">
    <path d="M 512.67 318.246563 
L 248.605752 298.62373 
L 226.392803 376.343351 
L 512.67 318.246563 
" clip-path="url(#pd94127d692)" style="fill: none; stroke: #06a77d; stroke-width: 2.5; stroke-linecap: square"/>
    <defs>
     <path id="m93acb16c90" d="M 0 3 
C 0.795609 3 1.55874 2.683901 2.12132 2.12132 
C 2.683901 1.55874 3 0.795609 3 0 
C 3 -0.795609 2.683901 -1.55874 2.12132 -2.12132 
C 1.55874 -2.683901 0.795609 -3 0 -3 
C -0.795609 -3 -1.55874 -2.683901 -2.12132 -2.12132 
C -2.683901 -1.55874 -3 -0.795609 -3 0 
C -3 0.795609 -2.683901 1.55874 -2.12132 2.12132 
C -1.55874 2.683901 -0.795609 3 0 3 
z
" style="stroke: #06a77d"/>
    </defs>
    <g clip-path="url(#pd94127d692)">
     <use xlink:href="#m93acb16c90" x="512.67" y="318.246563" style="fill: #06a77d; stroke: #06a77d"/>
     <use xlink:href="#m93acb16c90" x="248.605752" y="298.62373" style="fill: #06a77d; stroke: #06a77d"/>
     <use xlink:href="#m93acb16c90" x="226.392803" y="376.343351" style="fill: #06a77d; stroke: #06a77d"/>
     <use xlink:href="#m93acb16c90" x="512.67" y="318.246563" style="fill: #06a77d; stroke: #06a77d"/>
    </g>
   </g>
   <g id="line2d_10">
    <path d="M 512.296181 318.246563 
L 228.196785 263.274362 
L 186.212623 445.937465 
L 512.296181 318.246563 
" clip-path="url(#pd94127d692)" style="fill: none; stroke: #2e86ab; stroke-width: 2.5; stroke-linecap: square"/>
    <defs>
     <path id="m267ca6525f" d="M 0 3 
C 0.795609 3 1.55874 2.683901 2.12132 2.12132 
C 2.683901 1.55874 3 0.795609 3 0 
C 3 -0.795609 2.683901 -1.55874 2.12132 -2.12132 
C 1.55874 -2.683901 0.795609 -3 0 -3 
C -0.795609 -3 -1.55874 -2.683901 -2.12132 -2.12132 
C -2.683901 -1.55874 -3 -0.795609 -3 0 
C -3 0.795609 -2.683901 1.55874 -2.12132 2.12132 
C -1.55874 2.683901 -0.795609 3 0 3 
z
" style="stroke: #2e86ab"/>
    </defs>
    <g clip-path="url(#pd94127d692)">
     <use xlink:href="#m267ca6525f" x="512.296181" y="318.246563" style="fill: #2e86ab; stroke: #2e86ab"/>
     <use xlink:href="#m267ca6525f" x="228.196785" y="263.274362" style="fill: #2e86ab; stroke: #2e86ab"/>
     <use xlink:href="#m267ca6525f" x="186.212623" y="445.937465" style="fill: #2e86ab; stroke: #2e86ab"/>
     <use xlink:href="#m267ca6525f" x="512.296181" y="318.246563" style="fill: #2e86ab; stroke: #2e86ab"/>
    </g>
   </g>
   <g id="line2d_11">
    <path d="M 448.924035 318.246563 
L 244.087508 290.797901 
L 133.5675 537.121493 
L 448.924035 318.246563 
" clip-path="url(#pd94127d692)" style="fill: none; stroke: #5e4fa2; stroke-width: 2.5; stroke-linecap: square"/>
    <defs>
     <path id="mc023d4e629" d="M 0 3 
C 0.795609 3 1.55874 2.683901 2.12132 2.12132 
C 2.683901 1.55874 3 0.795609 3 0 
C 3 -0.795609 2.683901 -1.55874 2.12132 -2.12132 
C 1.55874 -2.683901 0.795609 -3 0 -3 
C -0.795609 -3 -1.55874 -2.683901 -2.12132 -2.12132 
C -2.683901 -1.55874 -3 -0.795609 -3 0 
C -3 0.795609 -2.683901 1.55874 -2.12132 2.12132 
C -1.55874 2.683901 -0.795609 3 0 3 
z
" style="stroke: #5e4fa2"/>
    </defs>
    <g clip-path="url(#pd94127d692)">
     <use xlink:href="#mc023d4e629" x="448.924035" y="318.246563" style="fill: #5e4fa2; stroke: #5e4fa2"/>
     <use xlink:href="#mc023d4e629" x="244.087508" y="290.797901" style="fill: #5e4fa2; stroke: #5e4fa2"/>
     <use xlink:href="#mc023d4e629" x="133.5675" y="537.121493" style="fill: #5e4fa2; stroke: #5e4fa2"/>
     <use xlink:href="#mc023d4e629" x="448.924035" y="318.246563" style="fill: #5e4fa2; stroke: #5e4fa2"/>
    </g>
   </g>
   <g id="line2d_12">
    <path d="M 427.682785 318.246563 
L 161.241223 147.303926 
L 169.43956 474.989262 
L 427.682785 318.246563 
" clip-path="url(#pd94127d692)" style="fill: none; stroke: #a23b72; stroke-width: 2.5; stroke-linecap: square"/>
    <defs>
     <path id="m50cb48a470" d="M 0 3 
C 0.795609 3 1.55874 2.683901 2.12132 2.12132 
C 2.683901 1.55874 3 0.795609 3 0 
C 3 -0.795609 2.683901 -1.55874 2.12132 -2.12132 
C 1.55874 -2.683901 0.795609 -3 0 -3 
C -0.795609 -3 -1.55874 -2.683901 -2.12132 -2.12132 
C -2.683901 -1.55874 -3 -0.795609 -3 0 
C -3 0.795609 -2.683901 1.55874 -2.12132 2.12132 
C -1.55874 2.683901 -0.795609 3 0 3 
z
" style="stroke: #a23b72"/>
    </defs>
    <g clip-path="url(#pd94127d692)">
     <use xlink:href="#m50cb48a470" x="427.682785" y="318.246563" style="fill: #a23b72; stroke: #a23b72"/>
     <use xlink:href="#m50cb48a470" x="161.241223" y="147.303926" style="fill: #a23b72; stroke: #a23b72"/>
     <use xlink:href="#m50cb48a470" x="169.43956" y="474.989262" style="fill: #a23b72; stroke: #a23b72"/>
     <use xlink:href="#m50cb48a470" x="427.682785" y="318.246563" style="fill: #a23b72; stroke: #a23b72"/>
    </g>
   </g>
   <g id="line2d_13">
    <path d="M 407.639778 318.246563 
L 133.5675 99.371632 
L 152.066354 505.080537 
L 407.639778 318.246563 
" clip-path="url(#pd94127d692)" style="fill: none; stroke: #f18f01; stroke-width: 2.5; stroke-linecap: square"/>
    <defs>
     <path id="m4c3ebb9b9e" d="M 0 3 
C 0.795609 3 1.55874 2.683901 2.12132 2.12132 
C 2.683901 1.55874 3 0.795609 3 0 
C 3 -0.795609 2.683901 -1.55874 2.12132 -2.12132 
C 1.55874 -2.683901 0.795609 -3 0 -3 
C -0.795609 -3 -1.55874 -2.683901 -2.12132 -2.12132 
C -2.683901 -1.55874 -3 -0.795609 -3 0 
C -3 0.795609 -2.683901 1.55874 -2.12132 2.12132 
C -1.55874 2.683901 -0.795609 3 0 3 
z
" style="stroke: #f18f01"/>
    </defs>
    <g clip-path="url(#pd94127d692)">
     <use xlink:href="#m4c3ebb9b9e" x="407.639778" y="318.246563" style="fill: #f18f01; stroke: #f18f01"/>
     <use xlink:href="#m4c3ebb9b9e" x="133.5675" y="99.371632" style="fill: #f18f01; stroke: #f18f01"/>
     <use xlink:href="#m4c3ebb9b9e" x="152.066354" y="505.080537" style="fill: #f18f01; stroke: #f18f01"/>
     <use xlink:href="#m4c3ebb9b9e" x="407.639778" y="318.246563" style="fill: #f18f01; stroke: #f18f01"/>
    </g>
   </g>
   <g id="line2d_14">
    <path d="M 392.26262 318.246563 
L 181.067476 181.644003 
L 172.80311 469.163424 
L 392.26262 318.246563 
" clip-path="url(#pd94127d692)" style="fill: none; stroke: #c73e1d; stroke-width: 2.5; stroke-linecap: square"/>
    <defs>
     <path id="mf88dacea6b" d="M 0 3 
C 0.795609 3 1.55874 2.683901 2.12132 2.12132 
C 2.683901 1.55874 3 0.795609 3 0 
C 3 -0.795609 2.683901 -1.55874 2.12132 -2.12132 
C 1.55874 -2.683901 0.795609 -3 0 -3 
C -0.795609 -3 -1.55874 -2.683901 -2.12132 -2.12132 
C -2.683901 -1.55874 -3 -0.795609 -3 0 
C -3 0.795609 -2.683901 1.55874 -2.12132 2.12132 
C -1.55874 2.683901 -0.795609 3 0 3 
z
" style="stroke: #c73e1d"/>
    </defs>
    <g clip-path="url(#pd94127d692)">
     <use xlink:href="#mf88dacea6b" x="392.26262" y="318.246563" style="fill: #c73e1d; stroke: #c73e1d"/>
     <use xlink:href="#mf88dacea6b" x="181.067476" y="181.644003" style="fill: #c73e1d; stroke: #c73e1d"/>
     <use xlink:href="#mf88dacea6b" x="172.80311" y="469.163424" style="fill: #c73e1d; stroke: #c73e1d"/>
     <use xlink:href="#mf88dacea6b" x="392.26262" y="318.246563" style="fill: #c73e1d; stroke: #c73e1d"/>
    </g>
   </g>
   <g id="patch_9">
    <path d="M 512.67 318.246563 
C 512.67 285.057706 506.132519 252.19157 493.431694 221.529065 
C 480.730868 190.86656 462.113698 163.003995 438.645632 139.53593 
C 415.177567 116.067865 387.315002 97.450694 356.652497 84.749869 
C 325.989992 72.049043 293.123856 65.511563 259.935 65.511563 
C 226.746144 65.511563 193.880008 72.049043 163.217503 84.749869 
C 132.554998 97.450694 104.692433 116.067865 81.224368 139.53593 
C 57.756302 163.003995 39.139132 190.86656 26.438306 221.529065 
C 13.737481 252.19157 7.2 285.057706 7.2 318.246562 
C 7.2 351.435419 13.737481 384.301555 26.438306 414.96406 
C 39.139132 445.626565 57.756302 473.48913 81.224368 496.957195 
C 104.692433 520.42526 132.554998 539.042431 163.217503 551.743256 
C 193.880008 564.444082 226.746144 570.981562 259.935 570.981562 
C 293.123856 570.981562 325.989992 564.444082 356.652497 551.743256 
C 387.315002 539.042431 415.177567 520.42526 438.645632 496.957195 
C 462.113698 473.48913 480.730868 445.626565 493.431694 414.96406 
C 506.132519 384.301555 512.67 351.435419 512.67 318.246563 
" style="fill: none; stroke: #000000; stroke-width: 0.8; stroke-linejoin: miter; stroke-linecap: square"/>
   </g>
   <g id="text_9">
    <!-- Compression Algorithm Performance Comparison -->
    <g transform="translate(51.308437 18.597656) scale(0.15 -0.15)">
     <defs>
      <path id="DejaVuSans-Bold-20" transform="scale(0.015625)"/>
      <path id="DejaVuSans-Bold-41" d="M 3419 850 
L 1538 850 
L 1241 0 
L 31 0 
L 1759 4666 
L 3194 4666 
L 4922 0 
L 3713 0 
L 3419 850 
z
M 1838 1716 
L 3116 1716 
L 2478 3572 
L 1838 1716 
z
" transform="scale(0.015625)"/>
      <path id="DejaVuSans-Bold-6c" d="M 538 4863 
L 1656 4863 
L 1656 0 
L 538 0 
L 538 4863 
z
" transform="scale(0.015625)"/>
      <path id="DejaVuSans-Bold-50" d="M 588 4666 
L 2584 4666 
Q 3475 4666 3951 4270 
Q 4428 3875 4428 3144 
Q 4428 2409 3951 2014 
Q 3475 1619 2584 1619 
L 1791 1619 
L 1791 0 
L 588 0 
L 588 4666 
z
M 1791 3794 
L 1791 2491 
L 2456 2491 
Q 2806 2491 2997 2661 
Q 3188 2831 3188 3144 
Q 3188 3456 2997 3625 
Q 2806 3794 2456 3794 
L 1791 3794 
z
" transform="scale(0.015625)"/>
      <path id="DejaVuSans-Bold-66" d="M 2841 4863 
L 2841 4128 
L 2222 4128 
Q 1984 4128 1890 4042 
Q 1797 3956 1797 3744 
L 1797 3500 
L 2753 3500 
L 2753 2700 
L 1797 2700 
L 1797 0 
L 678 0 
L 678 2700 
L 122 2700 
L 122 3500 
L 678 3500 
L 678 3744 
Q 678 4316 997 4589 
Q 1316 4863 1984 4863 
L 2841 4863 
z
" transform="scale(0.015625)"/>
      <path id="DejaVuSans-Bold-63" d="M 3366 3391 
L 3366 2478 
Q 3138 2634 2908 2709 
Q 2678 2784 2431 2784 
Q 1963 2784 1702 2511 
Q 1441 2238 1441 1747 
Q 1441 1256 1702 982 
Q 1963 709 2431 709 
Q 2694 709 2930 787 
Q 3166 866 3366 1019 
L 3366 103 
Q 3103 6 2833 -42 
Q 2563 -91 2291 -91 
Q 1344 -91 809 395 
Q 275 881 275 1747 
Q 275 2613 809 3098 
Q 1344 3584 2291 3584 
Q 2566 3584 2833 3536 
Q 3100 3488 3366 3391 
z
" transform="scale(0.015625)"/>
     </defs>
     <use xlink:href="#DejaVuSans-Bold-43"/>
     <use xlink:href="#DejaVuSans-Bold-6f" transform="translate(73.388672 0)"/>
     <use xlink:href="#DejaVuSans-Bold-6d" transform="translate(142.089844 0)"/>
     <use xlink:href="#DejaVuSans-Bold-70" transform="translate(246.289062 0)"/>
     <use xlink:href="#DejaVuSans-Bold-72" transform="translate(317.871094 0)"/>
     <use xlink:href="#DejaVuSans-Bold-65" transform="translate(367.1875 0)"/>
     <use xlink:href="#DejaVuSans-Bold-73" transform="translate(435.009766 0)"/>
     <use xlink:href="#DejaVuSans-Bold-73" transform="translate(494.53125 0)"/>
     <use xlink:href="#DejaVuSans-Bold-69" transform="translate(554.052734 0)"/>
     <use xlink:href="#DejaVuSans-Bold-6f" transform="translate(588.330078 0)"/>
     <use xlink:href="#DejaVuSans-Bold-6e" transform="translate(657.03125 0)"/>
     <use xlink:href="#DejaVuSans-Bold-20" transform="translate(728.222656 0)"/>
     <use xlink:href="#DejaVuSans-Bold-41" transform="translate(763.037109 0)"/>
     <use xlink:href="#DejaVuSans-Bold-6c" transform="translate(840.429688 0)"/>
     <use xlink:href="#DejaVuSans-Bold-67" transform="translate(874.707031 0)"/>
     <use xlink:href="#DejaVuSans-Bold-6f" transform="translate(946.289062 0)"/>
     <use xlink:href="#DejaVuSans-Bold-72" transform="translate(1014.990234 0)"/>
     <use xlink:href="#DejaVuSans-Bold-69" transform="translate(1064.306641 0)"/>
     <use xlink:href="#DejaVuSans-Bold-74" transform="translate(1098.583984 0)"/>
     <use xlink:href="#DejaVuSans-Bold-68" transform="translate(1146.386719 0)"/>
     <use xlink:href="#DejaVuSans-Bold-6d" transform="translate(1217.578125 0)"/>
     <use xlink:href="#DejaVuSans-Bold-20" transform="translate(1321.777344 0)"/>
     <use xlink:href="#DejaVuSans-Bold-50" transform="translate(1356.591797 0)"/>
     <use xlink:href="#DejaVuSans-Bold-65" transform="translate(1429.882812 0)"/>
     <use xlink:href="#DejaVuSans-Bold-72" transform="translate(1497.705078 0)"/>
     <use xlink:href="#DejaVuSans-Bold-66" transform="translate(1547.021484 0)"/>
     <use xlink:href="#DejaVuSans-Bold-6f" transform="translate(1590.527344 0)"/>
     <use xlink:href="#DejaVuSans-Bold-72" transform="translate(1659.228516 0)"/>
     <use xlink:href="#DejaVuSans-Bold-6d" transform="translate(1708.544922 0)"/>
     <use xlink:href="#DejaVuSans-Bold-61" transform="translate(1812.744141 0)"/>
     <use xlink:href="#DejaVuSans-Bold-6e" transform="translate(1880.224609 0)"/>
     <use xlink:href="#DejaVuSans-Bold-63" transform="translate(1951.416016 0)"/>
     <use xlink:href="#DejaVuSans-Bold-65" transform="translate(2010.693359 0)"/>
     <use xlink:href="#DejaVuSans-Bold-20" transform="translate(2078.515625 0)"/>
     <use xlink:href="#DejaVuSans-Bold-43" transform="translate(2113.330078 0)"/>
     <use xlink:href="#DejaVuSans-Bold-6f" transform="translate(2186.71875 0)"/>
     <use xlink:href="#DejaVuSans-Bold-6d" transform="translate(2255.419922 0)"/>
     <use xlink:href="#DejaVuSans-Bold-70" transform="translate(2359.619141 0)"/>
     <use xlink:href="#DejaVuSans-Bold-61" transform="translate(2431.201172 0)"/>
     <use xlink:href="#DejaVuSans-Bold-72" transform="translate(2498.681641 0)"/>
     <use xlink:href="#DejaVuSans-Bold-69" transform="translate(2547.998047 0)"/>
     <use xlink:href="#DejaVuSans-Bold-73" transform="translate(2582.275391 0)"/>
     <use xlink:href="#DejaVuSans-Bold-6f" transform="translate(2641.796875 0)"/>
     <use xlink:href="#DejaVuSans-Bold-6e" transform="translate(2710.498047 0)"/>
    </g>
    <!-- (Normalized to Best Performer) -->
    <g transform="translate(126.692813 35.511563) scale(0.15 -0.15)">
     <defs>
      <path id="DejaVuSans-Bold-28" d="M 2413 -844 
L 1484 -844 
Q 1006 -72 778 623 
Q 550 1319 550 2003 
Q 550 2688 779 3389 
Q 1009 4091 1484 4856 
L 2413 4856 
Q 2013 4116 1813 3408 
Q 1613 2700 1613 2009 
Q 1613 1319 1811 609 
Q 2009 -100 2413 -844 
z
" transform="scale(0.015625)"/>
      <path id="DejaVuSans-Bold-4e" d="M 588 4666 
L 1931 4666 
L 3628 1466 
L 3628 4666 
L 4769 4666 
L 4769 0 
L 3425 0 
L 1728 3200 
L 1728 0 
L 588 0 
L 588 4666 
z
" transform="scale(0.015625)"/>
      <path id="DejaVuSans-Bold-7a" d="M 366 3500 
L 3419 3500 
L 3419 2719 
L 1575 800 
L 3419 800 
L 3419 0 
L 288 0 
L 288 781 
L 2131 2700 
L 366 2700 
L 366 3500 
z
" transform="scale(0.015625)"/>
      <path id="DejaVuSans-Bold-42" d="M 2456 2859 
Q 2741 2859 2887 2984 
Q 3034 3109 3034 3353 
Q 3034 3594 2887 3720 
Q 2741 3847 2456 3847 
L 1791 3847 
L 1791 2859 
L 2456 2859 
z
M 2497 819 
Q 2859 819 3042 972 
Q 3225 1125 3225 1434 
Q 3225 1738 3044 1889 
Q 2863 2041 2497 2041 
L 1791 2041 
L 1791 819 
L 2497 819 
z
M 3616 2497 
Q 4003 2384 4215 2081 
Q 4428 1778 4428 1338 
Q 4428 663 3972 331 
Q 3516 0 2584 0 
L 588 0 
L 588 4666 
L 2394 4666 
Q 3366 4666 3802 4372 
Q 4238 4078 4238 3431 
Q 4238 3091 4078 2852 
Q 3919 2613 3616 2497 
z
" transform="scale(0.015625)"/>
      <path id="DejaVuSans-Bold-29" d="M 513 -844 
Q 913 -100 1113 609 
Q 1313 1319 1313 2009 
Q 1313 2700 1113 3408 
Q 913 4116 513 4856 
L 1441 4856 
Q 1916 4091 2145 3389 
Q 2375 2688 2375 2003 
Q 2375 1319 2147 623 
Q 1919 -72 1441 -844 
L 513 -844 
z
" transform="scale(0.015625)"/>
     </defs>
     <use xlink:href="#DejaVuSans-Bold-28"/>
     <use xlink:href="#DejaVuSans-Bold-4e" transform="translate(45.703125 0)"/>
     <use xlink:href="#DejaVuSans-Bold-6f" transform="translate(129.394531 0)"/>
     <use xlink:href="#DejaVuSans-Bold-72" transform="translate(198.095703 0)"/>
     <use xlink:href="#DejaVuSans-Bold-6d" transform="translate(247.412109 0)"/>
     <use xlink:href="#DejaVuSans-Bold-61" transform="translate(351.611328 0)"/>
     <use xlink:href="#DejaVuSans-Bold-6c" transform="translate(419.091797 0)"/>
     <use xlink:href="#DejaVuSans-Bold-69" transform="translate(453.369141 0)"/>
     <use xlink:href="#DejaVuSans-Bold-7a" transform="translate(487.646484 0)"/>
     <use xlink:href="#DejaVuSans-Bold-65" transform="translate(545.849609 0)"/>
     <use xlink:href="#DejaVuSans-Bold-64" transform="translate(613.671875 0)"/>
     <use xlink:href="#DejaVuSans-Bold-20" transform="translate(685.253906 0)"/>
     <use xlink:href="#DejaVuSans-Bold-74" transform="translate(720.068359 0)"/>
     <use xlink:href="#DejaVuSans-Bold-6f" transform="translate(767.871094 0)"/>
     <use xlink:href="#DejaVuSans-Bold-20" transform="translate(836.572266 0)"/>
     <use xlink:href="#DejaVuSans-Bold-42" transform="translate(871.386719 0)"/>
     <use xlink:href="#DejaVuSans-Bold-65" transform="translate(947.607422 0)"/>
     <use xlink:href="#DejaVuSans-Bold-73" transform="translate(1015.429688 0)"/>
     <use xlink:href="#DejaVuSans-Bold-74" transform="translate(1074.951172 0)"/>
     <use xlink:href="#DejaVuSans-Bold-20" transform="translate(1122.753906 0)"/>
     <use xlink:href="#DejaVuSans-Bold-50" transform="translate(1157.568359 0)"/>
     <use xlink:href="#DejaVuSans-Bold-65" transform="translate(1230.859375 0)"/>
     <use xlink:href="#DejaVuSans-Bold-72" transform="translate(1298.681641 0)"/>
     <use xlink:href="#DejaVuSans-Bold-66" transform="translate(1347.998047 0)"/>
     <use xlink:href="#DejaVuSans-Bold-6f" transform="translate(1391.503906 0)"/>
     <use xlink:href="#DejaVuSans-Bold-72" transform="translate(1460.205078 0)"/>
     <use xlink:href="#DejaVuSans-Bold-6d" transform="translate(1509.521484 0)"/>
     <use xlink:href="#DejaVuSans-Bold-65" transform="translate(1613.720703 0)"/>
     <use xlink:href="#DejaVuSans-Bold-72" transform="translate(1681.542969 0)"/>
     <use xlink:href="#DejaVuSans-Bold-29" transform="translate(1730.859375 0)"/>
    </g>
   </g>
   <g id="legend_1">
    <g id="patch_10">
     <path d="M 360.940625 189.898413 
L 502.87 189.898413 
Q 505.67 189.898413 505.67 187.098413 
L 505.67 65.202162 
Q 505.67 62.402163 502.87 62.402163 
L 360.940625 62.402163 
Q 358.140625 62.402163 358.140625 65.202162 
L 358.140625 187.098413 
Q 358.140625 189.898413 360.940625 189.898413 
z
" style="fill: #ffffff; stroke: #cccccc; stroke-linejoin: miter"/>
    </g>
    <g id="line2d_15">
     <path d="M 363.740625 73.739975 
L 377.740625 73.739975 
L 391.740625 73.739975 
" style="fill: none; stroke: #06a77d; stroke-width: 2.5; stroke-linecap: square"/>
     <g>
      <use xlink:href="#m93acb16c90" x="377.740625" y="73.739975" style="fill: #06a77d; stroke: #06a77d"/>
     </g>
    </g>
    <g id="text_10">
     <!-- Blosc Zlib -->
     <g transform="translate(402.940625 78.639975) scale(0.14 -0.14)">
      <defs>
       <path id="DejaVuSans-42" d="M 1259 2228 
L 1259 519 
L 2272 519 
Q 2781 519 3026 730 
Q 3272 941 3272 1375 
Q 3272 1813 3026 2020 
Q 2781 2228 2272 2228 
L 1259 2228 
z
M 1259 4147 
L 1259 2741 
L 2194 2741 
Q 2656 2741 2882 2914 
Q 3109 3088 3109 3444 
Q 3109 3797 2882 3972 
Q 2656 4147 2194 4147 
L 1259 4147 
z
M 628 4666 
L 2241 4666 
Q 2963 4666 3353 4366 
Q 3744 4066 3744 3513 
Q 3744 3084 3544 2831 
Q 3344 2578 2956 2516 
Q 3422 2416 3680 2098 
Q 3938 1781 3938 1306 
Q 3938 681 3513 340 
Q 3088 0 2303 0 
L 628 0 
L 628 4666 
z
" transform="scale(0.015625)"/>
       <path id="DejaVuSans-6c" d="M 603 4863 
L 1178 4863 
L 1178 0 
L 603 0 
L 603 4863 
z
" transform="scale(0.015625)"/>
       <path id="DejaVuSans-6f" d="M 1959 3097 
Q 1497 3097 1228 2736 
Q 959 2375 959 1747 
Q 959 1119 1226 758 
Q 1494 397 1959 397 
Q 2419 397 2687 759 
Q 2956 1122 2956 1747 
Q 2956 2369 2687 2733 
Q 2419 3097 1959 3097 
z
M 1959 3584 
Q 2709 3584 3137 3096 
Q 3566 2609 3566 1747 
Q 3566 888 3137 398 
Q 2709 -91 1959 -91 
Q 1206 -91 779 398 
Q 353 888 353 1747 
Q 353 2609 779 3096 
Q 1206 3584 1959 3584 
z
" transform="scale(0.015625)"/>
       <path id="DejaVuSans-73" d="M 2834 3397 
L 2834 2853 
Q 2591 2978 2328 3040 
Q 2066 3103 1784 3103 
Q 1356 3103 1142 2972 
Q 928 2841 928 2578 
Q 928 2378 1081 2264 
Q 1234 2150 1697 2047 
L 1894 2003 
Q 2506 1872 2764 1633 
Q 3022 1394 3022 966 
Q 3022 478 2636 193 
Q 2250 -91 1575 -91 
Q 1294 -91 989 -36 
Q 684 19 347 128 
L 347 722 
Q 666 556 975 473 
Q 1284 391 1588 391 
Q 1994 391 2212 530 
Q 2431 669 2431 922 
Q 2431 1156 2273 1281 
Q 2116 1406 1581 1522 
L 1381 1569 
Q 847 1681 609 1914 
Q 372 2147 372 2553 
Q 372 3047 722 3315 
Q 1072 3584 1716 3584 
Q 2034 3584 2315 3537 
Q 2597 3491 2834 3397 
z
" transform="scale(0.015625)"/>
       <path id="DejaVuSans-63" d="M 3122 3366 
L 3122 2828 
Q 2878 2963 2633 3030 
Q 2388 3097 2138 3097 
Q 1578 3097 1268 2742 
Q 959 2388 959 1747 
Q 959 1106 1268 751 
Q 1578 397 2138 397 
Q 2388 397 2633 464 
Q 2878 531 3122 666 
L 3122 134 
Q 2881 22 2623 -34 
Q 2366 -91 2075 -91 
Q 1284 -91 818 406 
Q 353 903 353 1747 
Q 353 2603 823 3093 
Q 1294 3584 2113 3584 
Q 2378 3584 2631 3529 
Q 2884 3475 3122 3366 
z
" transform="scale(0.015625)"/>
       <path id="DejaVuSans-20" transform="scale(0.015625)"/>
       <path id="DejaVuSans-5a" d="M 359 4666 
L 4025 4666 
L 4025 4184 
L 1075 531 
L 4097 531 
L 4097 0 
L 288 0 
L 288 481 
L 3238 4134 
L 359 4134 
L 359 4666 
z
" transform="scale(0.015625)"/>
       <path id="DejaVuSans-69" d="M 603 3500 
L 1178 3500 
L 1178 0 
L 603 0 
L 603 3500 
z
M 603 4863 
L 1178 4863 
L 1178 4134 
L 603 4134 
L 603 4863 
z
" transform="scale(0.015625)"/>
       <path id="DejaVuSans-62" d="M 3116 1747 
Q 3116 2381 2855 2742 
Q 2594 3103 2138 3103 
Q 1681 3103 1420 2742 
Q 1159 2381 1159 1747 
Q 1159 1113 1420 752 
Q 1681 391 2138 391 
Q 2594 391 2855 752 
Q 3116 1113 3116 1747 
z
M 1159 2969 
Q 1341 3281 1617 3432 
Q 1894 3584 2278 3584 
Q 2916 3584 3314 3078 
Q 3713 2572 3713 1747 
Q 3713 922 3314 415 
Q 2916 -91 2278 -91 
Q 1894 -91 1617 61 
Q 1341 213 1159 525 
L 1159 0 
L 581 0 
L 581 4863 
L 1159 4863 
L 1159 2969 
z
" transform="scale(0.015625)"/>
      </defs>
      <use xlink:href="#DejaVuSans-42"/>
      <use xlink:href="#DejaVuSans-6c" transform="translate(68.603516 0)"/>
      <use xlink:href="#DejaVuSans-6f" transform="translate(96.386719 0)"/>
      <use xlink:href="#DejaVuSans-73" transform="translate(157.568359 0)"/>
      <use xlink:href="#DejaVuSans-63" transform="translate(209.667969 0)"/>
      <use xlink:href="#DejaVuSans-20" transform="translate(264.648438 0)"/>
      <use xlink:href="#DejaVuSans-5a" transform="translate(296.435547 0)"/>
      <use xlink:href="#DejaVuSans-6c" transform="translate(364.941406 0)"/>
      <use xlink:href="#DejaVuSans-69" transform="translate(392.724609 0)"/>
      <use xlink:href="#DejaVuSans-62" transform="translate(420.507812 0)"/>
     </g>
    </g>
    <g id="line2d_16">
     <path d="M 363.740625 94.28935 
L 377.740625 94.28935 
L 391.740625 94.28935 
" style="fill: none; stroke: #2e86ab; stroke-width: 2.5; stroke-linecap: square"/>
     <g>
      <use xlink:href="#m267ca6525f" x="377.740625" y="94.28935" style="fill: #2e86ab; stroke: #2e86ab"/>
     </g>
    </g>
    <g id="text_11">
     <!-- Blosc Zstd -->
     <g transform="translate(402.940625 99.18935) scale(0.14 -0.14)">
      <defs>
       <path id="DejaVuSans-74" d="M 1172 4494 
L 1172 3500 
L 2356 3500 
L 2356 3053 
L 1172 3053 
L 1172 1153 
Q 1172 725 1289 603 
Q 1406 481 1766 481 
L 2356 481 
L 2356 0 
L 1766 0 
Q 1100 0 847 248 
Q 594 497 594 1153 
L 594 3053 
L 172 3053 
L 172 3500 
L 594 3500 
L 594 4494 
L 1172 4494 
z
" transform="scale(0.015625)"/>
       <path id="DejaVuSans-64" d="M 2906 2969 
L 2906 4863 
L 3481 4863 
L 3481 0 
L 2906 0 
L 2906 525 
Q 2725 213 2448 61 
Q 2172 -91 1784 -91 
Q 1150 -91 751 415 
Q 353 922 353 1747 
Q 353 2572 751 3078 
Q 1150 3584 1784 3584 
Q 2172 3584 2448 3432 
Q 2725 3281 2906 2969 
z
M 947 1747 
Q 947 1113 1208 752 
Q 1469 391 1925 391 
Q 2381 391 2643 752 
Q 2906 1113 2906 1747 
Q 2906 2381 2643 2742 
Q 2381 3103 1925 3103 
Q 1469 3103 1208 2742 
Q 947 2381 947 1747 
z
" transform="scale(0.015625)"/>
      </defs>
      <use xlink:href="#DejaVuSans-42"/>
      <use xlink:href="#DejaVuSans-6c" transform="translate(68.603516 0)"/>
      <use xlink:href="#DejaVuSans-6f" transform="translate(96.386719 0)"/>
      <use xlink:href="#DejaVuSans-73" transform="translate(157.568359 0)"/>
      <use xlink:href="#DejaVuSans-63" transform="translate(209.667969 0)"/>
      <use xlink:href="#DejaVuSans-20" transform="translate(264.648438 0)"/>
      <use xlink:href="#DejaVuSans-5a" transform="translate(296.435547 0)"/>
      <use xlink:href="#DejaVuSans-73" transform="translate(364.941406 0)"/>
      <use xlink:href="#DejaVuSans-74" transform="translate(417.041016 0)"/>
      <use xlink:href="#DejaVuSans-64" transform="translate(456.25 0)"/>
     </g>
    </g>
    <g id="line2d_17">
     <path d="M 363.740625 114.838725 
L 377.740625 114.838725 
L 391.740625 114.838725 
" style="fill: none; stroke: #5e4fa2; stroke-width: 2.5; stroke-linecap: square"/>
     <g>
      <use xlink:href="#mc023d4e629" x="377.740625" y="114.838725" style="fill: #5e4fa2; stroke: #5e4fa2"/>
     </g>
    </g>
    <g id="text_12">
     <!-- Blosc LZ4HC -->
     <g transform="translate(402.940625 119.738725) scale(0.14 -0.14)">
      <defs>
       <path id="DejaVuSans-4c" d="M 628 4666 
L 1259 4666 
L 1259 531 
L 3531 531 
L 3531 0 
L 628 0 
L 628 4666 
z
" transform="scale(0.015625)"/>
       <path id="DejaVuSans-48" d="M 628 4666 
L 1259 4666 
L 1259 2753 
L 3553 2753 
L 3553 4666 
L 4184 4666 
L 4184 0 
L 3553 0 
L 3553 2222 
L 1259 2222 
L 1259 0 
L 628 0 
L 628 4666 
z
" transform="scale(0.015625)"/>
       <path id="DejaVuSans-43" d="M 4122 4306 
L 4122 3641 
Q 3803 3938 3442 4084 
Q 3081 4231 2675 4231 
Q 1875 4231 1450 3742 
Q 1025 3253 1025 2328 
Q 1025 1406 1450 917 
Q 1875 428 2675 428 
Q 3081 428 3442 575 
Q 3803 722 4122 1019 
L 4122 359 
Q 3791 134 3420 21 
Q 3050 -91 2638 -91 
Q 1578 -91 968 557 
Q 359 1206 359 2328 
Q 359 3453 968 4101 
Q 1578 4750 2638 4750 
Q 3056 4750 3426 4639 
Q 3797 4528 4122 4306 
z
" transform="scale(0.015625)"/>
      </defs>
      <use xlink:href="#DejaVuSans-42"/>
      <use xlink:href="#DejaVuSans-6c" transform="translate(68.603516 0)"/>
      <use xlink:href="#DejaVuSans-6f" transform="translate(96.386719 0)"/>
      <use xlink:href="#DejaVuSans-73" transform="translate(157.568359 0)"/>
      <use xlink:href="#DejaVuSans-63" transform="translate(209.667969 0)"/>
      <use xlink:href="#DejaVuSans-20" transform="translate(264.648438 0)"/>
      <use xlink:href="#DejaVuSans-4c" transform="translate(296.435547 0)"/>
      <use xlink:href="#DejaVuSans-5a" transform="translate(352.148438 0)"/>
      <use xlink:href="#DejaVuSans-34" transform="translate(420.654297 0)"/>
      <use xlink:href="#DejaVuSans-48" transform="translate(484.277344 0)"/>
      <use xlink:href="#DejaVuSans-43" transform="translate(559.472656 0)"/>
     </g>
    </g>
    <g id="line2d_18">
     <path d="M 363.740625 135.3881 
L 377.740625 135.3881 
L 391.740625 135.3881 
" style="fill: none; stroke: #a23b72; stroke-width: 2.5; stroke-linecap: square"/>
     <g>
      <use xlink:href="#m50cb48a470" x="377.740625" y="135.3881" style="fill: #a23b72; stroke: #a23b72"/>
     </g>
    </g>
    <g id="text_13">
     <!-- Bitshuffle LZ4 -->
     <g transform="translate(402.940625 140.2881) scale(0.14 -0.14)">
      <defs>
       <path id="DejaVuSans-68" d="M 3513 2113 
L 3513 0 
L 2938 0 
L 2938 2094 
Q 2938 2591 2744 2837 
Q 2550 3084 2163 3084 
Q 1697 3084 1428 2787 
Q 1159 2491 1159 1978 
L 1159 0 
L 581 0 
L 581 4863 
L 1159 4863 
L 1159 2956 
Q 1366 3272 1645 3428 
Q 1925 3584 2291 3584 
Q 2894 3584 3203 3211 
Q 3513 2838 3513 2113 
z
" transform="scale(0.015625)"/>
       <path id="DejaVuSans-75" d="M 544 1381 
L 544 3500 
L 1119 3500 
L 1119 1403 
Q 1119 906 1312 657 
Q 1506 409 1894 409 
Q 2359 409 2629 706 
Q 2900 1003 2900 1516 
L 2900 3500 
L 3475 3500 
L 3475 0 
L 2900 0 
L 2900 538 
Q 2691 219 2414 64 
Q 2138 -91 1772 -91 
Q 1169 -91 856 284 
Q 544 659 544 1381 
z
M 1991 3584 
L 1991 3584 
z
" transform="scale(0.015625)"/>
       <path id="DejaVuSans-66" d="M 2375 4863 
L 2375 4384 
L 1825 4384 
Q 1516 4384 1395 4259 
Q 1275 4134 1275 3809 
L 1275 3500 
L 2222 3500 
L 2222 3053 
L 1275 3053 
L 1275 0 
L 697 0 
L 697 3053 
L 147 3053 
L 147 3500 
L 697 3500 
L 697 3744 
Q 697 4328 969 4595 
Q 1241 4863 1831 4863 
L 2375 4863 
z
" transform="scale(0.015625)"/>
       <path id="DejaVuSans-65" d="M 3597 1894 
L 3597 1613 
L 953 1613 
Q 991 1019 1311 708 
Q 1631 397 2203 397 
Q 2534 397 2845 478 
Q 3156 559 3463 722 
L 3463 178 
Q 3153 47 2828 -22 
Q 2503 -91 2169 -91 
Q 1331 -91 842 396 
Q 353 884 353 1716 
Q 353 2575 817 3079 
Q 1281 3584 2069 3584 
Q 2775 3584 3186 3129 
Q 3597 2675 3597 1894 
z
M 3022 2063 
Q 3016 2534 2758 2815 
Q 2500 3097 2075 3097 
Q 1594 3097 1305 2825 
Q 1016 2553 972 2059 
L 3022 2063 
z
" transform="scale(0.015625)"/>
      </defs>
      <use xlink:href="#DejaVuSans-42"/>
      <use xlink:href="#DejaVuSans-69" transform="translate(68.603516 0)"/>
      <use xlink:href="#DejaVuSans-74" transform="translate(96.386719 0)"/>
      <use xlink:href="#DejaVuSans-73" transform="translate(135.595703 0)"/>
      <use xlink:href="#DejaVuSans-68" transform="translate(187.695312 0)"/>
      <use xlink:href="#DejaVuSans-75" transform="translate(251.074219 0)"/>
      <use xlink:href="#DejaVuSans-66" transform="translate(314.453125 0)"/>
      <use xlink:href="#DejaVuSans-66" transform="translate(349.658203 0)"/>
      <use xlink:href="#DejaVuSans-6c" transform="translate(384.863281 0)"/>
      <use xlink:href="#DejaVuSans-65" transform="translate(412.646484 0)"/>
      <use xlink:href="#DejaVuSans-20" transform="translate(474.169922 0)"/>
      <use xlink:href="#DejaVuSans-4c" transform="translate(505.957031 0)"/>
      <use xlink:href="#DejaVuSans-5a" transform="translate(561.669922 0)"/>
      <use xlink:href="#DejaVuSans-34" transform="translate(630.175781 0)"/>
     </g>
    </g>
    <g id="line2d_19">
     <path d="M 363.740625 155.937475 
L 377.740625 155.937475 
L 391.740625 155.937475 
" style="fill: none; stroke: #f18f01; stroke-width: 2.5; stroke-linecap: square"/>
     <g>
      <use xlink:href="#m4c3ebb9b9e" x="377.740625" y="155.937475" style="fill: #f18f01; stroke: #f18f01"/>
     </g>
    </g>
    <g id="text_14">
     <!-- Blosc LZ4 -->
     <g transform="translate(402.940625 160.837475) scale(0.14 -0.14)">
      <use xlink:href="#DejaVuSans-42"/>
      <use xlink:href="#DejaVuSans-6c" transform="translate(68.603516 0)"/>
      <use xlink:href="#DejaVuSans-6f" transform="translate(96.386719 0)"/>
      <use xlink:href="#DejaVuSans-73" transform="translate(157.568359 0)"/>
      <use xlink:href="#DejaVuSans-63" transform="translate(209.667969 0)"/>
      <use xlink:href="#DejaVuSans-20" transform="translate(264.648438 0)"/>
      <use xlink:href="#DejaVuSans-4c" transform="translate(296.435547 0)"/>
      <use xlink:href="#DejaVuSans-5a" transform="translate(352.148438 0)"/>
      <use xlink:href="#DejaVuSans-34" transform="translate(420.654297 0)"/>
     </g>
    </g>
    <g id="line2d_20">
     <path d="M 363.740625 176.48685 
L 377.740625 176.48685 
L 391.740625 176.48685 
" style="fill: none; stroke: #c73e1d; stroke-width: 2.5; stroke-linecap: square"/>
     <g>
      <use xlink:href="#mf88dacea6b" x="377.740625" y="176.48685" style="fill: #c73e1d; stroke: #c73e1d"/>
     </g>
    </g>
    <g id="text_15">
     <!-- Blosc Blosclz -->
     <g transform="translate(402.940625 181.38685) scale(0.14 -0.14)">
      <defs>
       <path id="DejaVuSans-7a" d="M 353 3500 
L 3084 3500 
L 3084 2975 
L 922 459 
L 3084 459 
L 3084 0 
L 275 0 
L 275 525 
L 2438 3041 
L 353 3041 
L 353 3500 
z
" transform="scale(0.015625)"/>
      </defs>
      <use xlink:href="#DejaVuSans-42"/>
      <use xlink:href="#DejaVuSans-6c" transform="translate(68.603516 0)"/>
      <use xlink:href="#DejaVuSans-6f" transform="translate(96.386719 0)"/>
      <use xlink:href="#DejaVuSans-73" transform="translate(157.568359 0)"/>
      <use xlink:href="#DejaVuSans-63" transform="translate(209.667969 0)"/>
      <use xlink:href="#DejaVuSans-20" transform="translate(264.648438 0)"/>
      <use xlink:href="#DejaVuSans-42" transform="translate(296.435547 0)"/>
      <use xlink:href="#DejaVuSans-6c" transform="translate(365.039062 0)"/>
      <use xlink:href="#DejaVuSans-6f" transform="translate(392.822266 0)"/>
      <use xlink:href="#DejaVuSans-73" transform="translate(454.003906 0)"/>
      <use xlink:href="#DejaVuSans-63" transform="translate(506.103516 0)"/>
      <use xlink:href="#DejaVuSans-6c" transform="translate(561.083984 0)"/>
      <use xlink:href="#DejaVuSans-7a" transform="translate(588.867188 0)"/>
     </g>
    </g>
   </g>
   <g id="text_16">
    <g id="patch_11">
     <path d="M 328.33935 544.77715 
L 502.5606 544.77715 
Q 506.7606 544.77715 506.7606 540.57715 
L 506.7606 479.996962 
Q 506.7606 475.796962 502.5606 475.796962 
L 328.33935 475.796962 
Q 324.13935 475.796962 324.13935 479.996962 
L 324.13935 540.57715 
Q 324.13935 544.77715 328.33935 544.77715 
z
" style="fill: #ffffff; stroke: #cccccc; stroke-linejoin: miter"/>
    </g>
    <!-- Normalization values: -->
    <g transform="translate(350.570912 490.634775) scale(0.14 -0.14)">
     <defs>
      <path id="DejaVuSans-4e" d="M 628 4666 
L 1478 4666 
L 3547 763 
L 3547 4666 
L 4159 4666 
L 4159 0 
L 3309 0 
L 1241 3903 
L 1241 0 
L 628 0 
L 628 4666 
z
" transform="scale(0.015625)"/>
      <path id="DejaVuSans-72" d="M 2631 2963 
Q 2534 3019 2420 3045 
Q 2306 3072 2169 3072 
Q 1681 3072 1420 2755 
Q 1159 2438 1159 1844 
L 1159 0 
L 581 0 
L 581 3500 
L 1159 3500 
L 1159 2956 
Q 1341 3275 1631 3429 
Q 1922 3584 2338 3584 
Q 2397 3584 2469 3576 
Q 2541 3569 2628 3553 
L 2631 2963 
z
" transform="scale(0.015625)"/>
      <path id="DejaVuSans-6d" d="M 3328 2828 
Q 3544 3216 3844 3400 
Q 4144 3584 4550 3584 
Q 5097 3584 5394 3201 
Q 5691 2819 5691 2113 
L 5691 0 
L 5113 0 
L 5113 2094 
Q 5113 2597 4934 2840 
Q 4756 3084 4391 3084 
Q 3944 3084 3684 2787 
Q 3425 2491 3425 1978 
L 3425 0 
L 2847 0 
L 2847 2094 
Q 2847 2600 2669 2842 
Q 2491 3084 2119 3084 
Q 1678 3084 1418 2786 
Q 1159 2488 1159 1978 
L 1159 0 
L 581 0 
L 581 3500 
L 1159 3500 
L 1159 2956 
Q 1356 3278 1631 3431 
Q 1906 3584 2284 3584 
Q 2666 3584 2933 3390 
Q 3200 3197 3328 2828 
z
" transform="scale(0.015625)"/>
      <path id="DejaVuSans-61" d="M 2194 1759 
Q 1497 1759 1228 1600 
Q 959 1441 959 1056 
Q 959 750 1161 570 
Q 1363 391 1709 391 
Q 2188 391 2477 730 
Q 2766 1069 2766 1631 
L 2766 1759 
L 2194 1759 
z
M 3341 1997 
L 3341 0 
L 2766 0 
L 2766 531 
Q 2569 213 2275 61 
Q 1981 -91 1556 -91 
Q 1019 -91 701 211 
Q 384 513 384 1019 
Q 384 1609 779 1909 
Q 1175 2209 1959 2209 
L 2766 2209 
L 2766 2266 
Q 2766 2663 2505 2880 
Q 2244 3097 1772 3097 
Q 1472 3097 1187 3025 
Q 903 2953 641 2809 
L 641 3341 
Q 956 3463 1253 3523 
Q 1550 3584 1831 3584 
Q 2591 3584 2966 3190 
Q 3341 2797 3341 1997 
z
" transform="scale(0.015625)"/>
      <path id="DejaVuSans-6e" d="M 3513 2113 
L 3513 0 
L 2938 0 
L 2938 2094 
Q 2938 2591 2744 2837 
Q 2550 3084 2163 3084 
Q 1697 3084 1428 2787 
Q 1159 2491 1159 1978 
L 1159 0 
L 581 0 
L 581 3500 
L 1159 3500 
L 1159 2956 
Q 1366 3272 1645 3428 
Q 1925 3584 2291 3584 
Q 2894 3584 3203 3211 
Q 3513 2838 3513 2113 
z
" transform="scale(0.015625)"/>
      <path id="DejaVuSans-76" d="M 191 3500 
L 800 3500 
L 1894 563 
L 2988 3500 
L 3597 3500 
L 2284 0 
L 1503 0 
L 191 3500 
z
" transform="scale(0.015625)"/>
      <path id="DejaVuSans-3a" d="M 750 794 
L 1409 794 
L 1409 0 
L 750 0 
L 750 794 
z
M 750 3309 
L 1409 3309 
L 1409 2516 
L 750 2516 
L 750 3309 
z
" transform="scale(0.015625)"/>
     </defs>
     <use xlink:href="#DejaVuSans-4e"/>
     <use xlink:href="#DejaVuSans-6f" transform="translate(74.804688 0)"/>
     <use xlink:href="#DejaVuSans-72" transform="translate(135.986328 0)"/>
     <use xlink:href="#DejaVuSans-6d" transform="translate(175.349609 0)"/>
     <use xlink:href="#DejaVuSans-61" transform="translate(272.761719 0)"/>
     <use xlink:href="#DejaVuSans-6c" transform="translate(334.041016 0)"/>
     <use xlink:href="#DejaVuSans-69" transform="translate(361.824219 0)"/>
     <use xlink:href="#DejaVuSans-7a" transform="translate(389.607422 0)"/>
     <use xlink:href="#DejaVuSans-61" transform="translate(442.097656 0)"/>
     <use xlink:href="#DejaVuSans-74" transform="translate(503.376953 0)"/>
     <use xlink:href="#DejaVuSans-69" transform="translate(542.585938 0)"/>
     <use xlink:href="#DejaVuSans-6f" transform="translate(570.369141 0)"/>
     <use xlink:href="#DejaVuSans-6e" transform="translate(631.550781 0)"/>
     <use xlink:href="#DejaVuSans-20" transform="translate(694.929688 0)"/>
     <use xlink:href="#DejaVuSans-76" transform="translate(726.716797 0)"/>
     <use xlink:href="#DejaVuSans-61" transform="translate(785.896484 0)"/>
     <use xlink:href="#DejaVuSans-6c" transform="translate(847.175781 0)"/>
     <use xlink:href="#DejaVuSans-75" transform="translate(874.958984 0)"/>
     <use xlink:href="#DejaVuSans-65" transform="translate(938.337891 0)"/>
     <use xlink:href="#DejaVuSans-73" transform="translate(999.861328 0)"/>
     <use xlink:href="#DejaVuSans-3a" transform="translate(1051.960938 0)"/>
    </g>
    <!-- Max compression: 13.5× -->
    <g transform="translate(328.33935 506.311712) scale(0.14 -0.14)">
     <defs>
      <path id="DejaVuSans-4d" d="M 628 4666 
L 1569 4666 
L 2759 1491 
L 3956 4666 
L 4897 4666 
L 4897 0 
L 4281 0 
L 4281 4097 
L 3078 897 
L 2444 897 
L 1241 4097 
L 1241 0 
L 628 0 
L 628 4666 
z
" transform="scale(0.015625)"/>
      <path id="DejaVuSans-78" d="M 3513 3500 
L 2247 1797 
L 3578 0 
L 2900 0 
L 1881 1375 
L 863 0 
L 184 0 
L 1544 1831 
L 300 3500 
L 978 3500 
L 1906 2253 
L 2834 3500 
L 3513 3500 
z
" transform="scale(0.015625)"/>
      <path id="DejaVuSans-70" d="M 1159 525 
L 1159 -1331 
L 581 -1331 
L 581 3500 
L 1159 3500 
L 1159 2969 
Q 1341 3281 1617 3432 
Q 1894 3584 2278 3584 
Q 2916 3584 3314 3078 
Q 3713 2572 3713 1747 
Q 3713 922 3314 415 
Q 2916 -91 2278 -91 
Q 1894 -91 1617 61 
Q 1341 213 1159 525 
z
M 3116 1747 
Q 3116 2381 2855 2742 
Q 2594 3103 2138 3103 
Q 1681 3103 1420 2742 
Q 1159 2381 1159 1747 
Q 1159 1113 1420 752 
Q 1681 391 2138 391 
Q 2594 391 2855 752 
Q 3116 1113 3116 1747 
z
" transform="scale(0.015625)"/>
      <path id="DejaVuSans-33" d="M 2597 2516 
Q 3050 2419 3304 2112 
Q 3559 1806 3559 1356 
Q 3559 666 3084 287 
Q 2609 -91 1734 -91 
Q 1441 -91 1130 -33 
Q 819 25 488 141 
L 488 750 
Q 750 597 1062 519 
Q 1375 441 1716 441 
Q 2309 441 2620 675 
Q 2931 909 2931 1356 
Q 2931 1769 2642 2001 
Q 2353 2234 1838 2234 
L 1294 2234 
L 1294 2753 
L 1863 2753 
Q 2328 2753 2575 2939 
Q 2822 3125 2822 3475 
Q 2822 3834 2567 4026 
Q 2313 4219 1838 4219 
Q 1578 4219 1281 4162 
Q 984 4106 628 3988 
L 628 4550 
Q 988 4650 1302 4700 
Q 1616 4750 1894 4750 
Q 2613 4750 3031 4423 
Q 3450 4097 3450 3541 
Q 3450 3153 3228 2886 
Q 3006 2619 2597 2516 
z
" transform="scale(0.015625)"/>
      <path id="DejaVuSans-2e" d="M 684 794 
L 1344 794 
L 1344 0 
L 684 0 
L 684 794 
z
" transform="scale(0.015625)"/>
      <path id="DejaVuSans-35" d="M 691 4666 
L 3169 4666 
L 3169 4134 
L 1269 4134 
L 1269 2991 
Q 1406 3038 1543 3061 
Q 1681 3084 1819 3084 
Q 2600 3084 3056 2656 
Q 3513 2228 3513 1497 
Q 3513 744 3044 326 
Q 2575 -91 1722 -91 
Q 1428 -91 1123 -41 
Q 819 9 494 109 
L 494 744 
Q 775 591 1075 516 
Q 1375 441 1709 441 
Q 2250 441 2565 725 
Q 2881 1009 2881 1497 
Q 2881 1984 2565 2268 
Q 2250 2553 1709 2553 
Q 1456 2553 1204 2497 
Q 953 2441 691 2322 
L 691 4666 
z
" transform="scale(0.015625)"/>
      <path id="DejaVuSans-d7" d="M 4488 3438 
L 3059 2003 
L 4488 575 
L 4116 197 
L 2681 1631 
L 1247 197 
L 878 575 
L 2303 2003 
L 878 3438 
L 1247 3816 
L 2681 2381 
L 4116 3816 
L 4488 3438 
z
" transform="scale(0.015625)"/>
     </defs>
     <use xlink:href="#DejaVuSans-4d"/>
     <use xlink:href="#DejaVuSans-61" transform="translate(86.279297 0)"/>
     <use xlink:href="#DejaVuSans-78" transform="translate(147.558594 0)"/>
     <use xlink:href="#DejaVuSans-20" transform="translate(206.738281 0)"/>
     <use xlink:href="#DejaVuSans-63" transform="translate(238.525391 0)"/>
     <use xlink:href="#DejaVuSans-6f" transform="translate(293.505859 0)"/>
     <use xlink:href="#DejaVuSans-6d" transform="translate(354.6875 0)"/>
     <use xlink:href="#DejaVuSans-70" transform="translate(452.099609 0)"/>
     <use xlink:href="#DejaVuSans-72" transform="translate(515.576172 0)"/>
     <use xlink:href="#DejaVuSans-65" transform="translate(554.439453 0)"/>
     <use xlink:href="#DejaVuSans-73" transform="translate(615.962891 0)"/>
     <use xlink:href="#DejaVuSans-73" transform="translate(668.0625 0)"/>
     <use xlink:href="#DejaVuSans-69" transform="translate(720.162109 0)"/>
     <use xlink:href="#DejaVuSans-6f" transform="translate(747.945312 0)"/>
     <use xlink:href="#DejaVuSans-6e" transform="translate(809.126953 0)"/>
     <use xlink:href="#DejaVuSans-3a" transform="translate(872.505859 0)"/>
     <use xlink:href="#DejaVuSans-20" transform="translate(906.197266 0)"/>
     <use xlink:href="#DejaVuSans-31" transform="translate(937.984375 0)"/>
     <use xlink:href="#DejaVuSans-33" transform="translate(1001.607422 0)"/>
     <use xlink:href="#DejaVuSans-2e" transform="translate(1065.230469 0)"/>
     <use xlink:href="#DejaVuSans-35" transform="translate(1097.017578 0)"/>
     <use xlink:href="#DejaVuSans-d7" transform="translate(1160.640625 0)"/>
    </g>
    <!-- Max write: 1.47 GiB/s -->
    <g transform="translate(352.8306 521.98865) scale(0.14 -0.14)">
     <defs>
      <path id="DejaVuSans-77" d="M 269 3500 
L 844 3500 
L 1563 769 
L 2278 3500 
L 2956 3500 
L 3675 769 
L 4391 3500 
L 4966 3500 
L 4050 0 
L 3372 0 
L 2619 2869 
L 1863 0 
L 1184 0 
L 269 3500 
z
" transform="scale(0.015625)"/>
      <path id="DejaVuSans-37" d="M 525 4666 
L 3525 4666 
L 3525 4397 
L 1831 0 
L 1172 0 
L 2766 4134 
L 525 4134 
L 525 4666 
z
" transform="scale(0.015625)"/>
      <path id="DejaVuSans-47" d="M 3809 666 
L 3809 1919 
L 2778 1919 
L 2778 2438 
L 4434 2438 
L 4434 434 
Q 4069 175 3628 42 
Q 3188 -91 2688 -91 
Q 1594 -91 976 548 
Q 359 1188 359 2328 
Q 359 3472 976 4111 
Q 1594 4750 2688 4750 
Q 3144 4750 3555 4637 
Q 3966 4525 4313 4306 
L 4313 3634 
Q 3963 3931 3569 4081 
Q 3175 4231 2741 4231 
Q 1884 4231 1454 3753 
Q 1025 3275 1025 2328 
Q 1025 1384 1454 906 
Q 1884 428 2741 428 
Q 3075 428 3337 486 
Q 3600 544 3809 666 
z
" transform="scale(0.015625)"/>
      <path id="DejaVuSans-2f" d="M 1625 4666 
L 2156 4666 
L 531 -594 
L 0 -594 
L 1625 4666 
z
" transform="scale(0.015625)"/>
     </defs>
     <use xlink:href="#DejaVuSans-4d"/>
     <use xlink:href="#DejaVuSans-61" transform="translate(86.279297 0)"/>
     <use xlink:href="#DejaVuSans-78" transform="translate(147.558594 0)"/>
     <use xlink:href="#DejaVuSans-20" transform="translate(206.738281 0)"/>
     <use xlink:href="#DejaVuSans-77" transform="translate(238.525391 0)"/>
     <use xlink:href="#DejaVuSans-72" transform="translate(320.3125 0)"/>
     <use xlink:href="#DejaVuSans-69" transform="translate(361.425781 0)"/>
     <use xlink:href="#DejaVuSans-74" transform="translate(389.208984 0)"/>
     <use xlink:href="#DejaVuSans-65" transform="translate(428.417969 0)"/>
     <use xlink:href="#DejaVuSans-3a" transform="translate(489.941406 0)"/>
     <use xlink:href="#DejaVuSans-20" transform="translate(523.632812 0)"/>
     <use xlink:href="#DejaVuSans-31" transform="translate(555.419922 0)"/>
     <use xlink:href="#DejaVuSans-2e" transform="translate(619.042969 0)"/>
     <use xlink:href="#DejaVuSans-34" transform="translate(650.830078 0)"/>
     <use xlink:href="#DejaVuSans-37" transform="translate(714.453125 0)"/>
     <use xlink:href="#DejaVuSans-20" transform="translate(778.076172 0)"/>
     <use xlink:href="#DejaVuSans-47" transform="translate(809.863281 0)"/>
     <use xlink:href="#DejaVuSans-69" transform="translate(887.353516 0)"/>
     <use xlink:href="#DejaVuSans-42" transform="translate(915.136719 0)"/>
     <use xlink:href="#DejaVuSans-2f" transform="translate(983.740234 0)"/>
     <use xlink:href="#DejaVuSans-73" transform="translate(1017.431641 0)"/>
    </g>
    <!-- Max read: 2.7 GiB/s -->
    <g transform="translate(365.4131 537.665588) scale(0.14 -0.14)">
     <use xlink:href="#DejaVuSans-4d"/>
     <use xlink:href="#DejaVuSans-61" transform="translate(86.279297 0)"/>
     <use xlink:href="#DejaVuSans-78" transform="translate(147.558594 0)"/>
     <use xlink:href="#DejaVuSans-20" transform="translate(206.738281 0)"/>
     <use xlink:href="#DejaVuSans-72" transform="translate(238.525391 0)"/>
     <use xlink:href="#DejaVuSans-65" transform="translate(277.388672 0)"/>
     <use xlink:href="#DejaVuSans-61" transform="translate(338.912109 0)"/>
     <use xlink:href="#DejaVuSans-64" transform="translate(400.191406 0)"/>
     <use xlink:href="#DejaVuSans-3a" transform="translate(463.667969 0)"/>
     <use xlink:href="#DejaVuSans-20" transform="translate(497.359375 0)"/>
     <use xlink:href="#DejaVuSans-32" transform="translate(529.146484 0)"/>
     <use xlink:href="#DejaVuSans-2e" transform="translate(592.769531 0)"/>
     <use xlink:href="#DejaVuSans-37" transform="translate(624.556641 0)"/>
     <use xlink:href="#DejaVuSans-20" transform="translate(688.179688 0)"/>
     <use xlink:href="#DejaVuSans-47" transform="translate(719.966797 0)"/>
     <use xlink:href="#DejaVuSans-69" transform="translate(797.457031 0)"/>
     <use xlink:href="#DejaVuSans-42" transform="translate(825.240234 0)"/>
     <use xlink:href="#DejaVuSans-2f" transform="translate(893.84375 0)"/>
     <use xlink:href="#DejaVuSans-73" transform="translate(927.535156 0)"/>
    </g>
   </g>
  </g>
 </g>
 <defs>
  <clipPath id="pd94127d692">
   <path d="M 512.67 318.246563 
C 512.67 285.057706 506.132519 252.19157 493.431694 221.529065 
C 480.730868 190.86656 462.113698 163.003995 438.645632 139.53593 
C 415.177567 116.067865 387.315002 97.450694 356.652497 84.749869 
C 325.989992 72.049043 293.123856 65.511563 259.935 65.511563 
C 226.746144 65.511563 193.880008 72.049043 163.217503 84.749869 
C 132.554998 97.450694 104.692433 116.067865 81.224368 139.53593 
C 57.756302 163.003995 39.139132 190.86656 26.438306 221.529065 
C 13.737481 252.19157 7.2 285.057706 7.2 318.246562 
C 7.2 351.435419 13.737481 384.301555 26.438306 414.96406 
C 39.139132 445.626565 57.756302 473.48913 81.224368 496.957195 
C 104.692433 520.42526 132.554998 539.042431 163.217503 551.743256 
C 193.880008 564.444082 226.746144 570.981562 259.935 570.981562 
C 293.123856 570.981562 325.989992 564.444082 356.652497 551.743256 
C 387.315002 539.042431 415.177567 520.42526 438.645632 496.957195 
C 462.113698 473.48913 480.730868 445.626565 493.431694 414.96406 
C 506.132519 384.301555 512.67 351.435419 512.67 318.246563 
M 259.935 318.246563 
C 259.935 318.246563 259.935 318.246563 259.935 318.246563 
C 259.935 318.246563 259.935 318.246563 259.935 318.246563 
C 259.935 318.246563 259.935 318.246563 259.935 318.246563 
C 259.935 318.246563 259.935 318.246563 259.935 318.246563 
C 259.935 318.246563 259.935 318.246563 259.935 318.246563 
C 259.935 318.246563 259.935 318.246563 259.935 318.246563 
C 259.935 318.246563 259.935 318.246563 259.935 318.246563 
C 259.935 318.246563 259.935 318.246563 259.935 318.246563 
C 259.935 318.246563 259.935 318.246563 259.935 318.246563 
C 259.935 318.246563 259.935 318.246563 259.935 318.246563 
C 259.935 318.246563 259.935 318.246563 259.935 318.246563 
C 259.935 318.246563 259.935 318.246563 259.935 318.246563 
C 259.935 318.246563 259.935 318.246563 259.935 318.246563 
C 259.935 318.246563 259.935 318.246563 259.935 318.246563 
C 259.935 318.246563 259.935 318.246563 259.935 318.246563 
C 259.935 318.246563 259.935 318.246563 259.935 318.246563 
z
"/>
  </clipPath>
 </defs>
</svg>
