<?xml version="1.0" encoding="utf-8" standalone="no"?>
<!DOCTYPE svg PUBLIC "-//W3C//DTD SVG 1.1//EN"
  "http://www.w3.org/Graphics/SVG/1.1/DTD/svg11.dtd">
<svg xmlns:xlink="http://www.w3.org/1999/xlink" width="713.166875pt" height="496.598875pt" viewBox="0 0 713.166875 496.598875" xmlns="http://www.w3.org/2000/svg" version="1.1">
 <metadata>
  <rdf:RDF xmlns:dc="http://purl.org/dc/elements/1.1/" xmlns:cc="http://creativecommons.org/ns#" xmlns:rdf="http://www.w3.org/1999/02/22-rdf-syntax-ns#">
   <cc:Work>
    <dc:type rdf:resource="http://purl.org/dc/dcmitype/StillImage"/>
    <dc:date>2026-03-26T11:40:18.812597</dc:date>
    <dc:format>image/svg+xml</dc:format>
    <dc:creator>
     <cc:Agent>
      <dc:title>Matplotlib v3.10.8, https://matplotlib.org/</dc:title>
     </cc:Agent>
    </dc:creator>
   </cc:Work>
  </rdf:RDF>
 </metadata>
 <defs>
  <style type="text/css">*{stroke-linejoin: round; stroke-linecap: butt}</style>
 </defs>
 <g id="figure_1">
  <g id="patch_1">
   <path d="M 0 496.598875 
L 713.166875 496.598875 
L 713.166875 0 
L 0 0 
z
" style="fill: #ffffff"/>
  </g>
  <g id="axes_1">
   <g id="patch_2">
    <path d="M 62.396875 439.5145 
L 705.966875 439.5145 
L 705.966875 72.4985 
L 62.396875 72.4985 
z
" style="fill: #ffffff"/>
   </g>
   <g id="line2d_1">
    <path d="M -1 282.142192 
L 5.190653 282.583957 
L 12.341431 283.061369 
L 19.492208 283.506607 
L 26.642986 283.92031 
L 33.793764 284.303064 
L 40.944542 284.655408 
L 48.095319 284.977831 
L 55.246097 285.270778 
L 62.396875 285.534652 
L 69.547653 285.769809 
L 76.698431 285.976568 
L 83.849208 286.155207 
L 90.999986 286.305964 
L 98.150764 286.429039 
L 105.301542 286.524596 
L 112.452319 286.592762 
L 119.603097 286.633625 
L 126.753875 286.64724 
L 133.904653 286.633625 
L 141.055431 286.592762 
L 148.206208 286.524596 
L 155.356986 286.429039 
L 162.507764 286.305964 
L 169.658542 286.155207 
L 176.809319 285.976568 
L 183.960097 285.769809 
L 191.110875 285.534652 
L 198.261653 285.270778 
L 205.412431 284.977831 
L 212.563208 284.655408 
L 219.713986 284.303064 
L 226.864764 283.92031 
L 234.015542 283.506607 
L 241.166319 283.061369 
L 248.317097 282.583957 
L 255.467875 282.073678 
L 262.618653 281.529782 
L 269.769431 280.95146 
L 276.920208 280.337839 
L 284.070986 279.687979 
L 291.221764 279.000869 
L 298.372542 278.275424 
L 305.523319 277.510478 
L 312.674097 276.704778 
L 319.824875 275.856982 
L 326.975653 274.965649 
L 334.126431 274.029233 
L 341.277208 273.046076 
L 348.427986 272.014399 
L 355.578764 270.932292 
L 362.729542 269.797702 
L 369.880319 268.608426 
L 377.031097 267.362094 
L 384.181875 266.056156 
L 391.332653 264.687867 
L 398.483431 263.254268 
L 405.634208 261.752168 
L 412.784986 260.178119 
L 419.935764 258.528396 
L 427.086542 256.798966 
L 434.237319 254.985457 
L 441.388097 253.083125 
L 448.538875 251.086814 
L 455.689653 248.990908 
L 462.840431 246.789286 
L 469.991208 244.47526 
L 477.141986 242.04151 
L 484.292764 239.480008 
L 491.443542 236.781933 
L 498.594319 233.937567 
L 505.745097 230.936182 
L 512.895875 227.765905 
L 520.046653 224.413559 
L 527.197431 220.864481 
L 534.348208 217.102303 
L 541.498986 213.108697 
L 548.649764 208.863073 
L 555.800542 204.342212 
L 562.951319 199.519834 
L 570.102097 194.366066 
L 577.252875 188.846811 
L 584.403653 182.922956 
L 591.554431 176.549411 
L 598.705208 169.673909 
L 605.855986 162.235505 
L 613.006764 154.162672 
L 620.157542 145.370878 
L 627.308319 135.759452 
L 634.459097 125.207491 
L 641.609875 113.568453 
L 648.760653 100.662882 
L 655.911431 86.268506 
L 663.062208 70.106488 
L 670.212986 51.821962 
L 677.363764 30.95587 
L 684.514542 6.903147 
L 686.528978 -1 
" clip-path="url(#p1532b2fd82)" style="fill: none; stroke-dasharray: 11.1,4.8; stroke-dashoffset: 0; stroke: #000000; stroke-opacity: 0.5; stroke-width: 3"/>
   </g>
   <g id="matplotlib.axis_1">
    <g id="xtick_1">
     <g id="line2d_2">
      <path d="M 126.753875 439.5145 
L 126.753875 72.4985 
" clip-path="url(#p1532b2fd82)" style="fill: none; stroke-dasharray: 5.55,2.4; stroke-dashoffset: 0; stroke: #b0b0b0; stroke-opacity: 0.3; stroke-width: 1.5"/>
     </g>
     <g id="line2d_3">
      <defs>
       <path id="mf2a723872e" d="M 0 0 
L 0 3.5 
" style="stroke: #000000; stroke-width: 0.8"/>
      </defs>
      <g>
       <use xlink:href="#mf2a723872e" x="126.753875" y="439.5145" style="stroke: #000000; stroke-width: 0.8"/>
      </g>
     </g>
     <g id="text_1">
      <!-- 50 -->
      <g transform="translate(115.301375 460.191687) scale(0.18 -0.18)">
       <defs>
        <path id="DejaVuSans-35" d="M 691 4666 
L 3169 4666 
L 3169 4134 
L 1269 4134 
L 1269 2991 
Q 1406 3038 1543 3061 
Q 1681 3084 1819 3084 
Q 2600 3084 3056 2656 
Q 3513 2228 3513 1497 
Q 3513 744 3044 326 
Q 2575 -91 1722 -91 
Q 1428 -91 1123 -41 
Q 819 9 494 109 
L 494 744 
Q 775 591 1075 516 
Q 1375 441 1709 441 
Q 2250 441 2565 725 
Q 2881 1009 2881 1497 
Q 2881 1984 2565 2268 
Q 2250 2553 1709 2553 
Q 1456 2553 1204 2497 
Q 953 2441 691 2322 
L 691 4666 
z
" transform="scale(0.015625)"/>
        <path id="DejaVuSans-30" d="M 2034 4250 
Q 1547 4250 1301 3770 
Q 1056 3291 1056 2328 
Q 1056 1369 1301 889 
Q 1547 409 2034 409 
Q 2525 409 2770 889 
Q 3016 1369 3016 2328 
Q 3016 3291 2770 3770 
Q 2525 4250 2034 4250 
z
M 2034 4750 
Q 2819 4750 3233 4129 
Q 3647 3509 3647 2328 
Q 3647 1150 3233 529 
Q 2819 -91 2034 -91 
Q 1250 -91 836 529 
Q 422 1150 422 2328 
Q 422 3509 836 4129 
Q 1250 4750 2034 4750 
z
" transform="scale(0.015625)"/>
       </defs>
       <use xlink:href="#DejaVuSans-35"/>
       <use xlink:href="#DejaVuSans-30" transform="translate(63.623047 0)"/>
      </g>
     </g>
    </g>
    <g id="xtick_2">
     <g id="line2d_4">
      <path d="M 255.467875 439.5145 
L 255.467875 72.4985 
" clip-path="url(#p1532b2fd82)" style="fill: none; stroke-dasharray: 5.55,2.4; stroke-dashoffset: 0; stroke: #b0b0b0; stroke-opacity: 0.3; stroke-width: 1.5"/>
     </g>
     <g id="line2d_5">
      <g>
       <use xlink:href="#mf2a723872e" x="255.467875" y="439.5145" style="stroke: #000000; stroke-width: 0.8"/>
      </g>
     </g>
     <g id="text_2">
      <!-- 60 -->
      <g transform="translate(244.015375 460.191687) scale(0.18 -0.18)">
       <defs>
        <path id="DejaVuSans-36" d="M 2113 2584 
Q 1688 2584 1439 2293 
Q 1191 2003 1191 1497 
Q 1191 994 1439 701 
Q 1688 409 2113 409 
Q 2538 409 2786 701 
Q 3034 994 3034 1497 
Q 3034 2003 2786 2293 
Q 2538 2584 2113 2584 
z
M 3366 4563 
L 3366 3988 
Q 3128 4100 2886 4159 
Q 2644 4219 2406 4219 
Q 1781 4219 1451 3797 
Q 1122 3375 1075 2522 
Q 1259 2794 1537 2939 
Q 1816 3084 2150 3084 
Q 2853 3084 3261 2657 
Q 3669 2231 3669 1497 
Q 3669 778 3244 343 
Q 2819 -91 2113 -91 
Q 1303 -91 875 529 
Q 447 1150 447 2328 
Q 447 3434 972 4092 
Q 1497 4750 2381 4750 
Q 2619 4750 2861 4703 
Q 3103 4656 3366 4563 
z
" transform="scale(0.015625)"/>
       </defs>
       <use xlink:href="#DejaVuSans-36"/>
       <use xlink:href="#DejaVuSans-30" transform="translate(63.623047 0)"/>
      </g>
     </g>
    </g>
    <g id="xtick_3">
     <g id="line2d_6">
      <path d="M 384.181875 439.5145 
L 384.181875 72.4985 
" clip-path="url(#p1532b2fd82)" style="fill: none; stroke-dasharray: 5.55,2.4; stroke-dashoffset: 0; stroke: #b0b0b0; stroke-opacity: 0.3; stroke-width: 1.5"/>
     </g>
     <g id="line2d_7">
      <g>
       <use xlink:href="#mf2a723872e" x="384.181875" y="439.5145" style="stroke: #000000; stroke-width: 0.8"/>
      </g>
     </g>
     <g id="text_3">
      <!-- 70 -->
      <g transform="translate(372.729375 460.191687) scale(0.18 -0.18)">
       <defs>
        <path id="DejaVuSans-37" d="M 525 4666 
L 3525 4666 
L 3525 4397 
L 1831 0 
L 1172 0 
L 2766 4134 
L 525 4134 
L 525 4666 
z
" transform="scale(0.015625)"/>
       </defs>
       <use xlink:href="#DejaVuSans-37"/>
       <use xlink:href="#DejaVuSans-30" transform="translate(63.623047 0)"/>
      </g>
     </g>
    </g>
    <g id="xtick_4">
     <g id="line2d_8">
      <path d="M 512.895875 439.5145 
L 512.895875 72.4985 
" clip-path="url(#p1532b2fd82)" style="fill: none; stroke-dasharray: 5.55,2.4; stroke-dashoffset: 0; stroke: #b0b0b0; stroke-opacity: 0.3; stroke-width: 1.5"/>
     </g>
     <g id="line2d_9">
      <g>
       <use xlink:href="#mf2a723872e" x="512.895875" y="439.5145" style="stroke: #000000; stroke-width: 0.8"/>
      </g>
     </g>
     <g id="text_4">
      <!-- 80 -->
      <g transform="translate(501.443375 460.191687) scale(0.18 -0.18)">
       <defs>
        <path id="DejaVuSans-38" d="M 2034 2216 
Q 1584 2216 1326 1975 
Q 1069 1734 1069 1313 
Q 1069 891 1326 650 
Q 1584 409 2034 409 
Q 2484 409 2743 651 
Q 3003 894 3003 1313 
Q 3003 1734 2745 1975 
Q 2488 2216 2034 2216 
z
M 1403 2484 
Q 997 2584 770 2862 
Q 544 3141 544 3541 
Q 544 4100 942 4425 
Q 1341 4750 2034 4750 
Q 2731 4750 3128 4425 
Q 3525 4100 3525 3541 
Q 3525 3141 3298 2862 
Q 3072 2584 2669 2484 
Q 3125 2378 3379 2068 
Q 3634 1759 3634 1313 
Q 3634 634 3220 271 
Q 2806 -91 2034 -91 
Q 1263 -91 848 271 
Q 434 634 434 1313 
Q 434 1759 690 2068 
Q 947 2378 1403 2484 
z
M 1172 3481 
Q 1172 3119 1398 2916 
Q 1625 2713 2034 2713 
Q 2441 2713 2670 2916 
Q 2900 3119 2900 3481 
Q 2900 3844 2670 4047 
Q 2441 4250 2034 4250 
Q 1625 4250 1398 4047 
Q 1172 3844 1172 3481 
z
" transform="scale(0.015625)"/>
       </defs>
       <use xlink:href="#DejaVuSans-38"/>
       <use xlink:href="#DejaVuSans-30" transform="translate(63.623047 0)"/>
      </g>
     </g>
    </g>
    <g id="xtick_5">
     <g id="line2d_10">
      <path d="M 641.609875 439.5145 
L 641.609875 72.4985 
" clip-path="url(#p1532b2fd82)" style="fill: none; stroke-dasharray: 5.55,2.4; stroke-dashoffset: 0; stroke: #b0b0b0; stroke-opacity: 0.3; stroke-width: 1.5"/>
     </g>
     <g id="line2d_11">
      <g>
       <use xlink:href="#mf2a723872e" x="641.609875" y="439.5145" style="stroke: #000000; stroke-width: 0.8"/>
      </g>
     </g>
     <g id="text_5">
      <!-- 90 -->
      <g transform="translate(630.157375 460.191687) scale(0.18 -0.18)">
       <defs>
        <path id="DejaVuSans-39" d="M 703 97 
L 703 672 
Q 941 559 1184 500 
Q 1428 441 1663 441 
Q 2288 441 2617 861 
Q 2947 1281 2994 2138 
Q 2813 1869 2534 1725 
Q 2256 1581 1919 1581 
Q 1219 1581 811 2004 
Q 403 2428 403 3163 
Q 403 3881 828 4315 
Q 1253 4750 1959 4750 
Q 2769 4750 3195 4129 
Q 3622 3509 3622 2328 
Q 3622 1225 3098 567 
Q 2575 -91 1691 -91 
Q 1453 -91 1209 -44 
Q 966 3 703 97 
z
M 1959 2075 
Q 2384 2075 2632 2365 
Q 2881 2656 2881 3163 
Q 2881 3666 2632 3958 
Q 2384 4250 1959 4250 
Q 1534 4250 1286 3958 
Q 1038 3666 1038 3163 
Q 1038 2656 1286 2365 
Q 1534 2075 1959 2075 
z
" transform="scale(0.015625)"/>
       </defs>
       <use xlink:href="#DejaVuSans-39"/>
       <use xlink:href="#DejaVuSans-30" transform="translate(63.623047 0)"/>
      </g>
     </g>
    </g>
    <g id="text_6">
     <!-- Sparsity (%) -->
     <g transform="translate(307.886563 484.651687) scale(0.22 -0.22)">
      <defs>
       <path id="DejaVuSans-Bold-53" d="M 3834 4519 
L 3834 3531 
Q 3450 3703 3084 3790 
Q 2719 3878 2394 3878 
Q 1963 3878 1756 3759 
Q 1550 3641 1550 3391 
Q 1550 3203 1689 3098 
Q 1828 2994 2194 2919 
L 2706 2816 
Q 3484 2659 3812 2340 
Q 4141 2022 4141 1434 
Q 4141 663 3683 286 
Q 3225 -91 2284 -91 
Q 1841 -91 1394 -6 
Q 947 78 500 244 
L 500 1259 
Q 947 1022 1364 901 
Q 1781 781 2169 781 
Q 2563 781 2772 912 
Q 2981 1044 2981 1288 
Q 2981 1506 2839 1625 
Q 2697 1744 2272 1838 
L 1806 1941 
Q 1106 2091 782 2419 
Q 459 2747 459 3303 
Q 459 4000 909 4375 
Q 1359 4750 2203 4750 
Q 2588 4750 2994 4692 
Q 3400 4634 3834 4519 
z
" transform="scale(0.015625)"/>
       <path id="DejaVuSans-Bold-70" d="M 1656 506 
L 1656 -1331 
L 538 -1331 
L 538 3500 
L 1656 3500 
L 1656 2988 
Q 1888 3294 2169 3439 
Q 2450 3584 2816 3584 
Q 3463 3584 3878 3070 
Q 4294 2556 4294 1747 
Q 4294 938 3878 423 
Q 3463 -91 2816 -91 
Q 2450 -91 2169 54 
Q 1888 200 1656 506 
z
M 2400 2772 
Q 2041 2772 1848 2508 
Q 1656 2244 1656 1747 
Q 1656 1250 1848 986 
Q 2041 722 2400 722 
Q 2759 722 2948 984 
Q 3138 1247 3138 1747 
Q 3138 2247 2948 2509 
Q 2759 2772 2400 2772 
z
" transform="scale(0.015625)"/>
       <path id="DejaVuSans-Bold-61" d="M 2106 1575 
Q 1756 1575 1579 1456 
Q 1403 1338 1403 1106 
Q 1403 894 1545 773 
Q 1688 653 1941 653 
Q 2256 653 2472 879 
Q 2688 1106 2688 1447 
L 2688 1575 
L 2106 1575 
z
M 3816 1997 
L 3816 0 
L 2688 0 
L 2688 519 
Q 2463 200 2181 54 
Q 1900 -91 1497 -91 
Q 953 -91 614 226 
Q 275 544 275 1050 
Q 275 1666 698 1953 
Q 1122 2241 2028 2241 
L 2688 2241 
L 2688 2328 
Q 2688 2594 2478 2717 
Q 2269 2841 1825 2841 
Q 1466 2841 1156 2769 
Q 847 2697 581 2553 
L 581 3406 
Q 941 3494 1303 3539 
Q 1666 3584 2028 3584 
Q 2975 3584 3395 3211 
Q 3816 2838 3816 1997 
z
" transform="scale(0.015625)"/>
       <path id="DejaVuSans-Bold-72" d="M 3138 2547 
Q 2991 2616 2845 2648 
Q 2700 2681 2553 2681 
Q 2122 2681 1889 2404 
Q 1656 2128 1656 1613 
L 1656 0 
L 538 0 
L 538 3500 
L 1656 3500 
L 1656 2925 
Q 1872 3269 2151 3426 
Q 2431 3584 2822 3584 
Q 2878 3584 2943 3579 
Q 3009 3575 3134 3559 
L 3138 2547 
z
" transform="scale(0.015625)"/>
       <path id="DejaVuSans-Bold-73" d="M 3272 3391 
L 3272 2541 
Q 2913 2691 2578 2766 
Q 2244 2841 1947 2841 
Q 1628 2841 1473 2761 
Q 1319 2681 1319 2516 
Q 1319 2381 1436 2309 
Q 1553 2238 1856 2203 
L 2053 2175 
Q 2913 2066 3209 1816 
Q 3506 1566 3506 1031 
Q 3506 472 3093 190 
Q 2681 -91 1863 -91 
Q 1516 -91 1145 -36 
Q 775 19 384 128 
L 384 978 
Q 719 816 1070 734 
Q 1422 653 1784 653 
Q 2113 653 2278 743 
Q 2444 834 2444 1013 
Q 2444 1163 2330 1236 
Q 2216 1309 1875 1350 
L 1678 1375 
Q 931 1469 631 1722 
Q 331 1975 331 2491 
Q 331 3047 712 3315 
Q 1094 3584 1881 3584 
Q 2191 3584 2531 3537 
Q 2872 3491 3272 3391 
z
" transform="scale(0.015625)"/>
       <path id="DejaVuSans-Bold-69" d="M 538 3500 
L 1656 3500 
L 1656 0 
L 538 0 
L 538 3500 
z
M 538 4863 
L 1656 4863 
L 1656 3950 
L 538 3950 
L 538 4863 
z
" transform="scale(0.015625)"/>
       <path id="DejaVuSans-Bold-74" d="M 1759 4494 
L 1759 3500 
L 2913 3500 
L 2913 2700 
L 1759 2700 
L 1759 1216 
Q 1759 972 1856 886 
Q 1953 800 2241 800 
L 2816 800 
L 2816 0 
L 1856 0 
Q 1194 0 917 276 
Q 641 553 641 1216 
L 641 2700 
L 84 2700 
L 84 3500 
L 641 3500 
L 641 4494 
L 1759 4494 
z
" transform="scale(0.015625)"/>
       <path id="DejaVuSans-Bold-79" d="M 78 3500 
L 1197 3500 
L 2138 1125 
L 2938 3500 
L 4056 3500 
L 2584 -331 
Q 2363 -916 2067 -1148 
Q 1772 -1381 1288 -1381 
L 641 -1381 
L 641 -647 
L 991 -647 
Q 1275 -647 1404 -556 
Q 1534 -466 1606 -231 
L 1638 -134 
L 78 3500 
z
" transform="scale(0.015625)"/>
       <path id="DejaVuSans-Bold-20" transform="scale(0.015625)"/>
       <path id="DejaVuSans-Bold-28" d="M 2413 -844 
L 1484 -844 
Q 1006 -72 778 623 
Q 550 1319 550 2003 
Q 550 2688 779 3389 
Q 1009 4091 1484 4856 
L 2413 4856 
Q 2013 4116 1813 3408 
Q 1613 2700 1613 2009 
Q 1613 1319 1811 609 
Q 2009 -100 2413 -844 
z
" transform="scale(0.015625)"/>
       <path id="DejaVuSans-Bold-25" d="M 4959 1925 
Q 4738 1925 4616 1733 
Q 4494 1541 4494 1184 
Q 4494 825 4614 633 
Q 4734 441 4959 441 
Q 5184 441 5303 633 
Q 5422 825 5422 1184 
Q 5422 1541 5301 1733 
Q 5181 1925 4959 1925 
z
M 4959 2450 
Q 5541 2450 5875 2112 
Q 6209 1775 6209 1184 
Q 6209 594 5875 251 
Q 5541 -91 4959 -91 
Q 4378 -91 4042 251 
Q 3706 594 3706 1184 
Q 3706 1772 4042 2111 
Q 4378 2450 4959 2450 
z
M 2094 -91 
L 1403 -91 
L 4319 4750 
L 5013 4750 
L 2094 -91 
z
M 1453 4750 
Q 2034 4750 2367 4411 
Q 2700 4072 2700 3481 
Q 2700 2891 2367 2550 
Q 2034 2209 1453 2209 
Q 872 2209 539 2550 
Q 206 2891 206 3481 
Q 206 4072 539 4411 
Q 872 4750 1453 4750 
z
M 1453 4225 
Q 1228 4225 1106 4031 
Q 984 3838 984 3481 
Q 984 3122 1106 2926 
Q 1228 2731 1453 2731 
Q 1678 2731 1798 2926 
Q 1919 3122 1919 3481 
Q 1919 3838 1797 4031 
Q 1675 4225 1453 4225 
z
" transform="scale(0.015625)"/>
       <path id="DejaVuSans-Bold-29" d="M 513 -844 
Q 913 -100 1113 609 
Q 1313 1319 1313 2009 
Q 1313 2700 1113 3408 
Q 913 4116 513 4856 
L 1441 4856 
Q 1916 4091 2145 3389 
Q 2375 2688 2375 2003 
Q 2375 1319 2147 623 
Q 1919 -72 1441 -844 
L 513 -844 
z
" transform="scale(0.015625)"/>
      </defs>
      <use xlink:href="#DejaVuSans-Bold-53"/>
      <use xlink:href="#DejaVuSans-Bold-70" transform="translate(72.021484 0)"/>
      <use xlink:href="#DejaVuSans-Bold-61" transform="translate(143.603516 0)"/>
      <use xlink:href="#DejaVuSans-Bold-72" transform="translate(211.083984 0)"/>
      <use xlink:href="#DejaVuSans-Bold-73" transform="translate(260.400391 0)"/>
      <use xlink:href="#DejaVuSans-Bold-69" transform="translate(319.921875 0)"/>
      <use xlink:href="#DejaVuSans-Bold-74" transform="translate(354.199219 0)"/>
      <use xlink:href="#DejaVuSans-Bold-79" transform="translate(402.001953 0)"/>
      <use xlink:href="#DejaVuSans-Bold-20" transform="translate(467.1875 0)"/>
      <use xlink:href="#DejaVuSans-Bold-28" transform="translate(502.001953 0)"/>
      <use xlink:href="#DejaVuSans-Bold-25" transform="translate(547.705078 0)"/>
      <use xlink:href="#DejaVuSans-Bold-29" transform="translate(647.900391 0)"/>
     </g>
    </g>
   </g>
   <g id="matplotlib.axis_2">
    <g id="ytick_1">
     <g id="line2d_12">
      <path d="M 62.396875 439.5145 
L 705.966875 439.5145 
" clip-path="url(#p1532b2fd82)" style="fill: none; stroke-dasharray: 5.55,2.4; stroke-dashoffset: 0; stroke: #b0b0b0; stroke-opacity: 0.3; stroke-width: 1.5"/>
     </g>
     <g id="line2d_13">
      <defs>
       <path id="m45d2ad8fc6" d="M 0 0 
L -3.5 0 
" style="stroke: #000000; stroke-width: 0.8"/>
      </defs>
      <g>
       <use xlink:href="#m45d2ad8fc6" x="62.396875" y="439.5145" style="stroke: #000000; stroke-width: 0.8"/>
      </g>
     </g>
     <g id="text_7">
      <!-- 0 -->
      <g transform="translate(43.944375 446.353094) scale(0.18 -0.18)">
       <use xlink:href="#DejaVuSans-30"/>
      </g>
     </g>
    </g>
    <g id="ytick_2">
     <g id="line2d_14">
      <path d="M 62.396875 391.743481 
L 705.966875 391.743481 
" clip-path="url(#p1532b2fd82)" style="fill: none; stroke-dasharray: 5.55,2.4; stroke-dashoffset: 0; stroke: #b0b0b0; stroke-opacity: 0.3; stroke-width: 1.5"/>
     </g>
     <g id="line2d_15">
      <g>
       <use xlink:href="#m45d2ad8fc6" x="62.396875" y="391.743481" style="stroke: #000000; stroke-width: 0.8"/>
      </g>
     </g>
     <g id="text_8">
      <!-- 5 -->
      <g transform="translate(43.944375 398.582075) scale(0.18 -0.18)">
       <use xlink:href="#DejaVuSans-35"/>
      </g>
     </g>
    </g>
    <g id="ytick_3">
     <g id="line2d_16">
      <path d="M 62.396875 343.972463 
L 705.966875 343.972463 
" clip-path="url(#p1532b2fd82)" style="fill: none; stroke-dasharray: 5.55,2.4; stroke-dashoffset: 0; stroke: #b0b0b0; stroke-opacity: 0.3; stroke-width: 1.5"/>
     </g>
     <g id="line2d_17">
      <g>
       <use xlink:href="#m45d2ad8fc6" x="62.396875" y="343.972463" style="stroke: #000000; stroke-width: 0.8"/>
      </g>
     </g>
     <g id="text_9">
      <!-- 10 -->
      <g transform="translate(32.491875 350.811056) scale(0.18 -0.18)">
       <defs>
        <path id="DejaVuSans-31" d="M 794 531 
L 1825 531 
L 1825 4091 
L 703 3866 
L 703 4441 
L 1819 4666 
L 2450 4666 
L 2450 531 
L 3481 531 
L 3481 0 
L 794 0 
L 794 531 
z
" transform="scale(0.015625)"/>
       </defs>
       <use xlink:href="#DejaVuSans-31"/>
       <use xlink:href="#DejaVuSans-30" transform="translate(63.623047 0)"/>
      </g>
     </g>
    </g>
    <g id="ytick_4">
     <g id="line2d_18">
      <path d="M 62.396875 296.201444 
L 705.966875 296.201444 
" clip-path="url(#p1532b2fd82)" style="fill: none; stroke-dasharray: 5.55,2.4; stroke-dashoffset: 0; stroke: #b0b0b0; stroke-opacity: 0.3; stroke-width: 1.5"/>
     </g>
     <g id="line2d_19">
      <g>
       <use xlink:href="#m45d2ad8fc6" x="62.396875" y="296.201444" style="stroke: #000000; stroke-width: 0.8"/>
      </g>
     </g>
     <g id="text_10">
      <!-- 15 -->
      <g transform="translate(32.491875 303.040038) scale(0.18 -0.18)">
       <use xlink:href="#DejaVuSans-31"/>
       <use xlink:href="#DejaVuSans-35" transform="translate(63.623047 0)"/>
      </g>
     </g>
    </g>
    <g id="ytick_5">
     <g id="line2d_20">
      <path d="M 62.396875 248.430425 
L 705.966875 248.430425 
" clip-path="url(#p1532b2fd82)" style="fill: none; stroke-dasharray: 5.55,2.4; stroke-dashoffset: 0; stroke: #b0b0b0; stroke-opacity: 0.3; stroke-width: 1.5"/>
     </g>
     <g id="line2d_21">
      <g>
       <use xlink:href="#m45d2ad8fc6" x="62.396875" y="248.430425" style="stroke: #000000; stroke-width: 0.8"/>
      </g>
     </g>
     <g id="text_11">
      <!-- 20 -->
      <g transform="translate(32.491875 255.269019) scale(0.18 -0.18)">
       <defs>
        <path id="DejaVuSans-32" d="M 1228 531 
L 3431 531 
L 3431 0 
L 469 0 
L 469 531 
Q 828 903 1448 1529 
Q 2069 2156 2228 2338 
Q 2531 2678 2651 2914 
Q 2772 3150 2772 3378 
Q 2772 3750 2511 3984 
Q 2250 4219 1831 4219 
Q 1534 4219 1204 4116 
Q 875 4013 500 3803 
L 500 4441 
Q 881 4594 1212 4672 
Q 1544 4750 1819 4750 
Q 2544 4750 2975 4387 
Q 3406 4025 3406 3419 
Q 3406 3131 3298 2873 
Q 3191 2616 2906 2266 
Q 2828 2175 2409 1742 
Q 1991 1309 1228 531 
z
" transform="scale(0.015625)"/>
       </defs>
       <use xlink:href="#DejaVuSans-32"/>
       <use xlink:href="#DejaVuSans-30" transform="translate(63.623047 0)"/>
      </g>
     </g>
    </g>
    <g id="ytick_6">
     <g id="line2d_22">
      <path d="M 62.396875 200.659406 
L 705.966875 200.659406 
" clip-path="url(#p1532b2fd82)" style="fill: none; stroke-dasharray: 5.55,2.4; stroke-dashoffset: 0; stroke: #b0b0b0; stroke-opacity: 0.3; stroke-width: 1.5"/>
     </g>
     <g id="line2d_23">
      <g>
       <use xlink:href="#m45d2ad8fc6" x="62.396875" y="200.659406" style="stroke: #000000; stroke-width: 0.8"/>
      </g>
     </g>
     <g id="text_12">
      <!-- 25 -->
      <g transform="translate(32.491875 207.498) scale(0.18 -0.18)">
       <use xlink:href="#DejaVuSans-32"/>
       <use xlink:href="#DejaVuSans-35" transform="translate(63.623047 0)"/>
      </g>
     </g>
    </g>
    <g id="ytick_7">
     <g id="line2d_24">
      <path d="M 62.396875 152.888388 
L 705.966875 152.888388 
" clip-path="url(#p1532b2fd82)" style="fill: none; stroke-dasharray: 5.55,2.4; stroke-dashoffset: 0; stroke: #b0b0b0; stroke-opacity: 0.3; stroke-width: 1.5"/>
     </g>
     <g id="line2d_25">
      <g>
       <use xlink:href="#m45d2ad8fc6" x="62.396875" y="152.888388" style="stroke: #000000; stroke-width: 0.8"/>
      </g>
     </g>
     <g id="text_13">
      <!-- 30 -->
      <g transform="translate(32.491875 159.726981) scale(0.18 -0.18)">
       <defs>
        <path id="DejaVuSans-33" d="M 2597 2516 
Q 3050 2419 3304 2112 
Q 3559 1806 3559 1356 
Q 3559 666 3084 287 
Q 2609 -91 1734 -91 
Q 1441 -91 1130 -33 
Q 819 25 488 141 
L 488 750 
Q 750 597 1062 519 
Q 1375 441 1716 441 
Q 2309 441 2620 675 
Q 2931 909 2931 1356 
Q 2931 1769 2642 2001 
Q 2353 2234 1838 2234 
L 1294 2234 
L 1294 2753 
L 1863 2753 
Q 2328 2753 2575 2939 
Q 2822 3125 2822 3475 
Q 2822 3834 2567 4026 
Q 2313 4219 1838 4219 
Q 1578 4219 1281 4162 
Q 984 4106 628 3988 
L 628 4550 
Q 988 4650 1302 4700 
Q 1616 4750 1894 4750 
Q 2613 4750 3031 4423 
Q 3450 4097 3450 3541 
Q 3450 3153 3228 2886 
Q 3006 2619 2597 2516 
z
" transform="scale(0.015625)"/>
       </defs>
       <use xlink:href="#DejaVuSans-33"/>
       <use xlink:href="#DejaVuSans-30" transform="translate(63.623047 0)"/>
      </g>
     </g>
    </g>
    <g id="ytick_8">
     <g id="line2d_26">
      <path d="M 62.396875 105.117369 
L 705.966875 105.117369 
" clip-path="url(#p1532b2fd82)" style="fill: none; stroke-dasharray: 5.55,2.4; stroke-dashoffset: 0; stroke: #b0b0b0; stroke-opacity: 0.3; stroke-width: 1.5"/>
     </g>
     <g id="line2d_27">
      <g>
       <use xlink:href="#m45d2ad8fc6" x="62.396875" y="105.117369" style="stroke: #000000; stroke-width: 0.8"/>
      </g>
     </g>
     <g id="text_14">
      <!-- 35 -->
      <g transform="translate(32.491875 111.955963) scale(0.18 -0.18)">
       <use xlink:href="#DejaVuSans-33"/>
       <use xlink:href="#DejaVuSans-35" transform="translate(63.623047 0)"/>
      </g>
     </g>
    </g>
    <g id="text_15">
     <!-- Compression Ratio -->
     <g transform="translate(23.916563 372.419156) rotate(-90) scale(0.22 -0.22)">
      <defs>
       <path id="DejaVuSans-Bold-43" d="M 4288 256 
Q 3956 84 3597 -3 
Q 3238 -91 2847 -91 
Q 1681 -91 1000 561 
Q 319 1213 319 2328 
Q 319 3447 1000 4098 
Q 1681 4750 2847 4750 
Q 3238 4750 3597 4662 
Q 3956 4575 4288 4403 
L 4288 3438 
Q 3953 3666 3628 3772 
Q 3303 3878 2944 3878 
Q 2300 3878 1931 3465 
Q 1563 3053 1563 2328 
Q 1563 1606 1931 1193 
Q 2300 781 2944 781 
Q 3303 781 3628 887 
Q 3953 994 4288 1222 
L 4288 256 
z
" transform="scale(0.015625)"/>
       <path id="DejaVuSans-Bold-6f" d="M 2203 2784 
Q 1831 2784 1636 2517 
Q 1441 2250 1441 1747 
Q 1441 1244 1636 976 
Q 1831 709 2203 709 
Q 2569 709 2762 976 
Q 2956 1244 2956 1747 
Q 2956 2250 2762 2517 
Q 2569 2784 2203 2784 
z
M 2203 3584 
Q 3106 3584 3614 3096 
Q 4122 2609 4122 1747 
Q 4122 884 3614 396 
Q 3106 -91 2203 -91 
Q 1297 -91 786 396 
Q 275 884 275 1747 
Q 275 2609 786 3096 
Q 1297 3584 2203 3584 
z
" transform="scale(0.015625)"/>
       <path id="DejaVuSans-Bold-6d" d="M 3781 2919 
Q 3994 3244 4286 3414 
Q 4578 3584 4928 3584 
Q 5531 3584 5847 3212 
Q 6163 2841 6163 2131 
L 6163 0 
L 5038 0 
L 5038 1825 
Q 5041 1866 5042 1909 
Q 5044 1953 5044 2034 
Q 5044 2406 4934 2573 
Q 4825 2741 4581 2741 
Q 4263 2741 4089 2478 
Q 3916 2216 3909 1719 
L 3909 0 
L 2784 0 
L 2784 1825 
Q 2784 2406 2684 2573 
Q 2584 2741 2328 2741 
Q 2006 2741 1831 2477 
Q 1656 2213 1656 1722 
L 1656 0 
L 531 0 
L 531 3500 
L 1656 3500 
L 1656 2988 
Q 1863 3284 2130 3434 
Q 2397 3584 2719 3584 
Q 3081 3584 3359 3409 
Q 3638 3234 3781 2919 
z
" transform="scale(0.015625)"/>
       <path id="DejaVuSans-Bold-65" d="M 4031 1759 
L 4031 1441 
L 1416 1441 
Q 1456 1047 1700 850 
Q 1944 653 2381 653 
Q 2734 653 3104 758 
Q 3475 863 3866 1075 
L 3866 213 
Q 3469 63 3072 -14 
Q 2675 -91 2278 -91 
Q 1328 -91 801 392 
Q 275 875 275 1747 
Q 275 2603 792 3093 
Q 1309 3584 2216 3584 
Q 3041 3584 3536 3087 
Q 4031 2591 4031 1759 
z
M 2881 2131 
Q 2881 2450 2695 2645 
Q 2509 2841 2209 2841 
Q 1884 2841 1681 2658 
Q 1478 2475 1428 2131 
L 2881 2131 
z
" transform="scale(0.015625)"/>
       <path id="DejaVuSans-Bold-6e" d="M 4056 2131 
L 4056 0 
L 2931 0 
L 2931 347 
L 2931 1631 
Q 2931 2084 2911 2256 
Q 2891 2428 2841 2509 
Q 2775 2619 2662 2680 
Q 2550 2741 2406 2741 
Q 2056 2741 1856 2470 
Q 1656 2200 1656 1722 
L 1656 0 
L 538 0 
L 538 3500 
L 1656 3500 
L 1656 2988 
Q 1909 3294 2193 3439 
Q 2478 3584 2822 3584 
Q 3428 3584 3742 3212 
Q 4056 2841 4056 2131 
z
" transform="scale(0.015625)"/>
       <path id="DejaVuSans-Bold-52" d="M 2297 2597 
Q 2675 2597 2839 2737 
Q 3003 2878 3003 3200 
Q 3003 3519 2839 3656 
Q 2675 3794 2297 3794 
L 1791 3794 
L 1791 2597 
L 2297 2597 
z
M 1791 1766 
L 1791 0 
L 588 0 
L 588 4666 
L 2425 4666 
Q 3347 4666 3776 4356 
Q 4206 4047 4206 3378 
Q 4206 2916 3982 2619 
Q 3759 2322 3309 2181 
Q 3556 2125 3751 1926 
Q 3947 1728 4147 1325 
L 4800 0 
L 3519 0 
L 2950 1159 
Q 2778 1509 2601 1637 
Q 2425 1766 2131 1766 
L 1791 1766 
z
" transform="scale(0.015625)"/>
      </defs>
      <use xlink:href="#DejaVuSans-Bold-43"/>
      <use xlink:href="#DejaVuSans-Bold-6f" transform="translate(73.388672 0)"/>
      <use xlink:href="#DejaVuSans-Bold-6d" transform="translate(142.089844 0)"/>
      <use xlink:href="#DejaVuSans-Bold-70" transform="translate(246.289062 0)"/>
      <use xlink:href="#DejaVuSans-Bold-72" transform="translate(317.871094 0)"/>
      <use xlink:href="#DejaVuSans-Bold-65" transform="translate(367.1875 0)"/>
      <use xlink:href="#DejaVuSans-Bold-73" transform="translate(435.009766 0)"/>
      <use xlink:href="#DejaVuSans-Bold-73" transform="translate(494.53125 0)"/>
      <use xlink:href="#DejaVuSans-Bold-69" transform="translate(554.052734 0)"/>
      <use xlink:href="#DejaVuSans-Bold-6f" transform="translate(588.330078 0)"/>
      <use xlink:href="#DejaVuSans-Bold-6e" transform="translate(657.03125 0)"/>
      <use xlink:href="#DejaVuSans-Bold-20" transform="translate(728.222656 0)"/>
      <use xlink:href="#DejaVuSans-Bold-52" transform="translate(763.037109 0)"/>
      <use xlink:href="#DejaVuSans-Bold-61" transform="translate(840.039062 0)"/>
      <use xlink:href="#DejaVuSans-Bold-74" transform="translate(907.519531 0)"/>
      <use xlink:href="#DejaVuSans-Bold-69" transform="translate(955.322266 0)"/>
      <use xlink:href="#DejaVuSans-Bold-6f" transform="translate(989.599609 0)"/>
     </g>
    </g>
   </g>
   <g id="line2d_28">
    <path d="M 119.953914 388.094733 
L 125.591328 387.862726 
L 131.228741 387.61838 
L 136.866154 387.361155 
L 142.503567 387.09049 
L 148.14098 386.805809 
L 153.778393 386.506514 
L 159.415807 386.191986 
L 165.05322 385.861587 
L 170.690633 385.514658 
L 176.328046 385.150518 
L 181.965459 384.768462 
L 187.602872 384.367765 
L 193.240286 383.947678 
L 198.877699 383.507427 
L 204.515112 383.046214 
L 210.152525 382.563219 
L 215.789938 382.057591 
L 221.427351 381.528459 
L 227.064765 380.97492 
L 232.702178 380.396048 
L 238.339591 379.790885 
L 243.977004 379.158449 
L 249.614417 378.497726 
L 255.251831 377.807673 
L 260.889244 377.087215 
L 266.526657 376.33525 
L 272.16407 375.55064 
L 277.801483 374.732216 
L 283.438896 373.878778 
L 289.07631 372.989089 
L 294.713723 372.06188 
L 300.351136 371.095846 
L 305.988549 370.089645 
L 311.625962 369.0419 
L 317.263375 367.951196 
L 322.900789 366.816081 
L 328.538202 365.635061 
L 334.175615 364.406606 
L 339.813028 363.129144 
L 345.450441 361.801061 
L 351.087854 360.420703 
L 356.725268 358.986371 
L 362.362681 357.496324 
L 368.000094 355.948775 
L 373.637507 354.341894 
L 379.27492 352.673804 
L 384.912333 350.942579 
L 390.549747 349.146247 
L 396.18716 347.282788 
L 401.824573 345.35013 
L 407.461986 343.346153 
L 413.099399 341.268684 
L 418.736812 339.115498 
L 424.374226 336.884316 
L 430.011639 334.572806 
L 435.649052 332.178581 
L 441.286465 329.699196 
L 446.923878 327.13215 
L 452.561292 324.474884 
L 458.198705 321.724779 
L 463.836118 318.879158 
L 469.473531 315.935281 
L 475.110944 312.890345 
L 480.748357 309.741485 
L 486.385771 306.485773 
L 492.023184 303.120213 
L 497.660597 299.641745 
L 503.29801 296.047239 
L 508.935423 292.333498 
L 514.572836 288.497256 
L 520.21025 284.535173 
L 525.847663 280.443841 
L 531.485076 276.219775 
L 537.122489 271.859418 
L 542.759902 267.359138 
L 548.397315 262.715225 
L 554.034729 257.923891 
L 559.672142 252.981269 
L 565.309555 247.883413 
L 570.946968 242.626294 
L 576.584381 237.205801 
L 582.221794 231.617738 
L 587.859208 225.857824 
L 593.496621 219.921693 
L 599.134034 213.804889 
L 604.771447 207.502868 
L 610.40886 201.010994 
L 616.046273 194.324542 
L 621.683687 187.43869 
L 627.3211 180.348525 
L 632.958513 173.049035 
L 638.595926 165.535113 
L 644.233339 157.801552 
L 649.870753 149.843045 
L 655.508166 141.654183 
L 661.145579 133.229456 
L 666.782992 124.563248 
L 672.420405 115.649836 
L 678.057818 106.483391 
" clip-path="url(#p1532b2fd82)" style="fill: none; stroke: #ff0000; stroke-width: 3.5; stroke-linecap: square"/>
   </g>
   <g id="patch_3">
    <path d="M 62.396875 439.5145 
L 62.396875 72.4985 
" style="fill: none; stroke: #000000; stroke-width: 0.8; stroke-linejoin: miter; stroke-linecap: square"/>
   </g>
   <g id="patch_4">
    <path d="M 705.966875 439.5145 
L 705.966875 72.4985 
" style="fill: none; stroke: #000000; stroke-width: 0.8; stroke-linejoin: miter; stroke-linecap: square"/>
   </g>
   <g id="patch_5">
    <path d="M 62.396875 439.5145 
L 705.966875 439.5145 
" style="fill: none; stroke: #000000; stroke-width: 0.8; stroke-linejoin: miter; stroke-linecap: square"/>
   </g>
   <g id="patch_6">
    <path d="M 62.396875 72.4985 
L 705.966875 72.4985 
" style="fill: none; stroke: #000000; stroke-width: 0.8; stroke-linejoin: miter; stroke-linecap: square"/>
   </g>
   <g id="PathCollection_1">
    <defs>
     <path id="m9f08f181d4" d="M 0 10 
C 2.652031 10 5.195799 8.946337 7.071068 7.071068 
C 8.946337 5.195799 10 2.652031 10 0 
C 10 -2.652031 8.946337 -5.195799 7.071068 -7.071068 
C 5.195799 -8.946337 2.652031 -10 0 -10 
C -2.652031 -10 -5.195799 -8.946337 -7.071068 -7.071068 
C -8.946337 -5.195799 -10 -2.652031 -10 0 
C -10 2.652031 -8.946337 5.195799 -7.071068 7.071068 
C -5.195799 8.946337 -2.652031 10 0 10 
z
" style="stroke: #000000; stroke-opacity: 0.8; stroke-width: 2.5"/>
    </defs>
    <g clip-path="url(#p1532b2fd82)">
     <use xlink:href="#m9f08f181d4" x="119.953914" y="393.314525" style="fill: #440154; fill-opacity: 0.8; stroke: #000000; stroke-opacity: 0.8; stroke-width: 2.5"/>
    </g>
   </g>
   <g id="PathCollection_2">
    <defs>
     <path id="m459347b26c" d="M 0 10 
C 2.652031 10 5.195799 8.946337 7.071068 7.071068 
C 8.946337 5.195799 10 2.652031 10 0 
C 10 -2.652031 8.946337 -5.195799 7.071068 -7.071068 
C 5.195799 -8.946337 2.652031 -10 0 -10 
C -2.652031 -10 -5.195799 -8.946337 -7.071068 -7.071068 
C -8.946337 -5.195799 -10 -2.652031 -10 0 
C -10 2.652031 -8.946337 5.195799 -7.071068 7.071068 
C -5.195799 8.946337 -2.652031 10 0 10 
z
" style="stroke: #000000; stroke-opacity: 0.8; stroke-width: 2.5"/>
    </defs>
    <g clip-path="url(#p1532b2fd82)">
     <use xlink:href="#m459347b26c" x="267.180849" y="373.247268" style="fill: #3b528b; fill-opacity: 0.8; stroke: #000000; stroke-opacity: 0.8; stroke-width: 2.5"/>
    </g>
   </g>
   <g id="PathCollection_3">
    <defs>
     <path id="m131f24c5f0" d="M 0 10 
C 2.652031 10 5.195799 8.946337 7.071068 7.071068 
C 8.946337 5.195799 10 2.652031 10 0 
C 10 -2.652031 8.946337 -5.195799 7.071068 -7.071068 
C 5.195799 -8.946337 2.652031 -10 0 -10 
C -2.652031 -10 -5.195799 -8.946337 -7.071068 -7.071068 
C -8.946337 -5.195799 -10 -2.652031 -10 0 
C -10 2.652031 -8.946337 5.195799 -7.071068 7.071068 
C -5.195799 8.946337 -2.652031 10 0 10 
z
" style="stroke: #000000; stroke-opacity: 0.8; stroke-width: 2.5"/>
    </defs>
    <g clip-path="url(#p1532b2fd82)">
     <use xlink:href="#m131f24c5f0" x="395.652867" y="331.754476" style="fill: #21918c; fill-opacity: 0.8; stroke: #000000; stroke-opacity: 0.8; stroke-width: 2.5"/>
    </g>
   </g>
   <g id="PathCollection_4">
    <defs>
     <path id="m3ddc0d997f" d="M 0 10 
C 2.652031 10 5.195799 8.946337 7.071068 7.071068 
C 8.946337 5.195799 10 2.652031 10 0 
C 10 -2.652031 8.946337 -5.195799 7.071068 -7.071068 
C 5.195799 -8.946337 2.652031 -10 0 -10 
C -2.652031 -10 -5.195799 -8.946337 -7.071068 -7.071068 
C -8.946337 -5.195799 -10 -2.652031 -10 0 
C -10 2.652031 -8.946337 5.195799 -7.071068 7.071068 
C -5.195799 8.946337 -2.652031 10 0 10 
z
" style="stroke: #000000; stroke-opacity: 0.8; stroke-width: 2.5"/>
    </defs>
    <g clip-path="url(#p1532b2fd82)">
     <use xlink:href="#m3ddc0d997f" x="445.131815" y="342.064336" style="fill: #5ec962; fill-opacity: 0.8; stroke: #000000; stroke-opacity: 0.8; stroke-width: 2.5"/>
    </g>
   </g>
   <g id="PathCollection_5">
    <defs>
     <path id="med4f26bc8b" d="M 0 10 
C 2.652031 10 5.195799 8.946337 7.071068 7.071068 
C 8.946337 5.195799 10 2.652031 10 0 
C 10 -2.652031 8.946337 -5.195799 7.071068 -7.071068 
C 5.195799 -8.946337 2.652031 -10 0 -10 
C -2.652031 -10 -5.195799 -8.946337 -7.071068 -7.071068 
C -8.946337 -5.195799 -10 -2.652031 -10 0 
C -10 2.652031 -8.946337 5.195799 -7.071068 7.071068 
C -5.195799 8.946337 -2.652031 10 0 10 
z
" style="stroke: #000000; stroke-opacity: 0.8; stroke-width: 2.5"/>
    </defs>
    <g clip-path="url(#p1532b2fd82)">
     <use xlink:href="#med4f26bc8b" x="678.057818" y="105.863591" style="fill: #fde725; fill-opacity: 0.8; stroke: #000000; stroke-opacity: 0.8; stroke-width: 2.5"/>
    </g>
   </g>
   <g id="text_16">
    <!-- Compression Ratio vs Data Sparsity -->
    <g transform="translate(141.735 25.43625) scale(0.24 -0.24)">
     <defs>
      <path id="DejaVuSans-Bold-76" d="M 97 3500 
L 1216 3500 
L 2088 1081 
L 2956 3500 
L 4078 3500 
L 2700 0 
L 1472 0 
L 97 3500 
z
" transform="scale(0.015625)"/>
      <path id="DejaVuSans-Bold-44" d="M 1791 3756 
L 1791 909 
L 2222 909 
Q 2959 909 3348 1275 
Q 3738 1641 3738 2338 
Q 3738 3031 3350 3393 
Q 2963 3756 2222 3756 
L 1791 3756 
z
M 588 4666 
L 1856 4666 
Q 2919 4666 3439 4514 
Q 3959 4363 4331 4000 
Q 4659 3684 4818 3271 
Q 4978 2859 4978 2338 
Q 4978 1809 4818 1395 
Q 4659 981 4331 666 
Q 3956 303 3431 151 
Q 2906 0 1856 0 
L 588 0 
L 588 4666 
z
" transform="scale(0.015625)"/>
     </defs>
     <use xlink:href="#DejaVuSans-Bold-43"/>
     <use xlink:href="#DejaVuSans-Bold-6f" transform="translate(73.388672 0)"/>
     <use xlink:href="#DejaVuSans-Bold-6d" transform="translate(142.089844 0)"/>
     <use xlink:href="#DejaVuSans-Bold-70" transform="translate(246.289062 0)"/>
     <use xlink:href="#DejaVuSans-Bold-72" transform="translate(317.871094 0)"/>
     <use xlink:href="#DejaVuSans-Bold-65" transform="translate(367.1875 0)"/>
     <use xlink:href="#DejaVuSans-Bold-73" transform="translate(435.009766 0)"/>
     <use xlink:href="#DejaVuSans-Bold-73" transform="translate(494.53125 0)"/>
     <use xlink:href="#DejaVuSans-Bold-69" transform="translate(554.052734 0)"/>
     <use xlink:href="#DejaVuSans-Bold-6f" transform="translate(588.330078 0)"/>
     <use xlink:href="#DejaVuSans-Bold-6e" transform="translate(657.03125 0)"/>
     <use xlink:href="#DejaVuSans-Bold-20" transform="translate(728.222656 0)"/>
     <use xlink:href="#DejaVuSans-Bold-52" transform="translate(763.037109 0)"/>
     <use xlink:href="#DejaVuSans-Bold-61" transform="translate(840.039062 0)"/>
     <use xlink:href="#DejaVuSans-Bold-74" transform="translate(907.519531 0)"/>
     <use xlink:href="#DejaVuSans-Bold-69" transform="translate(955.322266 0)"/>
     <use xlink:href="#DejaVuSans-Bold-6f" transform="translate(989.599609 0)"/>
     <use xlink:href="#DejaVuSans-Bold-20" transform="translate(1058.300781 0)"/>
     <use xlink:href="#DejaVuSans-Bold-76" transform="translate(1093.115234 0)"/>
     <use xlink:href="#DejaVuSans-Bold-73" transform="translate(1158.300781 0)"/>
     <use xlink:href="#DejaVuSans-Bold-20" transform="translate(1217.822266 0)"/>
     <use xlink:href="#DejaVuSans-Bold-44" transform="translate(1252.636719 0)"/>
     <use xlink:href="#DejaVuSans-Bold-61" transform="translate(1335.644531 0)"/>
     <use xlink:href="#DejaVuSans-Bold-74" transform="translate(1403.125 0)"/>
     <use xlink:href="#DejaVuSans-Bold-61" transform="translate(1450.927734 0)"/>
     <use xlink:href="#DejaVuSans-Bold-20" transform="translate(1518.408203 0)"/>
     <use xlink:href="#DejaVuSans-Bold-53" transform="translate(1553.222656 0)"/>
     <use xlink:href="#DejaVuSans-Bold-70" transform="translate(1625.244141 0)"/>
     <use xlink:href="#DejaVuSans-Bold-61" transform="translate(1696.826172 0)"/>
     <use xlink:href="#DejaVuSans-Bold-72" transform="translate(1764.306641 0)"/>
     <use xlink:href="#DejaVuSans-Bold-73" transform="translate(1813.623047 0)"/>
     <use xlink:href="#DejaVuSans-Bold-69" transform="translate(1873.144531 0)"/>
     <use xlink:href="#DejaVuSans-Bold-74" transform="translate(1907.421875 0)"/>
     <use xlink:href="#DejaVuSans-Bold-79" transform="translate(1955.224609 0)"/>
    </g>
    <!-- (Best Implementation per Dataset) -->
    <g transform="translate(147.493125 52.4985) scale(0.24 -0.24)">
     <defs>
      <path id="DejaVuSans-Bold-42" d="M 2456 2859 
Q 2741 2859 2887 2984 
Q 3034 3109 3034 3353 
Q 3034 3594 2887 3720 
Q 2741 3847 2456 3847 
L 1791 3847 
L 1791 2859 
L 2456 2859 
z
M 2497 819 
Q 2859 819 3042 972 
Q 3225 1125 3225 1434 
Q 3225 1738 3044 1889 
Q 2863 2041 2497 2041 
L 1791 2041 
L 1791 819 
L 2497 819 
z
M 3616 2497 
Q 4003 2384 4215 2081 
Q 4428 1778 4428 1338 
Q 4428 663 3972 331 
Q 3516 0 2584 0 
L 588 0 
L 588 4666 
L 2394 4666 
Q 3366 4666 3802 4372 
Q 4238 4078 4238 3431 
Q 4238 3091 4078 2852 
Q 3919 2613 3616 2497 
z
" transform="scale(0.015625)"/>
      <path id="DejaVuSans-Bold-49" d="M 588 4666 
L 1791 4666 
L 1791 0 
L 588 0 
L 588 4666 
z
" transform="scale(0.015625)"/>
      <path id="DejaVuSans-Bold-6c" d="M 538 4863 
L 1656 4863 
L 1656 0 
L 538 0 
L 538 4863 
z
" transform="scale(0.015625)"/>
     </defs>
     <use xlink:href="#DejaVuSans-Bold-28"/>
     <use xlink:href="#DejaVuSans-Bold-42" transform="translate(45.703125 0)"/>
     <use xlink:href="#DejaVuSans-Bold-65" transform="translate(121.923828 0)"/>
     <use xlink:href="#DejaVuSans-Bold-73" transform="translate(189.746094 0)"/>
     <use xlink:href="#DejaVuSans-Bold-74" transform="translate(249.267578 0)"/>
     <use xlink:href="#DejaVuSans-Bold-20" transform="translate(297.070312 0)"/>
     <use xlink:href="#DejaVuSans-Bold-49" transform="translate(331.884766 0)"/>
     <use xlink:href="#DejaVuSans-Bold-6d" transform="translate(369.091797 0)"/>
     <use xlink:href="#DejaVuSans-Bold-70" transform="translate(473.291016 0)"/>
     <use xlink:href="#DejaVuSans-Bold-6c" transform="translate(544.873047 0)"/>
     <use xlink:href="#DejaVuSans-Bold-65" transform="translate(579.150391 0)"/>
     <use xlink:href="#DejaVuSans-Bold-6d" transform="translate(646.972656 0)"/>
     <use xlink:href="#DejaVuSans-Bold-65" transform="translate(751.171875 0)"/>
     <use xlink:href="#DejaVuSans-Bold-6e" transform="translate(818.994141 0)"/>
     <use xlink:href="#DejaVuSans-Bold-74" transform="translate(890.185547 0)"/>
     <use xlink:href="#DejaVuSans-Bold-61" transform="translate(937.988281 0)"/>
     <use xlink:href="#DejaVuSans-Bold-74" transform="translate(1005.46875 0)"/>
     <use xlink:href="#DejaVuSans-Bold-69" transform="translate(1053.271484 0)"/>
     <use xlink:href="#DejaVuSans-Bold-6f" transform="translate(1087.548828 0)"/>
     <use xlink:href="#DejaVuSans-Bold-6e" transform="translate(1156.25 0)"/>
     <use xlink:href="#DejaVuSans-Bold-20" transform="translate(1227.441406 0)"/>
     <use xlink:href="#DejaVuSans-Bold-70" transform="translate(1262.255859 0)"/>
     <use xlink:href="#DejaVuSans-Bold-65" transform="translate(1333.837891 0)"/>
     <use xlink:href="#DejaVuSans-Bold-72" transform="translate(1401.660156 0)"/>
     <use xlink:href="#DejaVuSans-Bold-20" transform="translate(1450.976562 0)"/>
     <use xlink:href="#DejaVuSans-Bold-44" transform="translate(1485.791016 0)"/>
     <use xlink:href="#DejaVuSans-Bold-61" transform="translate(1568.798828 0)"/>
     <use xlink:href="#DejaVuSans-Bold-74" transform="translate(1636.279297 0)"/>
     <use xlink:href="#DejaVuSans-Bold-61" transform="translate(1684.082031 0)"/>
     <use xlink:href="#DejaVuSans-Bold-73" transform="translate(1751.5625 0)"/>
     <use xlink:href="#DejaVuSans-Bold-65" transform="translate(1811.083984 0)"/>
     <use xlink:href="#DejaVuSans-Bold-74" transform="translate(1878.90625 0)"/>
     <use xlink:href="#DejaVuSans-Bold-29" transform="translate(1926.708984 0)"/>
    </g>
   </g>
   <g id="legend_1">
    <g id="patch_7">
     <path d="M 73.596875 133.5835 
L 518.236875 133.5835 
Q 521.436875 133.5835 521.436875 130.3835 
L 521.436875 83.6985 
Q 521.436875 80.4985 518.236875 80.4985 
L 73.596875 80.4985 
Q 70.396875 80.4985 70.396875 83.6985 
L 70.396875 130.3835 
Q 70.396875 133.5835 73.596875 133.5835 
z
" style="fill: #ffffff; opacity: 0.95; stroke: #000000; stroke-linejoin: miter"/>
    </g>
    <g id="line2d_29">
     <path d="M 76.796875 93.456 
L 92.796875 93.456 
L 108.796875 93.456 
" style="fill: none; stroke-dasharray: 11.1,4.8; stroke-dashoffset: 0; stroke: #000000; stroke-opacity: 0.5; stroke-width: 3"/>
    </g>
    <g id="text_17">
     <!-- Binary-entropy upper bound (sparsity-only) -->
     <g transform="translate(121.596875 99.056) scale(0.16 -0.16)">
      <defs>
       <path id="DejaVuSans-42" d="M 1259 2228 
L 1259 519 
L 2272 519 
Q 2781 519 3026 730 
Q 3272 941 3272 1375 
Q 3272 1813 3026 2020 
Q 2781 2228 2272 2228 
L 1259 2228 
z
M 1259 4147 
L 1259 2741 
L 2194 2741 
Q 2656 2741 2882 2914 
Q 3109 3088 3109 3444 
Q 3109 3797 2882 3972 
Q 2656 4147 2194 4147 
L 1259 4147 
z
M 628 4666 
L 2241 4666 
Q 2963 4666 3353 4366 
Q 3744 4066 3744 3513 
Q 3744 3084 3544 2831 
Q 3344 2578 2956 2516 
Q 3422 2416 3680 2098 
Q 3938 1781 3938 1306 
Q 3938 681 3513 340 
Q 3088 0 2303 0 
L 628 0 
L 628 4666 
z
" transform="scale(0.015625)"/>
       <path id="DejaVuSans-69" d="M 603 3500 
L 1178 3500 
L 1178 0 
L 603 0 
L 603 3500 
z
M 603 4863 
L 1178 4863 
L 1178 4134 
L 603 4134 
L 603 4863 
z
" transform="scale(0.015625)"/>
       <path id="DejaVuSans-6e" d="M 3513 2113 
L 3513 0 
L 2938 0 
L 2938 2094 
Q 2938 2591 2744 2837 
Q 2550 3084 2163 3084 
Q 1697 3084 1428 2787 
Q 1159 2491 1159 1978 
L 1159 0 
L 581 0 
L 581 3500 
L 1159 3500 
L 1159 2956 
Q 1366 3272 1645 3428 
Q 1925 3584 2291 3584 
Q 2894 3584 3203 3211 
Q 3513 2838 3513 2113 
z
" transform="scale(0.015625)"/>
       <path id="DejaVuSans-61" d="M 2194 1759 
Q 1497 1759 1228 1600 
Q 959 1441 959 1056 
Q 959 750 1161 570 
Q 1363 391 1709 391 
Q 2188 391 2477 730 
Q 2766 1069 2766 1631 
L 2766 1759 
L 2194 1759 
z
M 3341 1997 
L 3341 0 
L 2766 0 
L 2766 531 
Q 2569 213 2275 61 
Q 1981 -91 1556 -91 
Q 1019 -91 701 211 
Q 384 513 384 1019 
Q 384 1609 779 1909 
Q 1175 2209 1959 2209 
L 2766 2209 
L 2766 2266 
Q 2766 2663 2505 2880 
Q 2244 3097 1772 3097 
Q 1472 3097 1187 3025 
Q 903 2953 641 2809 
L 641 3341 
Q 956 3463 1253 3523 
Q 1550 3584 1831 3584 
Q 2591 3584 2966 3190 
Q 3341 2797 3341 1997 
z
" transform="scale(0.015625)"/>
       <path id="DejaVuSans-72" d="M 2631 2963 
Q 2534 3019 2420 3045 
Q 2306 3072 2169 3072 
Q 1681 3072 1420 2755 
Q 1159 2438 1159 1844 
L 1159 0 
L 581 0 
L 581 3500 
L 1159 3500 
L 1159 2956 
Q 1341 3275 1631 3429 
Q 1922 3584 2338 3584 
Q 2397 3584 2469 3576 
Q 2541 3569 2628 3553 
L 2631 2963 
z
" transform="scale(0.015625)"/>
       <path id="DejaVuSans-79" d="M 2059 -325 
Q 1816 -950 1584 -1140 
Q 1353 -1331 966 -1331 
L 506 -1331 
L 506 -850 
L 844 -850 
Q 1081 -850 1212 -737 
Q 1344 -625 1503 -206 
L 1606 56 
L 191 3500 
L 800 3500 
L 1894 763 
L 2988 3500 
L 3597 3500 
L 2059 -325 
z
" transform="scale(0.015625)"/>
       <path id="DejaVuSans-2d" d="M 313 2009 
L 1997 2009 
L 1997 1497 
L 313 1497 
L 313 2009 
z
" transform="scale(0.015625)"/>
       <path id="DejaVuSans-65" d="M 3597 1894 
L 3597 1613 
L 953 1613 
Q 991 1019 1311 708 
Q 1631 397 2203 397 
Q 2534 397 2845 478 
Q 3156 559 3463 722 
L 3463 178 
Q 3153 47 2828 -22 
Q 2503 -91 2169 -91 
Q 1331 -91 842 396 
Q 353 884 353 1716 
Q 353 2575 817 3079 
Q 1281 3584 2069 3584 
Q 2775 3584 3186 3129 
Q 3597 2675 3597 1894 
z
M 3022 2063 
Q 3016 2534 2758 2815 
Q 2500 3097 2075 3097 
Q 1594 3097 1305 2825 
Q 1016 2553 972 2059 
L 3022 2063 
z
" transform="scale(0.015625)"/>
       <path id="DejaVuSans-74" d="M 1172 4494 
L 1172 3500 
L 2356 3500 
L 2356 3053 
L 1172 3053 
L 1172 1153 
Q 1172 725 1289 603 
Q 1406 481 1766 481 
L 2356 481 
L 2356 0 
L 1766 0 
Q 1100 0 847 248 
Q 594 497 594 1153 
L 594 3053 
L 172 3053 
L 172 3500 
L 594 3500 
L 594 4494 
L 1172 4494 
z
" transform="scale(0.015625)"/>
       <path id="DejaVuSans-6f" d="M 1959 3097 
Q 1497 3097 1228 2736 
Q 959 2375 959 1747 
Q 959 1119 1226 758 
Q 1494 397 1959 397 
Q 2419 397 2687 759 
Q 2956 1122 2956 1747 
Q 2956 2369 2687 2733 
Q 2419 3097 1959 3097 
z
M 1959 3584 
Q 2709 3584 3137 3096 
Q 3566 2609 3566 1747 
Q 3566 888 3137 398 
Q 2709 -91 1959 -91 
Q 1206 -91 779 398 
Q 353 888 353 1747 
Q 353 2609 779 3096 
Q 1206 3584 1959 3584 
z
" transform="scale(0.015625)"/>
       <path id="DejaVuSans-70" d="M 1159 525 
L 1159 -1331 
L 581 -1331 
L 581 3500 
L 1159 3500 
L 1159 2969 
Q 1341 3281 1617 3432 
Q 1894 3584 2278 3584 
Q 2916 3584 3314 3078 
Q 3713 2572 3713 1747 
Q 3713 922 3314 415 
Q 2916 -91 2278 -91 
Q 1894 -91 1617 61 
Q 1341 213 1159 525 
z
M 3116 1747 
Q 3116 2381 2855 2742 
Q 2594 3103 2138 3103 
Q 1681 3103 1420 2742 
Q 1159 2381 1159 1747 
Q 1159 1113 1420 752 
Q 1681 391 2138 391 
Q 2594 391 2855 752 
Q 3116 1113 3116 1747 
z
" transform="scale(0.015625)"/>
       <path id="DejaVuSans-20" transform="scale(0.015625)"/>
       <path id="DejaVuSans-75" d="M 544 1381 
L 544 3500 
L 1119 3500 
L 1119 1403 
Q 1119 906 1312 657 
Q 1506 409 1894 409 
Q 2359 409 2629 706 
Q 2900 1003 2900 1516 
L 2900 3500 
L 3475 3500 
L 3475 0 
L 2900 0 
L 2900 538 
Q 2691 219 2414 64 
Q 2138 -91 1772 -91 
Q 1169 -91 856 284 
Q 544 659 544 1381 
z
M 1991 3584 
L 1991 3584 
z
" transform="scale(0.015625)"/>
       <path id="DejaVuSans-62" d="M 3116 1747 
Q 3116 2381 2855 2742 
Q 2594 3103 2138 3103 
Q 1681 3103 1420 2742 
Q 1159 2381 1159 1747 
Q 1159 1113 1420 752 
Q 1681 391 2138 391 
Q 2594 391 2855 752 
Q 3116 1113 3116 1747 
z
M 1159 2969 
Q 1341 3281 1617 3432 
Q 1894 3584 2278 3584 
Q 2916 3584 3314 3078 
Q 3713 2572 3713 1747 
Q 3713 922 3314 415 
Q 2916 -91 2278 -91 
Q 1894 -91 1617 61 
Q 1341 213 1159 525 
L 1159 0 
L 581 0 
L 581 4863 
L 1159 4863 
L 1159 2969 
z
" transform="scale(0.015625)"/>
       <path id="DejaVuSans-64" d="M 2906 2969 
L 2906 4863 
L 3481 4863 
L 3481 0 
L 2906 0 
L 2906 525 
Q 2725 213 2448 61 
Q 2172 -91 1784 -91 
Q 1150 -91 751 415 
Q 353 922 353 1747 
Q 353 2572 751 3078 
Q 1150 3584 1784 3584 
Q 2172 3584 2448 3432 
Q 2725 3281 2906 2969 
z
M 947 1747 
Q 947 1113 1208 752 
Q 1469 391 1925 391 
Q 2381 391 2643 752 
Q 2906 1113 2906 1747 
Q 2906 2381 2643 2742 
Q 2381 3103 1925 3103 
Q 1469 3103 1208 2742 
Q 947 2381 947 1747 
z
" transform="scale(0.015625)"/>
       <path id="DejaVuSans-28" d="M 1984 4856 
Q 1566 4138 1362 3434 
Q 1159 2731 1159 2009 
Q 1159 1288 1364 580 
Q 1569 -128 1984 -844 
L 1484 -844 
Q 1016 -109 783 600 
Q 550 1309 550 2009 
Q 550 2706 781 3412 
Q 1013 4119 1484 4856 
L 1984 4856 
z
" transform="scale(0.015625)"/>
       <path id="DejaVuSans-73" d="M 2834 3397 
L 2834 2853 
Q 2591 2978 2328 3040 
Q 2066 3103 1784 3103 
Q 1356 3103 1142 2972 
Q 928 2841 928 2578 
Q 928 2378 1081 2264 
Q 1234 2150 1697 2047 
L 1894 2003 
Q 2506 1872 2764 1633 
Q 3022 1394 3022 966 
Q 3022 478 2636 193 
Q 2250 -91 1575 -91 
Q 1294 -91 989 -36 
Q 684 19 347 128 
L 347 722 
Q 666 556 975 473 
Q 1284 391 1588 391 
Q 1994 391 2212 530 
Q 2431 669 2431 922 
Q 2431 1156 2273 1281 
Q 2116 1406 1581 1522 
L 1381 1569 
Q 847 1681 609 1914 
Q 372 2147 372 2553 
Q 372 3047 722 3315 
Q 1072 3584 1716 3584 
Q 2034 3584 2315 3537 
Q 2597 3491 2834 3397 
z
" transform="scale(0.015625)"/>
       <path id="DejaVuSans-6c" d="M 603 4863 
L 1178 4863 
L 1178 0 
L 603 0 
L 603 4863 
z
" transform="scale(0.015625)"/>
       <path id="DejaVuSans-29" d="M 513 4856 
L 1013 4856 
Q 1481 4119 1714 3412 
Q 1947 2706 1947 2009 
Q 1947 1309 1714 600 
Q 1481 -109 1013 -844 
L 513 -844 
Q 928 -128 1133 580 
Q 1338 1288 1338 2009 
Q 1338 2731 1133 3434 
Q 928 4138 513 4856 
z
" transform="scale(0.015625)"/>
      </defs>
      <use xlink:href="#DejaVuSans-42"/>
      <use xlink:href="#DejaVuSans-69" transform="translate(68.603516 0)"/>
      <use xlink:href="#DejaVuSans-6e" transform="translate(96.386719 0)"/>
      <use xlink:href="#DejaVuSans-61" transform="translate(159.765625 0)"/>
      <use xlink:href="#DejaVuSans-72" transform="translate(221.044922 0)"/>
      <use xlink:href="#DejaVuSans-79" transform="translate(262.158203 0)"/>
      <use xlink:href="#DejaVuSans-2d" transform="translate(319.587891 0)"/>
      <use xlink:href="#DejaVuSans-65" transform="translate(355.671875 0)"/>
      <use xlink:href="#DejaVuSans-6e" transform="translate(417.195312 0)"/>
      <use xlink:href="#DejaVuSans-74" transform="translate(480.574219 0)"/>
      <use xlink:href="#DejaVuSans-72" transform="translate(519.783203 0)"/>
      <use xlink:href="#DejaVuSans-6f" transform="translate(558.646484 0)"/>
      <use xlink:href="#DejaVuSans-70" transform="translate(619.828125 0)"/>
      <use xlink:href="#DejaVuSans-79" transform="translate(683.304688 0)"/>
      <use xlink:href="#DejaVuSans-20" transform="translate(742.484375 0)"/>
      <use xlink:href="#DejaVuSans-75" transform="translate(774.271484 0)"/>
      <use xlink:href="#DejaVuSans-70" transform="translate(837.650391 0)"/>
      <use xlink:href="#DejaVuSans-70" transform="translate(901.126953 0)"/>
      <use xlink:href="#DejaVuSans-65" transform="translate(964.603516 0)"/>
      <use xlink:href="#DejaVuSans-72" transform="translate(1026.126953 0)"/>
      <use xlink:href="#DejaVuSans-20" transform="translate(1067.240234 0)"/>
      <use xlink:href="#DejaVuSans-62" transform="translate(1099.027344 0)"/>
      <use xlink:href="#DejaVuSans-6f" transform="translate(1162.503906 0)"/>
      <use xlink:href="#DejaVuSans-75" transform="translate(1223.685547 0)"/>
      <use xlink:href="#DejaVuSans-6e" transform="translate(1287.064453 0)"/>
      <use xlink:href="#DejaVuSans-64" transform="translate(1350.443359 0)"/>
      <use xlink:href="#DejaVuSans-20" transform="translate(1413.919922 0)"/>
      <use xlink:href="#DejaVuSans-28" transform="translate(1445.707031 0)"/>
      <use xlink:href="#DejaVuSans-73" transform="translate(1484.720703 0)"/>
      <use xlink:href="#DejaVuSans-70" transform="translate(1536.820312 0)"/>
      <use xlink:href="#DejaVuSans-61" transform="translate(1600.296875 0)"/>
      <use xlink:href="#DejaVuSans-72" transform="translate(1661.576172 0)"/>
      <use xlink:href="#DejaVuSans-73" transform="translate(1702.689453 0)"/>
      <use xlink:href="#DejaVuSans-69" transform="translate(1754.789062 0)"/>
      <use xlink:href="#DejaVuSans-74" transform="translate(1782.572266 0)"/>
      <use xlink:href="#DejaVuSans-79" transform="translate(1821.78125 0)"/>
      <use xlink:href="#DejaVuSans-2d" transform="translate(1879.210938 0)"/>
      <use xlink:href="#DejaVuSans-6f" transform="translate(1917.169922 0)"/>
      <use xlink:href="#DejaVuSans-6e" transform="translate(1978.351562 0)"/>
      <use xlink:href="#DejaVuSans-6c" transform="translate(2041.730469 0)"/>
      <use xlink:href="#DejaVuSans-79" transform="translate(2069.513672 0)"/>
      <use xlink:href="#DejaVuSans-29" transform="translate(2128.693359 0)"/>
     </g>
    </g>
    <g id="line2d_30">
     <path d="M 76.796875 118.256 
L 92.796875 118.256 
L 108.796875 118.256 
" style="fill: none; stroke: #ff0000; stroke-width: 3.5; stroke-linecap: square"/>
    </g>
    <g id="text_18">
     <!-- Power Law Fit: $C = 49.9 \cdot s^{6.91} + 34.9$ (R² = 0.991) -->
     <g transform="translate(121.596875 123.856) scale(0.16 -0.16)">
      <defs>
       <path id="DejaVuSans-50" d="M 1259 4147 
L 1259 2394 
L 2053 2394 
Q 2494 2394 2734 2622 
Q 2975 2850 2975 3272 
Q 2975 3691 2734 3919 
Q 2494 4147 2053 4147 
L 1259 4147 
z
M 628 4666 
L 2053 4666 
Q 2838 4666 3239 4311 
Q 3641 3956 3641 3272 
Q 3641 2581 3239 2228 
Q 2838 1875 2053 1875 
L 1259 1875 
L 1259 0 
L 628 0 
L 628 4666 
z
" transform="scale(0.015625)"/>
       <path id="DejaVuSans-77" d="M 269 3500 
L 844 3500 
L 1563 769 
L 2278 3500 
L 2956 3500 
L 3675 769 
L 4391 3500 
L 4966 3500 
L 4050 0 
L 3372 0 
L 2619 2869 
L 1863 0 
L 1184 0 
L 269 3500 
z
" transform="scale(0.015625)"/>
       <path id="DejaVuSans-4c" d="M 628 4666 
L 1259 4666 
L 1259 531 
L 3531 531 
L 3531 0 
L 628 0 
L 628 4666 
z
" transform="scale(0.015625)"/>
       <path id="DejaVuSans-46" d="M 628 4666 
L 3309 4666 
L 3309 4134 
L 1259 4134 
L 1259 2759 
L 3109 2759 
L 3109 2228 
L 1259 2228 
L 1259 0 
L 628 0 
L 628 4666 
z
" transform="scale(0.015625)"/>
       <path id="DejaVuSans-3a" d="M 750 794 
L 1409 794 
L 1409 0 
L 750 0 
L 750 794 
z
M 750 3309 
L 1409 3309 
L 1409 2516 
L 750 2516 
L 750 3309 
z
" transform="scale(0.015625)"/>
       <path id="DejaVuSans-Oblique-43" d="M 4447 4306 
L 4319 3641 
Q 4019 3944 3683 4091 
Q 3347 4238 2956 4238 
Q 2422 4238 2017 3981 
Q 1613 3725 1319 3200 
Q 1131 2863 1032 2486 
Q 934 2109 934 1728 
Q 934 1091 1264 756 
Q 1594 422 2222 422 
Q 2656 422 3056 561 
Q 3456 700 3834 978 
L 3688 231 
Q 3316 72 2936 -9 
Q 2556 -91 2175 -91 
Q 1278 -91 773 396 
Q 269 884 269 1753 
Q 269 2309 461 2846 
Q 653 3384 1013 3828 
Q 1394 4300 1883 4525 
Q 2372 4750 3022 4750 
Q 3422 4750 3780 4639 
Q 4138 4528 4447 4306 
z
" transform="scale(0.015625)"/>
       <path id="DejaVuSans-3d" d="M 678 2906 
L 4684 2906 
L 4684 2381 
L 678 2381 
L 678 2906 
z
M 678 1631 
L 4684 1631 
L 4684 1100 
L 678 1100 
L 678 1631 
z
" transform="scale(0.015625)"/>
       <path id="DejaVuSans-34" d="M 2419 4116 
L 825 1625 
L 2419 1625 
L 2419 4116 
z
M 2253 4666 
L 3047 4666 
L 3047 1625 
L 3713 1625 
L 3713 1100 
L 3047 1100 
L 3047 0 
L 2419 0 
L 2419 1100 
L 313 1100 
L 313 1709 
L 2253 4666 
z
" transform="scale(0.015625)"/>
       <path id="DejaVuSans-2e" d="M 684 794 
L 1344 794 
L 1344 0 
L 684 0 
L 684 794 
z
" transform="scale(0.015625)"/>
       <path id="DejaVuSans-22c5" d="M 684 2619 
L 1344 2619 
L 1344 1825 
L 684 1825 
L 684 2619 
z
" transform="scale(0.015625)"/>
       <path id="DejaVuSans-Oblique-73" d="M 3200 3397 
L 3091 2853 
Q 2863 2978 2609 3040 
Q 2356 3103 2088 3103 
Q 1634 3103 1373 2948 
Q 1113 2794 1113 2528 
Q 1113 2219 1719 2053 
Q 1766 2041 1788 2034 
L 1972 1978 
Q 2547 1819 2739 1644 
Q 2931 1469 2931 1166 
Q 2931 609 2489 259 
Q 2047 -91 1331 -91 
Q 1053 -91 747 -37 
Q 441 16 72 128 
L 184 722 
Q 500 559 806 475 
Q 1113 391 1394 391 
Q 1816 391 2080 572 
Q 2344 753 2344 1031 
Q 2344 1331 1650 1516 
L 1591 1531 
L 1394 1581 
Q 956 1697 753 1886 
Q 550 2075 550 2369 
Q 550 2928 970 3256 
Q 1391 3584 2113 3584 
Q 2397 3584 2667 3537 
Q 2938 3491 3200 3397 
z
" transform="scale(0.015625)"/>
       <path id="DejaVuSans-2b" d="M 2944 4013 
L 2944 2272 
L 4684 2272 
L 4684 1741 
L 2944 1741 
L 2944 0 
L 2419 0 
L 2419 1741 
L 678 1741 
L 678 2272 
L 2419 2272 
L 2419 4013 
L 2944 4013 
z
" transform="scale(0.015625)"/>
       <path id="DejaVuSans-52" d="M 2841 2188 
Q 3044 2119 3236 1894 
Q 3428 1669 3622 1275 
L 4263 0 
L 3584 0 
L 2988 1197 
Q 2756 1666 2539 1819 
Q 2322 1972 1947 1972 
L 1259 1972 
L 1259 0 
L 628 0 
L 628 4666 
L 2053 4666 
Q 2853 4666 3247 4331 
Q 3641 3997 3641 3322 
Q 3641 2881 3436 2590 
Q 3231 2300 2841 2188 
z
M 1259 4147 
L 1259 2491 
L 2053 2491 
Q 2509 2491 2742 2702 
Q 2975 2913 2975 3322 
Q 2975 3731 2742 3939 
Q 2509 4147 2053 4147 
L 1259 4147 
z
" transform="scale(0.015625)"/>
       <path id="DejaVuSans-b2" d="M 838 2444 
L 2163 2444 
L 2163 2088 
L 294 2088 
L 294 2431 
Q 400 2528 597 2703 
Q 1672 3656 1672 3950 
Q 1672 4156 1509 4282 
Q 1347 4409 1081 4409 
Q 919 4409 728 4354 
Q 538 4300 313 4191 
L 313 4575 
Q 553 4663 761 4706 
Q 969 4750 1147 4750 
Q 1600 4750 1872 4544 
Q 2144 4338 2144 4000 
Q 2144 3566 1109 2678 
Q 934 2528 838 2444 
z
" transform="scale(0.015625)"/>
      </defs>
      <use xlink:href="#DejaVuSans-50" transform="translate(0 0.765625)"/>
      <use xlink:href="#DejaVuSans-6f" transform="translate(60.302734 0.765625)"/>
      <use xlink:href="#DejaVuSans-77" transform="translate(121.484375 0.765625)"/>
      <use xlink:href="#DejaVuSans-65" transform="translate(203.271484 0.765625)"/>
      <use xlink:href="#DejaVuSans-72" transform="translate(264.794922 0.765625)"/>
      <use xlink:href="#DejaVuSans-20" transform="translate(305.908203 0.765625)"/>
      <use xlink:href="#DejaVuSans-4c" transform="translate(337.695312 0.765625)"/>
      <use xlink:href="#DejaVuSans-61" transform="translate(393.408203 0.765625)"/>
      <use xlink:href="#DejaVuSans-77" transform="translate(454.6875 0.765625)"/>
      <use xlink:href="#DejaVuSans-20" transform="translate(536.474609 0.765625)"/>
      <use xlink:href="#DejaVuSans-46" transform="translate(568.261719 0.765625)"/>
      <use xlink:href="#DejaVuSans-69" transform="translate(625.78125 0.765625)"/>
      <use xlink:href="#DejaVuSans-74" transform="translate(653.564453 0.765625)"/>
      <use xlink:href="#DejaVuSans-3a" transform="translate(692.773438 0.765625)"/>
      <use xlink:href="#DejaVuSans-20" transform="translate(726.464844 0.765625)"/>
      <use xlink:href="#DejaVuSans-Oblique-43" transform="translate(758.251953 0.765625)"/>
      <use xlink:href="#DejaVuSans-3d" transform="translate(847.558594 0.765625)"/>
      <use xlink:href="#DejaVuSans-34" transform="translate(950.830078 0.765625)"/>
      <use xlink:href="#DejaVuSans-39" transform="translate(1014.453125 0.765625)"/>
      <use xlink:href="#DejaVuSans-2e" transform="translate(1078.076172 0.765625)"/>
      <use xlink:href="#DejaVuSans-39" transform="translate(1109.863281 0.765625)"/>
      <use xlink:href="#DejaVuSans-22c5" transform="translate(1192.96875 0.765625)"/>
      <use xlink:href="#DejaVuSans-Oblique-73" transform="translate(1244.238281 0.765625)"/>
      <use xlink:href="#DejaVuSans-36" transform="translate(1300.987786 39.046875) scale(0.7)"/>
      <use xlink:href="#DejaVuSans-2e" transform="translate(1345.523919 39.046875) scale(0.7)"/>
      <use xlink:href="#DejaVuSans-39" transform="translate(1367.774896 39.046875) scale(0.7)"/>
      <use xlink:href="#DejaVuSans-31" transform="translate(1412.311029 39.046875) scale(0.7)"/>
      <use xlink:href="#DejaVuSans-2b" transform="translate(1479.063958 0.765625)"/>
      <use xlink:href="#DejaVuSans-33" transform="translate(1582.335443 0.765625)"/>
      <use xlink:href="#DejaVuSans-34" transform="translate(1645.95849 0.765625)"/>
      <use xlink:href="#DejaVuSans-2e" transform="translate(1709.581536 0.765625)"/>
      <use xlink:href="#DejaVuSans-39" transform="translate(1741.368646 0.765625)"/>
      <use xlink:href="#DejaVuSans-20" transform="translate(1804.991693 0.765625)"/>
      <use xlink:href="#DejaVuSans-28" transform="translate(1836.778802 0.765625)"/>
      <use xlink:href="#DejaVuSans-52" transform="translate(1875.792474 0.765625)"/>
      <use xlink:href="#DejaVuSans-b2" transform="translate(1945.274896 0.765625)"/>
      <use xlink:href="#DejaVuSans-20" transform="translate(1985.362786 0.765625)"/>
      <use xlink:href="#DejaVuSans-3d" transform="translate(2017.149896 0.765625)"/>
      <use xlink:href="#DejaVuSans-20" transform="translate(2100.938958 0.765625)"/>
      <use xlink:href="#DejaVuSans-30" transform="translate(2132.726068 0.765625)"/>
      <use xlink:href="#DejaVuSans-2e" transform="translate(2196.349115 0.765625)"/>
      <use xlink:href="#DejaVuSans-39" transform="translate(2228.136224 0.765625)"/>
      <use xlink:href="#DejaVuSans-39" transform="translate(2291.759271 0.765625)"/>
      <use xlink:href="#DejaVuSans-31" transform="translate(2355.382318 0.765625)"/>
      <use xlink:href="#DejaVuSans-29" transform="translate(2419.005365 0.765625)"/>
     </g>
    </g>
   </g>
   <g id="legend_2">
    <g id="patch_8">
     <path d="M 502.861875 431.5145 
L 694.766875 431.5145 
Q 697.966875 431.5145 697.966875 428.3145 
L 697.966875 287.068875 
Q 697.966875 283.868875 694.766875 283.868875 
L 502.861875 283.868875 
Q 499.661875 283.868875 499.661875 287.068875 
L 499.661875 428.3145 
Q 499.661875 431.5145 502.861875 431.5145 
z
" style="fill: #ffffff; opacity: 0.95; stroke: #000000; stroke-linejoin: miter"/>
    </g>
    <g id="text_19">
     <!-- Datasets -->
     <g transform="translate(558.8825 303.946062) scale(0.18 -0.18)">
      <defs>
       <path id="DejaVuSans-44" d="M 1259 4147 
L 1259 519 
L 2022 519 
Q 2988 519 3436 956 
Q 3884 1394 3884 2338 
Q 3884 3275 3436 3711 
Q 2988 4147 2022 4147 
L 1259 4147 
z
M 628 4666 
L 1925 4666 
Q 3281 4666 3915 4102 
Q 4550 3538 4550 2338 
Q 4550 1131 3912 565 
Q 3275 0 1925 0 
L 628 0 
L 628 4666 
z
" transform="scale(0.015625)"/>
      </defs>
      <use xlink:href="#DejaVuSans-44"/>
      <use xlink:href="#DejaVuSans-61" transform="translate(77.001953 0)"/>
      <use xlink:href="#DejaVuSans-74" transform="translate(138.28125 0)"/>
      <use xlink:href="#DejaVuSans-61" transform="translate(177.490234 0)"/>
      <use xlink:href="#DejaVuSans-73" transform="translate(238.769531 0)"/>
      <use xlink:href="#DejaVuSans-65" transform="translate(290.869141 0)"/>
      <use xlink:href="#DejaVuSans-74" transform="translate(352.392578 0)"/>
      <use xlink:href="#DejaVuSans-73" transform="translate(391.601562 0)"/>
     </g>
    </g>
    <g id="PathCollection_6">
     <g>
      <use xlink:href="#m9f08f181d4" x="522.061875" y="323.647" style="fill: #440154; fill-opacity: 0.8; stroke: #000000; stroke-opacity: 0.8; stroke-width: 2.5"/>
     </g>
    </g>
    <g id="text_20">
     <!-- 3D EELS -->
     <g transform="translate(550.861875 327.847) scale(0.16 -0.16)">
      <defs>
       <path id="DejaVuSans-45" d="M 628 4666 
L 3578 4666 
L 3578 4134 
L 1259 4134 
L 1259 2753 
L 3481 2753 
L 3481 2222 
L 1259 2222 
L 1259 531 
L 3634 531 
L 3634 0 
L 628 0 
L 628 4666 
z
" transform="scale(0.015625)"/>
       <path id="DejaVuSans-53" d="M 3425 4513 
L 3425 3897 
Q 3066 4069 2747 4153 
Q 2428 4238 2131 4238 
Q 1616 4238 1336 4038 
Q 1056 3838 1056 3469 
Q 1056 3159 1242 3001 
Q 1428 2844 1947 2747 
L 2328 2669 
Q 3034 2534 3370 2195 
Q 3706 1856 3706 1288 
Q 3706 609 3251 259 
Q 2797 -91 1919 -91 
Q 1588 -91 1214 -16 
Q 841 59 441 206 
L 441 856 
Q 825 641 1194 531 
Q 1563 422 1919 422 
Q 2459 422 2753 634 
Q 3047 847 3047 1241 
Q 3047 1584 2836 1778 
Q 2625 1972 2144 2069 
L 1759 2144 
Q 1053 2284 737 2584 
Q 422 2884 422 3419 
Q 422 4038 858 4394 
Q 1294 4750 2059 4750 
Q 2388 4750 2728 4690 
Q 3069 4631 3425 4513 
z
" transform="scale(0.015625)"/>
      </defs>
      <use xlink:href="#DejaVuSans-33"/>
      <use xlink:href="#DejaVuSans-44" transform="translate(63.623047 0)"/>
      <use xlink:href="#DejaVuSans-20" transform="translate(140.625 0)"/>
      <use xlink:href="#DejaVuSans-45" transform="translate(172.412109 0)"/>
      <use xlink:href="#DejaVuSans-45" transform="translate(235.595703 0)"/>
      <use xlink:href="#DejaVuSans-4c" transform="translate(298.779297 0)"/>
      <use xlink:href="#DejaVuSans-53" transform="translate(354.492188 0)"/>
     </g>
    </g>
    <g id="PathCollection_7">
     <g>
      <use xlink:href="#m459347b26c" x="522.061875" y="347.132" style="fill: #3b528b; fill-opacity: 0.8; stroke: #000000; stroke-opacity: 0.8; stroke-width: 2.5"/>
     </g>
    </g>
    <g id="text_21">
     <!-- 4D EELS -->
     <g transform="translate(550.861875 351.332) scale(0.16 -0.16)">
      <use xlink:href="#DejaVuSans-34"/>
      <use xlink:href="#DejaVuSans-44" transform="translate(63.623047 0)"/>
      <use xlink:href="#DejaVuSans-20" transform="translate(140.625 0)"/>
      <use xlink:href="#DejaVuSans-45" transform="translate(172.412109 0)"/>
      <use xlink:href="#DejaVuSans-45" transform="translate(235.595703 0)"/>
      <use xlink:href="#DejaVuSans-4c" transform="translate(298.779297 0)"/>
      <use xlink:href="#DejaVuSans-53" transform="translate(354.492188 0)"/>
     </g>
    </g>
    <g id="PathCollection_8">
     <g>
      <use xlink:href="#m131f24c5f0" x="522.061875" y="370.617" style="fill: #21918c; fill-opacity: 0.8; stroke: #000000; stroke-opacity: 0.8; stroke-width: 2.5"/>
     </g>
    </g>
    <g id="text_22">
     <!-- 4D Diff. -->
     <g transform="translate(550.861875 374.817) scale(0.16 -0.16)">
      <defs>
       <path id="DejaVuSans-66" d="M 2375 4863 
L 2375 4384 
L 1825 4384 
Q 1516 4384 1395 4259 
Q 1275 4134 1275 3809 
L 1275 3500 
L 2222 3500 
L 2222 3053 
L 1275 3053 
L 1275 0 
L 697 0 
L 697 3053 
L 147 3053 
L 147 3500 
L 697 3500 
L 697 3744 
Q 697 4328 969 4595 
Q 1241 4863 1831 4863 
L 2375 4863 
z
" transform="scale(0.015625)"/>
      </defs>
      <use xlink:href="#DejaVuSans-34"/>
      <use xlink:href="#DejaVuSans-44" transform="translate(63.623047 0)"/>
      <use xlink:href="#DejaVuSans-20" transform="translate(140.625 0)"/>
      <use xlink:href="#DejaVuSans-44" transform="translate(172.412109 0)"/>
      <use xlink:href="#DejaVuSans-69" transform="translate(249.414062 0)"/>
      <use xlink:href="#DejaVuSans-66" transform="translate(277.197266 0)"/>
      <use xlink:href="#DejaVuSans-66" transform="translate(312.402344 0)"/>
      <use xlink:href="#DejaVuSans-2e" transform="translate(340.357422 0)"/>
     </g>
    </g>
    <g id="PathCollection_9">
     <g>
      <use xlink:href="#m3ddc0d997f" x="522.061875" y="394.102" style="fill: #5ec962; fill-opacity: 0.8; stroke: #000000; stroke-opacity: 0.8; stroke-width: 2.5"/>
     </g>
    </g>
    <g id="text_23">
     <!-- 4D Diff. (2×2 bin) -->
     <g transform="translate(550.861875 398.302) scale(0.16 -0.16)">
      <defs>
       <path id="DejaVuSans-d7" d="M 4488 3438 
L 3059 2003 
L 4488 575 
L 4116 197 
L 2681 1631 
L 1247 197 
L 878 575 
L 2303 2003 
L 878 3438 
L 1247 3816 
L 2681 2381 
L 4116 3816 
L 4488 3438 
z
" transform="scale(0.015625)"/>
      </defs>
      <use xlink:href="#DejaVuSans-34"/>
      <use xlink:href="#DejaVuSans-44" transform="translate(63.623047 0)"/>
      <use xlink:href="#DejaVuSans-20" transform="translate(140.625 0)"/>
      <use xlink:href="#DejaVuSans-44" transform="translate(172.412109 0)"/>
      <use xlink:href="#DejaVuSans-69" transform="translate(249.414062 0)"/>
      <use xlink:href="#DejaVuSans-66" transform="translate(277.197266 0)"/>
      <use xlink:href="#DejaVuSans-66" transform="translate(312.402344 0)"/>
      <use xlink:href="#DejaVuSans-2e" transform="translate(340.357422 0)"/>
      <use xlink:href="#DejaVuSans-20" transform="translate(372.144531 0)"/>
      <use xlink:href="#DejaVuSans-28" transform="translate(403.931641 0)"/>
      <use xlink:href="#DejaVuSans-32" transform="translate(442.945312 0)"/>
      <use xlink:href="#DejaVuSans-d7" transform="translate(506.568359 0)"/>
      <use xlink:href="#DejaVuSans-32" transform="translate(590.357422 0)"/>
      <use xlink:href="#DejaVuSans-20" transform="translate(653.980469 0)"/>
      <use xlink:href="#DejaVuSans-62" transform="translate(685.767578 0)"/>
      <use xlink:href="#DejaVuSans-69" transform="translate(749.244141 0)"/>
      <use xlink:href="#DejaVuSans-6e" transform="translate(777.027344 0)"/>
      <use xlink:href="#DejaVuSans-29" transform="translate(840.40625 0)"/>
     </g>
    </g>
    <g id="PathCollection_10">
     <g>
      <use xlink:href="#med4f26bc8b" x="522.061875" y="417.587" style="fill: #fde725; fill-opacity: 0.8; stroke: #000000; stroke-opacity: 0.8; stroke-width: 2.5"/>
     </g>
    </g>
    <g id="text_24">
     <!-- 4D Diff. (4×4 bin) -->
     <g transform="translate(550.861875 421.787) scale(0.16 -0.16)">
      <use xlink:href="#DejaVuSans-34"/>
      <use xlink:href="#DejaVuSans-44" transform="translate(63.623047 0)"/>
      <use xlink:href="#DejaVuSans-20" transform="translate(140.625 0)"/>
      <use xlink:href="#DejaVuSans-44" transform="translate(172.412109 0)"/>
      <use xlink:href="#DejaVuSans-69" transform="translate(249.414062 0)"/>
      <use xlink:href="#DejaVuSans-66" transform="translate(277.197266 0)"/>
      <use xlink:href="#DejaVuSans-66" transform="translate(312.402344 0)"/>
      <use xlink:href="#DejaVuSans-2e" transform="translate(340.357422 0)"/>
      <use xlink:href="#DejaVuSans-20" transform="translate(372.144531 0)"/>
      <use xlink:href="#DejaVuSans-28" transform="translate(403.931641 0)"/>
      <use xlink:href="#DejaVuSans-34" transform="translate(442.945312 0)"/>
      <use xlink:href="#DejaVuSans-d7" transform="translate(506.568359 0)"/>
      <use xlink:href="#DejaVuSans-34" transform="translate(590.357422 0)"/>
      <use xlink:href="#DejaVuSans-20" transform="translate(653.980469 0)"/>
      <use xlink:href="#DejaVuSans-62" transform="translate(685.767578 0)"/>
      <use xlink:href="#DejaVuSans-69" transform="translate(749.244141 0)"/>
      <use xlink:href="#DejaVuSans-6e" transform="translate(777.027344 0)"/>
      <use xlink:href="#DejaVuSans-29" transform="translate(840.40625 0)"/>
     </g>
    </g>
   </g>
  </g>
 </g>
 <defs>
  <clipPath id="p1532b2fd82">
   <rect x="62.396875" y="72.4985" width="643.57" height="367.016"/>
  </clipPath>
 </defs>
</svg>
